<?xml version="1.0" encoding="UTF-8" standalone="no"?>
<!-- Created with Inkscape (http://www.inkscape.org/) -->

<svg
   xmlns:dc="http://purl.org/dc/elements/1.1/"
   xmlns:cc="http://creativecommons.org/ns#"
   xmlns:rdf="http://www.w3.org/1999/02/22-rdf-syntax-ns#"
   xmlns:svg="http://www.w3.org/2000/svg"
   xmlns="http://www.w3.org/2000/svg"
   xmlns:xlink="http://www.w3.org/1999/xlink"
   xmlns:sodipodi="http://sodipodi.sourceforge.net/DTD/sodipodi-0.dtd"
   xmlns:inkscape="http://www.inkscape.org/namespaces/inkscape"
   width="72.5"
   height="72.5"
   id="svg2"
   version="1.1"
   inkscape:version="0.92.1 r15371"
   sodipodi:docname="bonsai-circle.svg"
   inkscape:export-xdpi="451.76001"
   inkscape:export-ydpi="451.76001">
  <defs
     id="defs4">
    <linearGradient
       id="linearGradient3817">
      <stop
         style="stop-color:#4c2710;stop-opacity:1;"
         offset="0"
         id="stop3819" />
      <stop
         style="stop-color:#2e170a;stop-opacity:1;"
         offset="1"
         id="stop3821" />
    </linearGradient>
    <linearGradient
       id="linearGradient3809">
      <stop
         style="stop-color:#000000;stop-opacity:1;"
         offset="0"
         id="stop3811" />
      <stop
         style="stop-color:#00b200;stop-opacity:1;"
         offset="1"
         id="stop3813" />
    </linearGradient>
    <linearGradient
       inkscape:collect="always"
       xlink:href="#linearGradient3817"
       id="linearGradient4039"
       gradientUnits="userSpaceOnUse"
       x1="-1231.092"
       y1="1110.484"
       x2="-1426.9924"
       y2="460.91336"
       gradientTransform="matrix(0.03422298,0,0,0.02450309,88.4659,41.2573)" />
    <linearGradient
       inkscape:collect="always"
       xlink:href="#linearGradient3809"
       id="linearGradient4041"
       gradientUnits="userSpaceOnUse"
       x1="-628.78992"
       y1="1441.4624"
       x2="-1680.355"
       y2="-606.33649"
       gradientTransform="matrix(0.03422298,0,0,0.02450309,-2324.8455,1640.1726)" />
  </defs>
  <sodipodi:namedview
     id="base"
     pagecolor="#ffffff"
     bordercolor="#666666"
     borderopacity="1.0"
     inkscape:pageopacity="0.0"
     inkscape:pageshadow="2"
     inkscape:zoom="8.0893901"
     inkscape:cx="67.618235"
     inkscape:cy="5.6311999"
     inkscape:document-units="px"
     inkscape:current-layer="layer1"
     showgrid="false"
     inkscape:window-width="3000"
     inkscape:window-height="1875"
     inkscape:window-x="-13"
     inkscape:window-y="-13"
     inkscape:window-maximized="1"
     fit-margin-top="1"
     fit-margin-left="1"
     fit-margin-right="1"
     fit-margin-bottom="1"
     units="px" />
  <metadata
     id="metadata7">
    <rdf:RDF>
      <cc:Work
         rdf:about="">
        <dc:format>image/svg+xml</dc:format>
        <dc:type
           rdf:resource="http://purl.org/dc/dcmitype/StillImage" />
        <dc:title></dc:title>
      </cc:Work>
    </rdf:RDF>
  </metadata>
  <g
     inkscape:label="Layer 1"
     inkscape:groupmode="layer"
     id="layer1"
     transform="translate(2412.6075,-1610.7035)">
    <g
       id="g868"
       transform="matrix(0.85490932,0,0,0.85490932,-349.52801,243.69833)">
      <g
         transform="matrix(0.03208404,0,0,0.02297165,-2324.8464,1640.1653)"
         style="stroke:#000000;stroke-width:30;stroke-miterlimit:4;stroke-dasharray:none;stroke-opacity:1"
         id="g3843">
        <path
           id="path3017"
           transform="matrix(31.168145,0,0,43.531919,-2757.318,-1796.0094)"
           d="m 35.177734,12.363281 c -0.151996,-0.0015 -0.290427,0.02102 -0.464843,0.06836 -0.246184,0.06682 -0.542748,0.267734 -0.669922,0.453125 -0.07445,0.108529 -0.08504,0.154329 -0.08594,0.408203 -5.52e-4,0.157622 -0.01172,0.294897 -0.02539,0.304687 -0.01367,0.0098 -0.148341,0.03146 -0.300782,0.04883 -0.400306,0.04561 -0.481493,0.09927 -0.691406,0.451172 -0.02813,0.04717 -0.10843,0.132178 -0.177734,0.189453 -0.106997,0.08843 -0.145417,0.103516 -0.25586,0.103516 -0.140804,0 -0.175378,0.03334 -0.226562,0.220703 -0.01288,0.04717 -0.05255,0.127734 -0.08789,0.177734 -0.03535,0.05 -0.06445,0.119401 -0.06445,0.154297 0,0.07766 -0.08219,0.196644 -0.148437,0.214844 -0.143955,0.03955 -3.081071,0.02139 -3.503907,-0.02148 -0.188015,-0.01907 -0.597854,0.02681 -1.035156,0.113281 -0.122346,0.02419 -0.275919,0.05099 -0.341797,0.06055 -0.06588,0.0096 -0.181739,0.03908 -0.255859,0.06445 -0.0773,0.02646 -0.208857,0.04492 -0.308594,0.04492 -0.194878,0 -0.60457,0.110955 -0.804687,0.216797 -0.185866,0.0983 -0.613113,0.398843 -0.689454,0.486328 -0.0631,0.07231 -0.131308,0.202281 -0.304687,0.576172 -0.03555,0.07666 -0.07952,0.159182 -0.09766,0.183593 -0.01814,0.02441 -0.05154,0.07925 -0.07422,0.123047 -0.04737,0.0915 -0.105692,0.101008 -0.203125,0.03125 -0.05684,-0.0407 -0.114393,-0.04883 -0.337891,-0.04883 -0.225441,0 -0.320764,0.01484 -0.589843,0.08789 -0.256195,0.06956 -0.407872,0.09346 -0.75,0.117187 -0.417808,0.02897 -0.435203,0.03078 -0.644532,0.13086 -0.1182,0.05652 -0.272418,0.110776 -0.341797,0.11914 -0.213214,0.0257 -0.24414,0.03755 -0.24414,0.08594 0,0.05017 -0.158899,0.121094 -0.269531,0.121094 -0.03628,0 -0.08208,0.01472 -0.103516,0.0332 -0.05844,0.05042 -0.199631,0.35071 -0.242187,0.517578 -0.02062,0.08086 -0.06032,0.202148 -0.08984,0.269531 -0.08146,0.185957 -0.103216,0.877881 -0.03516,1.134766 0.0594,0.224189 0.05345,0.268359 -0.08398,0.580078 -0.05348,0.12129 -0.113904,0.26784 -0.134765,0.326172 -0.02878,0.08047 -0.109786,0.161516 -0.332032,0.332031 -0.161103,0.123604 -0.316952,0.23558 -0.347656,0.248047 -0.0949,0.03853 -0.496913,0.272612 -0.572266,0.333984 -0.12137,0.09886 -0.445218,0.447734 -0.488281,0.525391 -0.02247,0.04052 -0.136649,0.140136 -0.253906,0.222656 -0.186739,0.131417 -0.234888,0.1531 -0.384766,0.167969 -0.374514,0.03715 -0.768351,0.231586 -0.949219,0.470703 -0.108986,0.144088 -0.171081,0.371557 -0.142578,0.525391 0.04058,0.219005 -0.1982,0.448229 -0.589843,0.564453 -0.100841,0.02992 -0.189671,0.07222 -0.199219,0.09375 -0.0095,0.02153 -0.0217,0.175663 -0.02539,0.34375 -0.0062,0.280799 5.05e-4,0.317825 0.08398,0.46289 0.06276,0.109053 0.0803,0.167088 0.05664,0.1875 -0.01884,0.01625 -0.137354,0.05054 -0.263672,0.07422 -0.501226,0.09397 -0.808025,0.252277 -0.976562,0.505859 -0.358931,0.540061 -0.401325,0.731189 -0.232422,1.039063 0.16232,0.29587 1.244602,1.130898 1.609375,1.242187 0.06826,0.02083 0.323664,0.101352 0.568359,0.177735 0.627253,0.1958 1.003103,0.255193 1.617188,0.255859 0.376468,4.09e-4 0.450341,0.01801 0.601562,0.152344 0.09822,0.08725 0.10301,0.09787 0.06055,0.171875 -0.155752,0.271438 -0.281628,0.57534 -0.298828,0.720703 -0.01553,0.131256 -0.0431,0.192989 -0.128906,0.289063 -0.138882,0.155504 -0.171677,0.218202 -0.265625,0.503906 -0.139097,0.423009 -0.08554,0.638763 0.24414,0.972656 0.360401,0.365011 0.595308,0.489084 1.025391,0.544922 0.118419,0.01537 0.27154,0.05561 0.339844,0.08789 0.265951,0.125678 0.369882,0.135256 1.339844,0.144531 0.498801,0.0048 0.967677,0.02098 1.042968,0.03516 0.174772,0.03291 0.43608,0.03292 0.632813,0 0.0847,-0.01418 0.272157,-0.02604 0.416016,-0.02734 0.23781,-0.0022 0.277224,0.0042 0.429687,0.07422 0.254869,0.117097 0.4412,0.157732 0.728516,0.158203 0.330805,5.42e-4 0.579203,-0.06743 0.830078,-0.224609 0.173751,-0.108864 0.205946,-0.118898 0.414062,-0.132813 0.479426,-0.03205 0.914486,-0.276338 1.064453,-0.599609 0.04294,-0.09257 0.08389,-0.130585 0.175782,-0.166016 0.0657,-0.02533 0.211875,-0.132708 0.326172,-0.238281 0.128798,-0.118967 0.278583,-0.225134 0.392578,-0.277344 0.221861,-0.101615 0.240719,-0.123388 0.271484,-0.330078 l 0.02344,-0.162109 -0.132813,-0.0957 c -0.144118,-0.103343 -0.561266,-0.279782 -0.78125,-0.330078 -0.07515,-0.01718 -0.219815,-0.03694 -0.322266,-0.04492 l -0.185547,-0.01367 -0.04102,-0.171875 c -0.03864,-0.163574 -0.160127,-0.389435 -0.224609,-0.417969 -0.11062,-0.04895 0.05465,-0.06055 0.93164,-0.06055 h 0.960938 l 0.347656,0.238282 c 0.341024,0.234354 0.709995,0.431549 1.152344,0.617187 0.204702,0.08591 0.227235,0.105305 0.283203,0.226563 0.03345,0.07247 0.07036,0.19536 0.08203,0.273437 0.01587,0.106237 0.03746,0.148646 0.08789,0.167969 0.08119,0.03111 0.07137,0.117121 -0.06445,0.568359 -0.111364,0.369965 -0.149964,0.447353 -0.300782,0.597656 -0.06755,0.06732 -0.123047,0.13079 -0.123047,0.140625 0,0.01822 -0.163627,0.220768 -0.357421,0.441407 -0.145839,0.166123 -0.178299,0.228805 -0.257813,0.513671 -0.129023,0.462216 -0.08702,0.64201 0.224609,0.978516 0.300891,0.324909 0.377161,0.39412 0.427735,0.382813 0.02626,-0.0059 0.08771,-0.0102 0.134765,-0.0098 0.133884,0.0012 0.831269,0.204332 0.900391,0.261719 0.06118,0.05079 0.05866,0.05287 -0.154297,0.199218 -0.286934,0.197192 -0.591052,0.463954 -0.671875,0.587891 -0.03596,0.05514 -0.08429,0.159042 -0.105469,0.230469 -0.02119,0.07143 -0.06161,0.160131 -0.08984,0.199219 -0.03222,0.04461 -0.05078,0.140643 -0.05078,0.255859 0,0.10095 -0.01489,0.189163 -0.0332,0.197266 -0.128387,0.05681 -0.591347,0.114914 -0.861328,0.107422 -0.271553,-0.0075 -0.309416,-0.01492 -0.455078,-0.08984 l -0.158203,-0.08203 -0.261719,0.04492 c -0.144388,0.02437 -0.301525,0.06694 -0.349609,0.0957 -0.103981,0.0622 -0.221543,0.09261 -0.357422,0.08984 -0.05797,-0.0012 -0.148246,0.02311 -0.216797,0.06055 -0.06463,0.03529 -0.189485,0.08193 -0.277344,0.103516 -0.385881,0.09483 -0.861328,0.351588 -0.861328,0.464844 0,0.02493 0.03693,0.06386 0.08398,0.08594 0.06791,0.03186 0.08594,0.06005 0.08594,0.138672 0,0.183817 -0.0015,0.185385 -0.566406,0.189453 -0.347859,0.0025 -0.562151,0.01552 -0.695313,0.04297 -0.231133,0.04765 -0.617776,0.200597 -0.90625,0.359375 -0.115929,0.06381 -0.334516,0.175243 -0.486328,0.248047 -0.56687,0.271854 -0.697172,0.450364 -0.722656,0.986328 -0.0092,0.194096 -0.0015,0.384139 0.01758,0.433593 0.0259,0.06716 0.02302,0.09459 -0.01172,0.115235 -0.07649,0.04545 0.259789,0.496379 0.486328,0.652344 0.186178,0.128173 0.209473,0.170934 0.144532,0.257812 -0.02029,0.02714 -0.05482,0.122996 -0.07813,0.212891 l -0.04297,0.164062 h -0.292969 c -0.184567,0 -0.310851,0.01171 -0.34375,0.03125 -0.02862,0.017 -0.157531,0.05036 -0.287109,0.07422 -0.484177,0.08916 -0.997189,0.363663 -1.183594,0.634766 -0.09761,0.141968 -0.113161,0.19133 -0.125,0.402343 -0.01321,0.235558 -0.01415,0.240165 -0.08984,0.226563 -0.06955,-0.0125 -0.08075,-0.0017 -0.101562,0.09766 -0.01503,0.07176 -0.0077,0.127035 0.01953,0.158203 0.03633,0.04165 0.02521,0.06157 -0.08594,0.154297 l -0.128907,0.107422 0.164063,0.01172 0.166015,0.01172 0.05078,0.160157 c 0.02854,0.0876 0.102769,0.218847 0.164062,0.292969 0.06129,0.07412 0.121009,0.177487 0.132813,0.228515 0.01295,0.05596 0.04729,0.103581 0.08789,0.119141 0.0682,0.02613 0.06892,0.04435 0.0078,0.220703 -0.03532,0.101945 0.105565,0.153324 0.427734,0.158203 0.20247,0.0031 0.303878,0.0189 0.464844,0.07227 0.170299,0.05646 0.25855,0.06933 0.519531,0.07422 0.489526,0.0092 0.7644,0.119653 0.962891,0.388672 0.07592,0.102896 0.08984,0.155679 0.08984,0.320313 0,0.164837 -0.01506,0.215434 -0.0918,0.320312 -0.1071,0.146377 -0.2872,0.266586 -0.5,0.333985 -0.277871,0.08801 -1.06656,0.06263 -1.509766,-0.04883 -0.08332,-0.02096 -0.259439,-0.04534 -0.392578,-0.05469 -0.154709,-0.01086 -0.360586,-0.05002 -0.56836,-0.109375 l -0.324218,-0.09375 -0.302735,0.05664 c -0.262896,0.04847 -0.341701,0.05323 -0.599609,0.03516 -0.670967,-0.04703 -0.88406,-0.0064 -1.365234,0.265625 -0.350105,0.197902 -0.455523,0.285703 -0.576172,0.476562 -0.07291,0.115336 -0.104416,0.135727 -0.296875,0.201172 -0.117928,0.0401 -0.299453,0.13001 -0.404297,0.201172 -0.104851,0.07116 -0.248246,0.167418 -0.31836,0.212891 -0.198536,0.128751 -0.583113,0.564652 -0.65039,0.736328 -0.04975,0.126941 -0.07155,0.151549 -0.150391,0.164062 -0.05082,0.0081 -0.182709,0.03484 -0.291015,0.06055 -0.108306,0.02571 -0.288456,0.04687 -0.400391,0.04687 -0.447893,0 -0.766371,0.08756 -1.029297,0.28125 l -0.173828,0.128906 -0.267578,0.01367 c -0.14621,0.0081 -0.352648,0.03792 -0.458984,0.06641 -0.262573,0.07034 -0.53968,0.256078 -0.671876,0.449218 -0.15073,0.220217 -0.16274,0.380542 -0.05469,0.726563 0.161806,0.518167 0.157644,0.51001 0.365234,0.609375 0.133682,0.06399 0.243927,0.148715 0.392579,0.304687 0.120918,0.126868 0.270087,0.251422 0.361328,0.298828 0.08557,0.04446 0.211983,0.136051 0.28125,0.205079 l 0.125,0.125 0.607422,0.002 c 0.334132,7.3e-5 0.661986,0.0102 0.728515,0.02344 0.194397,0.03867 0.437096,0.161296 0.556641,0.283203 0.114572,0.116841 0.227055,0.170567 0.552734,0.257813 0.107973,0.02892 0.191406,0.06612 0.191406,0.08594 0,0.05158 -0.265443,0.180272 -0.435546,0.210938 -0.133005,0.02398 -0.157297,0.03959 -0.234376,0.15625 -0.09404,0.142316 -0.245618,0.250311 -0.46875,0.333984 -0.119429,0.04479 -0.213772,0.05577 -0.539062,0.0625 -0.216461,0.0045 -0.426288,0.01337 -0.466797,0.01953 -0.04051,0.0062 -0.128216,0.06399 -0.193359,0.128906 -0.08865,0.08835 -0.159987,0.13004 -0.285156,0.164062 -0.17928,0.04873 -0.641024,0.266755 -0.828126,0.390625 -0.154539,0.10231 -0.281302,0.260796 -0.349609,0.439453 l -0.05664,0.148438 -0.230468,0.0293 c -0.126992,0.01678 -0.302863,0.05556 -0.390625,0.08594 -0.218746,0.07572 -0.469648,0.262935 -0.580078,0.431641 -0.07962,0.121645 -0.09182,0.17157 -0.0918,0.373047 1.9e-5,0.190166 0.01275,0.255025 0.07617,0.353515 0.239003,0.371181 0.751136,0.58285 1.316406,0.542969 0.226648,-0.01599 0.238396,-0.01386 0.373047,0.0625 0.181358,0.102842 0.212329,0.165262 0.148437,0.294922 -0.04808,0.09757 -0.04728,0.105337 0.03516,0.210938 0.06421,0.08226 0.08192,0.132197 0.06641,0.191406 -0.01674,0.06389 -0.0077,0.081 0.04297,0.0918 0.233661,0.0498 1.056899,0.165836 1.414062,0.199218 0.235282,0.02199 0.466447,0.05147 0.513672,0.06445 0.06168,0.01696 0.140954,0.09827 0.279297,0.28711 0.105922,0.144585 0.210098,0.303174 0.232422,0.353516 0.03244,0.07313 0.07048,0.100993 0.189453,0.138671 0.08189,0.02594 0.231732,0.09316 0.333984,0.148438 0.240415,0.129962 0.560805,0.22241 0.769531,0.222656 0.122128,8.3e-5 0.245043,0.02705 0.488282,0.109375 0.178817,0.06052 0.353171,0.111328 0.386718,0.111328 0.117794,2.13e-4 0.315816,0.07542 0.458985,0.175782 0.155341,0.108884 0.248918,0.128815 0.916015,0.191406 0.340845,0.03198 0.369755,0.03908 0.554688,0.123047 0.08269,0.03754 0.252537,0.0875 0.378906,0.111328 0.126376,0.02382 0.291896,0.0677 0.367188,0.09766 0.07529,0.02995 0.198149,0.06722 0.273437,0.08398 0.07898,0.01759 0.199621,0.07693 0.283203,0.138672 0.150118,0.110879 0.205689,0.124 0.320313,0.08008 0.05537,-0.02122 0.103065,-0.0081 0.263672,0.06836 0.200916,0.09563 0.579137,0.204297 1.033203,0.298828 0.14117,0.02939 0.378713,0.09706 0.529297,0.150391 0.15058,0.05333 0.308487,0.0979 0.349609,0.09766 0.142521,-7.62e-4 0.555968,-0.07286 0.705078,-0.123047 0.13902,-0.04679 0.224243,-0.05182 1.173828,-0.05859 l 1.023438,-0.0078 0.285156,-0.07813 c 0.411728,-0.112661 0.540593,-0.163746 0.712891,-0.28711 0.316923,-0.226911 0.43015,-0.569921 0.300781,-0.912109 -0.05858,-0.154899 -0.05931,-0.162649 0,-0.1875 0.411773,-0.172526 0.571025,-0.309652 0.767578,-0.666016 0.187255,-0.3395 0.203039,-0.456878 0.107422,-0.759765 -0.134018,-0.424561 -0.158394,-0.469284 -0.382813,-0.671875 -0.09512,-0.08587 -0.166687,-0.184169 -0.203125,-0.279297 -0.104199,-0.272036 -0.24264,-0.514597 -0.359375,-0.628906 -0.0794,-0.07775 -0.117187,-0.140603 -0.117187,-0.199219 0,-0.10887 -0.05458,-0.139895 -0.283203,-0.16211 -0.101264,-0.0098 -0.228202,-0.04043 -0.283203,-0.06836 -0.120726,-0.0613 -0.381121,-0.126578 -0.583985,-0.146484 -0.227835,-0.02236 -0.18508,-0.06933 0.06445,-0.07031 0.230457,-8.94e-4 0.423319,-0.05313 0.414063,-0.111328 -0.0031,-0.01964 -0.02607,-0.07109 -0.05078,-0.115234 -0.03299,-0.05894 -0.03508,-0.09209 -0.0078,-0.123047 0.05055,-0.05737 0.334573,-0.135199 0.765625,-0.210938 0.197638,-0.03473 0.498565,-0.08873 0.667969,-0.121094 0.766109,-0.146339 2.14953,-0.271783 2.839844,-0.255859 0.380667,0.0088 0.474712,0.02006 0.65625,0.07422 0.116699,0.03481 0.264054,0.07053 0.326172,0.08008 0.249357,0.03832 0.925057,0.282463 1.134765,0.410156 0.326333,0.198703 1.150391,0.802247 1.150391,0.841797 0,0.01947 -0.01604,0.05397 -0.03711,0.07813 -0.0318,0.03646 -0.0041,0.08329 0.167969,0.275391 0.247548,0.276434 0.32683,0.482735 0.292969,0.769531 -0.03764,0.318768 0.137718,0.71426 0.410156,0.919922 0.0984,0.07428 0.227664,0.185738 0.28711,0.248047 0.120254,0.126049 0.283203,0.414452 0.283203,0.501953 0,0.03499 0.03822,0.07513 0.101562,0.107422 0.115872,0.05907 0.165373,0.155352 0.105469,0.207031 -0.03213,0.02772 -0.01969,0.04634 0.0625,0.08984 0.05643,0.02987 0.118904,0.0855 0.140625,0.123047 0.02172,0.03754 0.07138,0.08677 0.109375,0.111328 0.038,0.02456 0.134236,0.117479 0.214844,0.205078 0.08061,0.0876 0.381141,0.335154 0.666015,0.550781 0.284871,0.215627 0.588952,0.468295 0.675781,0.560547 0.156378,0.166148 0.229668,0.21183 0.615235,0.386719 0.274479,0.124502 0.657413,0.350072 1.261719,0.742187 0.457881,0.29711 0.554798,0.347806 0.898437,0.470703 0.365938,0.130874 1.19792,0.510421 1.498047,0.683594 0.111437,0.0643 0.218484,0.187474 0.535156,0.615235 0.397233,0.53658 0.489354,0.695947 0.595703,1.037109 0.120681,0.387134 -0.0275,1.348493 -0.324218,2.095703 -0.219446,0.552617 -0.254761,0.641016 -0.283203,0.744141 -0.05964,0.216232 -0.47897,0.655935 -0.697266,0.730468 -0.126822,0.0433 -0.135403,0.05487 -0.169922,0.236329 -0.04085,0.214697 -0.200899,0.410119 -0.486328,0.59375 -0.164944,0.106117 -0.278665,0.20323 -0.31836,0.269531 -0.03409,0.05695 -0.118727,0.135314 -0.1875,0.173828 -0.238775,0.133725 -0.324382,0.362312 -0.142578,0.380859 0.0592,0.006 0.07502,0.02683 0.08398,0.105469 0.0061,0.05391 -0.0052,0.137534 -0.02734,0.185547 -0.03398,0.07378 -0.02944,0.113856 0.03125,0.259766 0.122933,0.29555 0.09687,0.408823 -0.154297,0.677734 -0.07345,0.07863 -0.158649,0.175197 -0.189453,0.214844 -0.0308,0.03965 -0.118564,0.104723 -0.195313,0.144531 -0.07675,0.03981 -0.166153,0.108277 -0.197265,0.152344 -0.07259,0.102818 -0.183285,0.191406 -0.242188,0.191406 -0.02536,0 -0.0645,-0.02881 -0.08594,-0.0625 -0.03843,-0.06039 -0.14171,-0.08306 -0.179688,-0.03906 -0.01072,0.01242 -0.09243,0.04285 -0.18164,0.06641 -0.08921,0.02356 -0.20516,0.07318 -0.25586,0.111328 -0.102133,0.07684 -0.245872,0.09025 -0.466796,0.04297 -0.113106,-0.0242 -0.142403,-0.01775 -0.330079,0.06055 -0.112935,0.04712 -0.256154,0.115537 -0.318359,0.152344 -0.111649,0.06606 -0.245701,0.08542 -0.351562,0.05078 -0.03955,-0.01294 -0.07863,0.0088 -0.144532,0.08008 -0.05233,0.05662 -0.07608,0.10468 -0.05664,0.113281 0.01849,0.0082 0.0332,0.03491 0.0332,0.06055 0,0.0343 -0.03947,0.05448 -0.146485,0.07422 -0.289763,0.05344 -0.376031,0.07804 -0.482422,0.144532 -0.05956,0.03722 -0.185184,0.09747 -0.279296,0.132812 -0.09411,0.03535 -0.278397,0.113047 -0.410157,0.171875 -0.19723,0.08806 -0.240006,0.119357 -0.248047,0.177735 -0.0054,0.039 -0.02342,0.09219 -0.03906,0.11914 -0.01564,0.02696 -0.04346,0.08262 -0.06055,0.123047 -0.02086,0.04937 -0.05224,0.07227 -0.09766,0.07227 -0.08769,0 -0.118499,0.03233 -0.119141,0.125 -2.85e-4,0.04138 -0.04199,0.135815 -0.09375,0.208984 -0.07884,0.111449 -0.124324,0.144273 -0.28125,0.201172 -0.103025,0.03735 -0.228835,0.09912 -0.279297,0.138672 -0.09384,0.07356 -0.16263,0.0919 -0.373047,0.103515 -0.09847,0.0054 -0.116787,0.01636 -0.107421,0.05664 0.0063,0.02696 0.01805,0.121387 0.02734,0.208984 0.01439,0.135597 0.0056,0.175656 -0.06445,0.269532 -0.04632,0.06204 -0.162257,0.153464 -0.263672,0.208984 -0.223475,0.122347 -0.271897,0.184697 -0.273437,0.345703 -0.0015,0.15677 -0.02565,0.203125 -0.103516,0.203125 -0.08793,0 -0.147037,-0.06207 -0.11914,-0.125 0.02208,-0.04981 0.01393,-0.05197 -0.08984,-0.03711 -0.06166,0.0088 -0.150496,0.03091 -0.199219,0.04883 -0.210526,0.07741 -0.368008,0.146146 -0.439453,0.193359 l -0.07617,0.05078 -0.126953,-0.0625 -0.125,-0.06445 -0.09375,0.04687 c -0.12174,0.06207 -0.154549,0.0601 -0.244141,-0.01367 -0.09084,-0.0748 -0.200152,-0.07856 -0.287109,-0.0098 -0.03583,0.02835 -0.134253,0.08173 -0.21875,0.117187 -0.189363,0.07946 -0.498938,0.08874 -0.681641,0.02148 -0.157215,-0.05788 -0.170861,-0.05443 -0.226562,0.04102 -0.116773,0.200109 -0.36589,0.327799 -0.6875,0.351563 -0.101123,0.0075 -0.185547,0.01813 -0.185547,0.02539 0,0.0073 0.01989,0.05195 0.04297,0.09766 0.04128,0.08172 0.0395,0.08496 -0.123047,0.193359 -0.141956,0.09465 -0.162092,0.11937 -0.142578,0.175781 0.05638,0.162989 0.05607,0.198597 0,0.283204 -0.103741,0.156528 -0.261971,0.176881 -0.328125,0.04102 l -0.03516,-0.07227 -0.128907,0.0957 c -0.08017,0.06034 -0.159699,0.09766 -0.210937,0.09766 -0.09577,1.08e-4 -0.290263,0.07883 -0.398438,0.162109 -0.133132,0.102495 -0.291888,0.06211 -0.355468,-0.08984 -0.06492,-0.155145 -0.115539,-0.165884 -0.21875,-0.04883 -0.113446,0.128671 -0.244816,0.183852 -0.517579,0.220704 -0.196107,0.02649 -0.320367,0.02355 -0.548828,-0.01563 -0.05019,-0.0086 -0.09964,0.0075 -0.158203,0.05273 l -0.08398,0.06641 -1.054688,0.0098 c -0.499374,0.0046 -0.762218,0.007 -0.917968,0.002 a 37.478897,37.478897 0 0 0 11.654296,3.755859 h 9.972657 1.228515 a 37.478897,37.478897 0 0 0 14.966797,-5.751953 c -0.0994,-0.02568 -0.181515,-0.05635 -0.277344,-0.111328 -0.07925,-0.04547 -0.269256,-0.127391 -0.423828,-0.183594 -0.234834,-0.08539 -0.326108,-0.105479 -0.548828,-0.117187 -0.221429,-0.01164 -0.321695,-0.03325 -0.591797,-0.125 -0.582937,-0.198027 -0.68761,-0.23934 -0.832031,-0.328125 -0.182775,-0.112361 -0.223769,-0.122162 -0.400391,-0.09375 -0.159677,0.02569 -0.618958,-0.02575 -0.792968,-0.08984 -0.05083,-0.01872 -0.136814,-0.03516 -0.191407,-0.03516 -0.152049,0 -0.30924,-0.04715 -0.568359,-0.169922 -0.35249,-0.167018 -0.369606,-0.171485 -0.509766,-0.171875 -0.177107,-4.94e-4 -0.334828,-0.05341 -0.509765,-0.167969 -0.08113,-0.05313 -0.197118,-0.114533 -0.257813,-0.136719 -0.14913,-0.05452 -0.71779,-0.162109 -0.857422,-0.162109 -0.06194,-3.4e-5 -0.15408,-0.02095 -0.205078,-0.04687 -0.051,-0.02593 -0.171314,-0.05392 -0.265625,-0.0625 L 55.724609,71.75 l -0.08594,0.09961 c -0.08811,0.102691 -0.177697,0.121008 -0.199219,0.04102 -0.0067,-0.02509 0.01927,-0.07715 0.05859,-0.115234 l 0.07227,-0.06836 -0.07617,-0.03906 c -0.108544,-0.05443 -0.122447,-0.04815 -0.164063,0.0625 -0.03594,0.09556 -0.136684,0.193359 -0.199219,0.193359 -0.06913,0 -0.113295,-0.07943 -0.132812,-0.246094 -0.01751,-0.149559 -0.03597,-0.190347 -0.121094,-0.259765 -0.11086,-0.0904 -0.208779,-0.103161 -0.304687,-0.04102 -0.05832,0.03779 -0.06799,0.03683 -0.13086,-0.0039 -0.03711,-0.02405 -0.124185,-0.05214 -0.195312,-0.0625 -0.07112,-0.01036 -0.236177,-0.03862 -0.365235,-0.0625 -0.226009,-0.04181 -0.237555,-0.04125 -0.349609,0.002 -0.137721,0.0531 -0.180339,0.03566 -0.117188,-0.04883 0.02515,-0.03365 0.03912,-0.06446 0.03125,-0.06836 -0.0079,-0.0039 -0.09765,-0.05249 -0.201171,-0.107421 -0.455565,-0.241726 -0.544037,-0.273938 -0.654297,-0.244141 -0.119853,0.03239 -0.167103,3.26e-4 -0.167969,-0.117188 -7.03e-4,-0.09726 -0.279286,-0.392299 -0.439453,-0.464843 -0.143079,-0.0648 -0.414272,-0.26795 -0.419922,-0.314453 -0.0021,-0.01715 -0.0024,-0.05312 0,-0.08008 0.0024,-0.02695 -0.03804,-0.126366 -0.0918,-0.220704 -0.08864,-0.155559 -0.109333,-0.172844 -0.205078,-0.179687 -0.14639,-0.01046 -0.187621,-0.05203 -0.142578,-0.144531 0.03399,-0.0698 0.0264,-0.08082 -0.134766,-0.201172 -0.156442,-0.116823 -0.425272,-0.382908 -0.509765,-0.503906 -0.01882,-0.02695 -0.05682,-0.131347 -0.08594,-0.232422 -0.02912,-0.101076 -0.108655,-0.269809 -0.175781,-0.375 l -0.121094,-0.191407 -0.002,-0.580078 c -0.0012,-0.464213 -0.01224,-0.601322 -0.05469,-0.679687 -0.03347,-0.06179 -0.06935,-0.272999 -0.09766,-0.574219 -0.02469,-0.262796 -0.06392,-0.650372 -0.08594,-0.859375 -0.0563,-0.534426 -0.0096,-0.936298 0.134765,-1.171875 0.174242,-0.284243 0.158404,-0.371209 -0.185546,-1.019531 -0.05004,-0.09432 -0.119393,-0.271276 -0.154297,-0.392578 -0.03491,-0.121303 -0.117674,-0.311692 -0.183594,-0.421875 -0.06592,-0.110183 -0.206908,-0.428344 -0.3125,-0.708985 -0.372528,-0.990118 -0.504542,-1.253427 -0.748047,-1.478515 -0.08018,-0.07412 -0.180767,-0.175018 -0.222656,-0.22461 -0.09724,-0.11512 -1.024445,-0.761107 -1.560547,-1.085937 -0.582666,-0.353048 -1.146246,-0.673828 -1.179688,-0.673828 -0.04769,0 -1.205979,-0.60463 -1.388671,-0.72461 -0.09411,-0.06181 -0.251606,-0.152675 -0.34961,-0.203125 -0.09801,-0.05045 -0.340709,-0.204788 -0.539062,-0.341797 -0.304334,-0.210212 -0.366593,-0.265629 -0.402344,-0.361328 -0.03057,-0.08183 -0.06912,-0.123407 -0.136719,-0.148437 -0.122734,-0.04544 -0.14715,-0.08508 -0.197265,-0.304688 -0.02307,-0.101075 -0.0685,-0.232323 -0.101563,-0.292969 -0.100561,-0.184449 -0.207801,-0.484244 -0.207031,-0.582031 4.1e-4,-0.05082 0.032,-0.139911 0.06836,-0.197265 0.0616,-0.09717 0.0609,-0.110119 0.01172,-0.207032 -0.03965,-0.07814 -0.0468,-0.156008 -0.03125,-0.3125 0.02522,-0.25392 0.130737,-0.427975 0.330078,-0.541015 0.13654,-0.07743 0.374583,-0.366811 0.375,-0.457031 4.27e-4,-0.09788 0.07742,-0.23178 0.203125,-0.351563 0.118114,-0.112548 0.128151,-0.133441 0.09375,-0.1875 -0.03268,-0.05136 -0.02747,-0.06701 0.02734,-0.0957 0.03579,-0.01874 0.122864,-0.0332 0.193359,-0.0332 0.128028,0 0.127422,-1.66e-4 0.277344,-0.226563 0.131775,-0.198989 0.18651,-0.250601 0.445312,-0.423828 0.257452,-0.17232 0.300421,-0.212482 0.335938,-0.318359 0.06069,-0.180934 0.17668,-0.309764 0.386719,-0.425781 0.213718,-0.118056 0.272412,-0.181377 0.427734,-0.457032 0.06065,-0.107644 0.168927,-0.260936 0.242187,-0.341797 0.161078,-0.177784 0.207032,-0.258999 0.207032,-0.371093 0,-0.06249 0.03786,-0.12055 0.144531,-0.220704 0.07999,-0.07511 0.173933,-0.17759 0.208984,-0.226562 0.03505,-0.04897 0.140418,-0.1449 0.232422,-0.214844 l 0.16608,-0.128964 v -0.34375 c 0,-0.309268 0.0092,-0.360544 0.08789,-0.509766 0.132436,-0.251259 0.189954,-0.572553 0.210937,-1.185546 0.02416,-0.705668 -0.0113,-0.920127 -0.228516,-1.392579 C 46.3444,45.336722 46.164658,45.027472 45.859375,44.591797 45.736612,44.4166 45.615667,44.22047 45.591797,44.15625 45.567926,44.09203 45.470389,43.952171 45.375,43.845703 c -0.240678,-0.268632 -0.41113,-0.600699 -0.359375,-0.697265 0.01058,-0.01974 0.138007,-0.08413 0.283203,-0.144532 0.289921,-0.120611 0.323407,-0.142112 0.371094,-0.248047 0.01782,-0.03959 0.0475,-0.07752 0.06641,-0.08203 0.01891,-0.0045 0.08364,0.04795 0.144531,0.115234 0.139842,0.154522 0.300364,0.249207 0.603516,0.357422 0.13176,0.04703 0.288108,0.107536 0.347656,0.134766 0.05955,0.02723 0.205261,0.0605 0.324219,0.07422 0.136691,0.01576 0.257194,0.04915 0.328125,0.08789 0.06172,0.03371 0.194391,0.08729 0.292969,0.119141 0.09925,0.03207 0.254012,0.112267 0.347656,0.181641 0.104668,0.07754 0.255611,0.154625 0.394531,0.201171 0.171788,0.05756 0.259086,0.107045 0.376953,0.212891 0.212548,0.190872 0.423803,0.337279 0.556641,0.386719 0.06155,0.02291 0.25673,0.07215 0.435547,0.109375 0.272182,0.05666 0.333976,0.0623 0.376953,0.03516 0.02823,-0.01783 0.153259,-0.06547 0.277344,-0.105469 0.283106,-0.09127 0.493265,-0.235125 0.683593,-0.470703 0.201597,-0.249527 0.271485,-0.39304 0.271485,-0.550781 0,-0.07318 0.01445,-0.139053 0.03125,-0.146484 0.04013,-0.01776 0.414062,0.102311 0.414062,0.132812 0,0.01296 0.05551,0.05296 0.123047,0.08984 0.102756,0.05611 0.133124,0.06337 0.1875,0.03906 0.113453,-0.05073 0.213185,-0.03312 0.476563,0.08789 0.306742,0.140934 1.045351,0.530394 1.078125,0.568359 0.0602,0.06975 -0.0516,0.08871 -0.554688,0.09375 -0.569216,0.0057 -0.775565,0.03703 -0.99414,0.150391 -0.354728,0.183982 -0.93802,0.673843 -1.048828,0.880859 -0.08735,0.163181 -0.104178,0.382817 -0.03906,0.541016 0.106843,0.259598 0.117843,0.233946 -0.123047,0.316406 -0.119657,0.04096 -0.309494,0.134193 -0.421875,0.205078 -0.542281,0.342049 -0.655409,0.471008 -0.703125,0.808594 -0.01728,0.122241 -0.06387,0.262958 -0.11914,0.357422 -0.0593,0.101347 -0.09359,0.202788 -0.0957,0.292969 -0.0051,0.218391 0.06989,0.645516 0.13086,0.75 0.09204,0.157716 0.490108,0.542703 0.642578,0.621093 0.305142,0.156884 0.664763,0.20803 1.05664,0.152344 0.150577,-0.0214 0.617436,-0.02962 1.546876,-0.0293 1.072563,3.61e-4 1.36484,-0.006 1.505859,-0.03516 0.351185,-0.07255 0.34766,-0.07278 0.410156,0.03906 0.03097,0.05542 0.05469,0.125746 0.05469,0.158203 0,0.03246 0.0232,0.07399 0.05078,0.0918 0.119247,0.077 0.143066,0.0975 0.251953,0.208984 0.145289,0.148761 0.372881,0.273978 0.599609,0.330078 0.201966,0.04997 0.587823,0.05836 0.792969,0.01758 0.09027,-0.01794 0.704268,-0.02904 1.8125,-0.03125 l 1.677735,-0.002 0.189453,-0.06445 c 0.104383,-0.03505 0.246499,-0.09863 0.316406,-0.142578 0.09757,-0.06133 0.148715,-0.07802 0.220703,-0.06836 0.05158,0.0069 0.190952,0.02774 0.308594,0.04492 0.397007,0.05799 0.812065,-0.03861 1.117187,-0.259765 0.133867,-0.09703 0.277746,-0.162812 0.619141,-0.28125 0.439187,-0.152365 0.447755,-0.158439 0.890625,-0.476563 0.4565,-0.327917 0.727287,-0.468723 0.941406,-0.49414 0.263743,-0.03131 0.477438,-0.08661 0.638672,-0.166016 0.0932,-0.0459 0.269743,-0.103009 0.390625,-0.125 0.120886,-0.02199 0.305748,-0.07823 0.412109,-0.125 0.166981,-0.07342 0.224489,-0.08374 0.41211,-0.08398 0.11951,-1.6e-4 0.300772,-0.01687 0.404297,-0.03711 0.103524,-0.02023 0.347666,-0.0489 0.541015,-0.0625 0.193353,-0.0136 0.434068,-0.04661 0.53711,-0.07422 0.230645,-0.06179 0.517134,-0.245136 0.642578,-0.410157 0.120954,-0.159113 0.239642,-0.575563 0.226562,-0.800781 -0.0055,-0.09434 -2.7e-4,-0.185032 0.01367,-0.201172 0.01394,-0.01614 0.153602,-0.0584 0.308594,-0.09375 0.631496,-0.144027 0.977042,-0.47465 0.949219,-0.90625 -0.02551,-0.395798 -0.0163,-0.458765 0.09961,-0.662109 0.07276,-0.127634 0.196565,-0.272975 0.355469,-0.419922 0.507632,-0.469443 0.570312,-0.565186 0.570312,-0.880859 v -0.177735 l 0.128906,-0.01563 c 0.454516,-0.05255 0.811201,-0.176671 0.949219,-0.330078 0.04244,-0.04717 0.134795,-0.124707 0.205078,-0.171875 0.07028,-0.04717 0.179854,-0.142167 0.242188,-0.210937 l 0.113281,-0.125 0.267578,-0.01367 c 0.332836,-0.01759 0.526159,-0.06595 0.742188,-0.183594 0.581961,-0.316928 0.667716,-0.904443 0.189453,-1.310547 -0.15798,-0.134145 -0.253129,-0.34359 -0.308594,-0.689453 l -0.03516,-0.21875 0.09961,-0.101563 c 0.180783,-0.182393 0.229724,-0.315778 0.222656,-0.605468 l -0.0059,-0.259766 -0.179687,-0.160156 c -0.281529,-0.252904 -0.553929,-0.369742 -0.945313,-0.400391 -0.180067,-0.0141 -0.329051,-0.05751 -0.642578,-0.191406 -0.057,-0.02434 -0.149137,-0.09928 -0.205078,-0.166016 -0.05594,-0.06673 -0.168105,-0.163897 -0.248047,-0.216797 -0.177367,-0.117365 -0.793665,-0.329447 -1.109375,-0.380859 -0.280536,-0.04569 -0.324837,-0.07758 -0.253906,-0.175781 0.07802,-0.108015 0.308882,-0.220012 0.84375,-0.410157 0.12324,-0.04381 0.307525,-0.132984 0.410156,-0.199218 0.349731,-0.22571 0.570691,-0.341477 0.738281,-0.386719 0.09207,-0.02486 0.229397,-0.07528 0.304688,-0.111328 0.07529,-0.03604 0.206234,-0.08961 0.292968,-0.119141 0.08674,-0.02953 0.220459,-0.09925 0.296876,-0.15625 0.07641,-0.057 0.230322,-0.173063 0.341796,-0.255859 0.145729,-0.108235 0.215984,-0.181677 0.248047,-0.263672 0.02453,-0.06272 0.08812,-0.157089 0.140625,-0.208984 0.05797,-0.0573 0.0868,-0.113486 0.07617,-0.142579 -0.01206,-0.033 0.03762,-0.09352 0.158203,-0.197265 0.09628,-0.08283 0.189502,-0.150391 0.207031,-0.150391 0.05037,0 0.291778,-0.246842 0.353516,-0.361328 0.07126,-0.132142 0.124972,-0.4463 0.146484,-0.855469 0.01654,-0.314496 0.01493,-0.324398 -0.09961,-0.574218 -0.06428,-0.140203 -0.174736,-0.343359 -0.244141,-0.451172 -0.137107,-0.212989 -0.145124,-0.224258 -0.328124,-0.441407 -0.06815,-0.08086 -0.149061,-0.199186 -0.181641,-0.261718 -0.183274,-0.351781 -0.57094,-0.568899 -1.085938,-0.609375 -0.288914,-0.02271 -0.421856,-0.06697 -0.4375,-0.146485 -0.0066,-0.03356 -0.02915,-0.06822 -0.05078,-0.07813 -0.02163,-0.0099 -0.405876,-0.01932 -0.853516,-0.01953 -0.64513,-2.97e-4 -0.840114,-0.008 -0.9375,-0.03711 -0.167059,-0.04998 -0.187745,-0.04721 -0.335937,0.03711 -0.071,0.0404 -0.194024,0.08496 -0.271484,0.09961 -0.07746,0.01465 -0.18572,0.05784 -0.242188,0.0957 -0.05647,0.03786 -0.164944,0.09067 -0.240234,0.117187 -0.23387,0.08237 -0.645299,0.251594 -0.703125,0.289063 -0.03032,0.01965 -0.126997,0.05279 -0.214844,0.07422 -0.08785,0.02143 -0.160156,0.05038 -0.160156,0.06445 0,0.01407 -0.06169,0.07497 -0.138672,0.134766 -0.07698,0.05979 -0.178107,0.171565 -0.22461,0.248047 -0.0465,0.07648 -0.0983,0.155566 -0.113281,0.175781 -0.02186,0.0295 -0.150954,0.04133 -0.65625,0.05664 -0.607003,0.01839 -0.630954,0.0165 -0.685547,-0.03125 -0.05058,-0.04424 -0.05236,-0.06079 -0.0098,-0.162109 0.07776,-0.18501 -0.01834,-0.356796 -0.296875,-0.53125 -0.102183,-0.064 -0.166108,-0.122725 -0.152344,-0.138672 0.01307,-0.01514 0.130139,-0.06654 0.259766,-0.113282 0.129623,-0.04674 0.252681,-0.107001 0.273437,-0.134765 0.02075,-0.02776 0.118997,-0.08713 0.21875,-0.132813 0.12834,-0.05878 0.201208,-0.114777 0.25,-0.189453 0.111913,-0.171283 0.283203,-0.546202 0.283203,-0.621094 0,-0.03813 0.01863,-0.160628 0.04102,-0.271484 0.05029,-0.24904 0.01501,-0.379593 -0.177734,-0.658203 -0.120469,-0.17414 -0.136855,-0.219407 -0.146485,-0.404297 -0.01183,-0.227125 -0.0025,-0.218478 -0.265625,-0.255859 -0.04809,-0.0068 -0.156569,-0.04535 -0.240234,-0.08594 -0.08367,-0.04059 -0.191772,-0.07397 -0.240235,-0.07422 -0.04847,-2.45e-4 -0.20149,-0.02881 -0.339843,-0.0625 -0.225551,-0.05493 -0.305206,-0.06055 -0.779297,-0.06055 -0.500583,0 -0.539728,-0.0039 -0.734375,-0.06641 L 64.664062,28.25 64.523438,28.30859 c -0.116373,0.04839 -0.208185,0.06185 -0.533204,0.07617 -0.447595,0.01973 -0.529569,0.03941 -0.916015,0.224609 -0.150599,0.07217 -0.349812,0.151133 -0.441407,0.175781 -0.09159,0.02465 -0.209309,0.06755 -0.261718,0.09375 -0.09144,0.0457 -0.09832,0.04508 -0.1875,0.0039 -0.05112,-0.0236 -0.167068,-0.09416 -0.25586,-0.158203 -0.347979,-0.250981 -0.771298,-0.325155 -1.941406,-0.333984 -0.423509,-0.0032 -0.882598,-0.005 -1.019531,-0.0059 -0.231874,-0.0014 -0.251544,-0.0066 -0.28125,-0.0625 -0.01754,-0.03304 -0.07127,-0.103909 -0.119141,-0.158204 -0.105338,-0.119476 -0.106186,-0.13533 -0.01563,-0.269531 0.03923,-0.05813 0.08881,-0.170833 0.109375,-0.25 0.118679,-0.456919 -0.324814,-0.922347 -0.974609,-1.023437 -0.157792,-0.02455 -0.836065,-0.0204 -1.451172,0.0098 -0.413223,0.02026 -0.959534,-0.01557 -1.162109,-0.07617 -0.16395,-0.04905 -1.330069,-0.04891 -1.472657,0 -0.05466,0.01875 -0.158157,0.05236 -0.230468,0.07617 -0.07231,0.02381 -0.217419,0.09934 -0.322266,0.167969 l -0.191406,0.125 -0.884766,0.0078 -0.884765,0.0078 -0.28125,-0.191406 c -0.155034,-0.104561 -0.353525,-0.240064 -0.441407,-0.302735 -0.08788,-0.06267 -0.272169,-0.15619 -0.410156,-0.207031 -0.13799,-0.05084 -0.31338,-0.115043 -0.388672,-0.142578 -0.457236,-0.167216 -0.739664,-0.310581 -1.078125,-0.548828 -0.445994,-0.313942 -0.612049,-0.379585 -1.009766,-0.394531 -0.221864,-0.0083 -0.328741,0.0012 -0.5,0.04102 -0.308635,0.07178 -0.542968,0.09264 -0.542968,0.04883 0,-0.07025 0.286711,-0.25876 0.460937,-0.302735 0.246479,-0.06221 0.464607,-0.183817 0.63086,-0.353515 0.0798,-0.08145 0.168194,-0.148438 0.197265,-0.148438 0.04096,0 0.0469,-0.01614 0.02734,-0.06836 -0.01388,-0.03706 -0.02282,-0.231444 -0.01953,-0.433594 0.0058,-0.357107 0.002,-0.375026 -0.111328,-0.625 -0.06415,-0.141505 -0.141716,-0.342804 -0.173829,-0.447266 -0.03727,-0.121242 -0.09808,-0.232363 -0.167968,-0.30664 -0.251497,-0.267292 -0.452847,-0.440626 -0.601563,-0.519532 -0.08695,-0.04613 -0.287272,-0.178465 -0.447265,-0.294921 -0.180707,-0.131537 -0.354094,-0.232472 -0.455078,-0.265626 -0.08941,-0.02935 -0.16211,-0.06198 -0.16211,-0.07227 0,-0.01029 0.0386,-0.03608 0.08594,-0.05664 0.122756,-0.05333 0.558405,-0.312364 0.691406,-0.412109 0.09967,-0.07475 0.161203,-0.149359 0.425781,-0.521485 0.0913,-0.128405 0.14302,-0.326917 0.121094,-0.458984 -0.01031,-0.06207 -0.0011,-0.251759 0.01953,-0.421875 0.03623,-0.299161 0.03428,-0.31772 -0.05469,-0.580078 -0.11404,-0.336274 -0.155444,-0.405718 -0.324219,-0.558594 -0.07384,-0.06688 -0.14511,-0.146244 -0.158203,-0.175781 -0.01309,-0.02953 -0.05036,-0.05551 -0.08203,-0.05664 -0.03167,-0.0011 -0.287973,-0.0054 -0.570313,-0.0098 -0.539137,-0.0083 -0.707914,-0.03457 -0.912109,-0.138672 -0.0993,-0.05063 -0.130219,-0.05155 -0.658204,-0.03906 -0.507473,0.012 -0.559571,0.0093 -0.632812,-0.0332 -0.09677,-0.0561 -0.274861,-0.05952 -0.503906,-0.0098 -0.180941,0.0393 -0.482978,0.04929 -0.552735,0.01758 -0.03229,-0.01468 -0.0107,-0.06422 0.08594,-0.199219 0.127313,-0.177856 0.128418,-0.183353 0.123047,-0.453125 -0.0064,-0.319816 -0.05694,-0.543526 -0.158203,-0.699219 -0.11549,-0.177568 -0.676213,-0.55943 -1.003907,-0.685547 -0.430195,-0.165561 -0.499844,-0.189643 -0.677734,-0.220703 -0.09225,-0.01611 -0.210368,-0.04349 -0.261719,-0.0625 -0.08978,-0.03324 -0.09398,-0.04353 -0.107422,-0.263672 -0.01137,-0.186134 -0.03,-0.254786 -0.105468,-0.365234 -0.05105,-0.07471 -0.09375,-0.153887 -0.09375,-0.175781 0,-0.0219 -0.05015,-0.05761 -0.111329,-0.08008 -0.06117,-0.02247 -0.146735,-0.06101 -0.191406,-0.08594 -0.12344,-0.06888 -0.70521,-0.263932 -0.86914,-0.291015 -0.07975,-0.01318 -0.224417,-0.02507 -0.320313,-0.02539 -0.270982,-9.33e-4 -0.567222,-0.119538 -0.792969,-0.318359 -0.258016,-0.227245 -0.344592,-0.340762 -0.386718,-0.503907 -0.06401,-0.247905 -0.331309,-0.456837 -0.728516,-0.572265 -0.155893,-0.0453 -0.19786,-0.07379 -0.275391,-0.175782 -0.06395,-0.08412 -0.119486,-0.125393 -0.183593,-0.136718 -0.05063,-0.0089 -0.147013,-0.03631 -0.212891,-0.06055 -0.06588,-0.02423 -0.297214,-0.08392 -0.513672,-0.132813 -0.226922,-0.05126 -0.390972,-0.07664 -0.542969,-0.07813 z m -0.611328,11.503907 c 0.501207,0.229764 0.722972,0.378754 0.791016,0.533203 0.01187,0.02695 0.07607,0.07469 0.142578,0.105468 0.06651,0.03078 0.111012,0.06687 0.09961,0.08008 -0.0114,0.01321 -0.08339,0.04762 -0.162109,0.07617 -0.235709,0.0855 -0.388345,0.18428 -0.552734,0.361329 -0.08568,0.09227 -0.181308,0.175452 -0.210938,0.183593 -0.0713,0.01959 -0.448454,0.01452 -0.578125,-0.0078 -0.265476,-0.04572 -0.462891,-0.182722 -0.462891,-0.320313 0,-0.132059 0.193201,-0.45905 0.371094,-0.630859 0.224765,-0.217081 0.50531,-0.407077 0.5625,-0.380859 z m 4.390625,0.660156 c 0.0241,0.0066 0.05422,0.05382 0.06641,0.105468 0.02523,0.10694 0.09246,0.158834 0.240234,0.183594 0.149897,0.02511 0.255859,0.0804 0.255859,0.134766 0,0.06177 -0.06882,0.08745 -0.34375,0.121094 -0.354878,0.04343 -0.392807,0.03802 -0.445312,-0.05273 -0.02524,-0.04363 -0.121987,-0.150338 -0.212891,-0.236328 -0.0909,-0.08599 -0.154417,-0.163353 -0.142578,-0.171875 0.03497,-0.02517 0.534281,-0.0971 0.582031,-0.08398 z m 2.742188,0.402344 c 0.0759,0.005 0.179491,0.02048 0.298828,0.04687 0.261777,0.05789 0.272176,0.07273 0.275391,0.367188 l 0.002,0.183594 -0.121094,0.0039 c -0.20177,0.0067 -0.472824,-0.08382 -0.572266,-0.191406 -0.0771,-0.08342 -0.08448,-0.110402 -0.06445,-0.232422 0.01245,-0.07586 0.03096,-0.146551 0.04102,-0.158203 0.01517,-0.01757 0.06473,-0.02451 0.140625,-0.01953 z m 1.171875,0.103515 c 0.148457,-0.0026 0.352164,4.6e-4 0.626953,0.002 l 0.902344,0.0059 0.220703,0.160156 c 0.295702,0.21527 0.506498,0.276006 0.947265,0.27539 0.174111,-2.42e-4 0.316407,0.0042 0.316407,0.0098 0,0.0056 -0.05044,0.0606 -0.113282,0.123047 -0.130242,0.129426 -0.208983,0.262905 -0.24414,0.414063 -0.01361,0.05853 -0.0502,0.115113 -0.08203,0.126953 -0.03124,0.01162 -0.232757,0.02778 -0.449218,0.03711 -0.216458,0.0093 -0.518719,0.03841 -0.671875,0.06445 -0.15315,0.02604 -0.347039,0.04687 -0.429688,0.04687 -0.160073,0 -0.302734,0.05377 -0.302734,0.113281 0,0.01987 0.0245,0.04302 0.05273,0.05078 0.09438,0.02593 0.05314,0.08312 -0.09375,0.130859 -0.08,0.026 -0.165432,0.04853 -0.1875,0.04883 -0.0472,6.33e-4 -0.09857,-0.111058 -0.130859,-0.28125 -0.04838,-0.254987 -0.237238,-0.482632 -0.517578,-0.623047 -0.245472,-0.122948 -0.251953,-0.13174 -0.251953,-0.386719 0,-0.256575 -0.03717,-0.310449 0.408203,-0.318359 z m -1.988282,19.210938 c 0.0123,0.0023 0.02799,0.0177 0.05469,0.04687 0.09857,0.107708 0.107389,0.231201 0.02344,0.3125 l -0.07227,0.07227 0.128906,0.04687 c 0.17661,0.06484 0.244911,0.124786 0.472656,0.408203 0.450887,0.561116 0.606618,1.129554 0.392578,1.429688 -0.04224,0.05922 -0.114022,0.236175 -0.160156,0.392578 -0.06588,0.223363 -0.101972,0.29576 -0.167968,0.339844 -0.04621,0.03087 -0.08398,0.0799 -0.08398,0.107422 0,0.02752 -0.04503,0.123033 -0.09961,0.21289 -0.08011,0.13191 -0.09584,0.186237 -0.08203,0.285157 0.04346,0.311199 -0.196589,0.685999 -0.542968,0.847656 -0.111085,0.05184 -0.20516,0.122216 -0.25,0.183594 -0.03962,0.05423 -0.274454,0.245274 -0.521485,0.425781 l -0.449218,0.328125 -0.02344,0.142578 c -0.02483,0.153142 -0.189203,0.42607 -0.330078,0.546875 -0.118618,0.101717 -0.166016,0.16959 -0.166016,0.244141 0,0.09652 -0.08485,0.225302 -0.24414,0.365234 -0.246383,0.216443 -0.346638,0.28398 -0.611328,0.414062 -0.255569,0.125598 -0.784704,0.488148 -0.966797,0.66211 -0.0526,0.05025 -0.152912,0.113365 -0.222656,0.138672 -0.234204,0.08497 -0.453221,0.08359 -0.75586,-0.0039 -0.06863,-0.01984 -0.21386,-0.05584 -0.322266,-0.08008 l -0.197265,-0.04492 -0.08203,0.05664 c -0.107771,0.07249 -0.18293,0.05794 -0.484375,-0.08984 -0.129498,-0.06349 -0.350832,-0.149337 -0.492188,-0.191406 -0.236652,-0.07043 -0.257114,-0.08203 -0.248047,-0.142578 0.0054,-0.03617 -0.0026,-0.06445 -0.01953,-0.06445 -0.01688,0 -0.099,-0.04226 -0.181641,-0.09375 -0.23986,-0.149427 -0.374413,-0.175781 -0.896484,-0.175781 -0.300088,0 -0.467835,0.0085 -0.494141,0.02734 -0.02815,0.02015 -0.34949,0.03028 -1.09375,0.03516 -0.907904,0.0059 -1.098742,0.01349 -1.378906,0.05664 -0.178814,0.02754 -0.502288,0.0624 -0.71875,0.07617 -1.063769,0.06768 -1.504347,0.108385 -2.070312,0.195312 -0.338808,0.05204 -0.665322,0.102995 -0.72461,0.111329 -0.136505,0.01919 -0.286548,-0.06954 -0.453125,-0.267579 -0.09485,-0.112765 -0.107275,-0.143625 -0.07227,-0.173828 0.06177,-0.05329 0.170465,-0.04479 0.396484,0.0293 0.226558,0.07426 0.0948,0.07012 1.777344,0.03906 0.949126,-0.01752 1.113781,-0.02562 1.232422,-0.06445 0.181162,-0.0593 0.601286,-0.163107 0.666015,-0.164063 0.19288,-0.0028 0.905833,-0.323079 1.134766,-0.509766 0.05918,-0.04826 0.145452,-0.147811 0.191406,-0.222656 0.10762,-0.17527 0.19536,-0.241959 0.347656,-0.261718 0.06758,-0.0088 0.177316,-0.03652 0.244141,-0.06055 0.06683,-0.02403 0.197847,-0.05506 0.291016,-0.06836 1.194283,-0.170397 1.220034,-0.174735 1.533203,-0.283203 0.172981,-0.05991 0.403684,-0.147816 0.513672,-0.195312 0.109984,-0.0475 0.249174,-0.09231 0.308593,-0.101563 0.251706,-0.03919 0.871647,-0.220866 1.017579,-0.296875 0.166381,-0.08666 0.468358,-0.375808 0.580078,-0.55664 0.03639,-0.0589 0.08252,-0.185105 0.101562,-0.28125 0.03174,-0.160273 0.02669,-0.188554 -0.05078,-0.335938 -0.126427,-0.240481 -0.263356,-0.357081 -0.630859,-0.541016 -0.381477,-0.19093 -0.642632,-0.275165 -0.859376,-0.279296 -0.0847,-0.0016 -0.230106,-0.01756 -0.324218,-0.0332 -0.144019,-0.02394 -0.170022,-0.03577 -0.167969,-0.08203 0.0013,-0.03023 0.0045,-0.119265 0.0078,-0.197265 l 0.0059,-0.142579 0.216797,-0.101562 c 0.119115,-0.05607 0.259683,-0.146604 0.3125,-0.201172 0.09891,-0.102195 0.310088,-0.198574 0.617187,-0.28125 0.207468,-0.05585 0.33082,-0.113394 0.519531,-0.242187 l 0.144532,-0.09766 0.849609,-0.0078 c 0.988397,-0.0082 1.080861,-0.02133 1.443359,-0.230469 0.118397,-0.06831 0.358156,-0.174617 0.533204,-0.234375 0.227033,-0.0775 0.378021,-0.148952 0.527343,-0.251953 0.115128,-0.07942 0.208985,-0.156958 0.208985,-0.171875 0,-0.0464 0.246763,-0.224943 0.375,-0.271485 0.06716,-0.02437 0.198856,-0.0513 0.292968,-0.06055 l 0.169922,-0.01758 0.0039,-0.164063 c 0.0018,-0.09093 0.01968,-0.186138 0.03906,-0.210937 0.01647,-0.02107 0.02481,-0.03161 0.03711,-0.0293 z m -19.546874,6.134765 0.191406,0.111328 c 0.181361,0.105768 0.505253,0.214844 0.638672,0.214844 0.03413,0 0.108309,0.01098 0.166015,0.02539 0.08251,0.0206 0.127581,0.01842 0.208985,-0.01172 0.05693,-0.02108 0.215942,-0.04892 0.353515,-0.0625 0.13757,-0.01359 0.336533,-0.048 0.44336,-0.07617 l 0.195312,-0.05078 0.357422,0.21875 c 0.41843,0.257179 0.618514,0.356124 1.150391,0.570312 0.214988,0.08658 0.441019,0.193306 0.501953,0.236329 0.1343,0.09483 0.390625,0.452228 0.390625,0.544921 0,0.03678 -0.02863,0.08547 -0.0625,0.107422 -0.09499,0.06155 -0.339084,0.115235 -0.527344,0.115235 -0.198976,0 -0.355064,0.04742 -0.490234,0.148437 -0.05327,0.03981 -0.108853,0.07227 -0.123047,0.07227 -0.110049,0 -0.09844,-0.23326 0.01758,-0.375 0.05019,-0.06132 0.08984,-0.127348 0.08984,-0.146485 0,-0.01914 -0.06453,-0.05429 -0.144532,-0.07813 -0.08,-0.02383 -0.293912,-0.09156 -0.474609,-0.15039 -0.180694,-0.05883 -0.426406,-0.124581 -0.546875,-0.146485 -0.270504,-0.04919 -0.307161,-0.06912 -0.296875,-0.166015 0.0074,-0.06976 -0.0068,-0.08308 -0.162109,-0.138672 -0.148424,-0.05313 -0.217671,-0.06055 -0.515625,-0.06055 -0.334371,0 -0.350894,0.0017 -0.632813,0.101562 -0.159294,0.05642 -0.432002,0.130999 -0.607422,0.166016 -0.175419,0.03502 -0.419692,0.09178 -0.542969,0.125 -0.123276,0.03322 -0.261236,0.06055 -0.304687,0.06055 -0.107536,0 -0.220703,-0.109122 -0.220703,-0.212891 0,-0.07963 -0.01176,-0.08778 -0.222656,-0.15625 -0.12235,-0.03972 -0.220704,-0.08899 -0.220704,-0.107422 0,-0.01844 0.02255,-0.07271 0.05078,-0.121093 0.02823,-0.04838 0.05078,-0.136873 0.05078,-0.197266 0,-0.09542 0.01516,-0.118294 0.113281,-0.171875 0.127534,-0.06965 0.73813,-0.280407 1.001953,-0.345703 z m 14.689453,21.199219 c -0.01619,0.01675 -0.01303,0.04876 0.01172,0.0957 0.04771,0.0905 0.07711,0.09794 0.126953,0.03125 0.0516,-0.06903 0.04567,-0.09403 -0.03516,-0.125 -0.05118,-0.01961 -0.08732,-0.0187 -0.103515,-0.002 z m -0.81836,1.375 c 0.01882,0 0.03516,0.01191 0.03516,0.02539 -10e-7,0.01347 -0.01634,0.02344 -0.03516,0.02344 -0.01882,0 -0.0332,-0.01 -0.0332,-0.02344 0,-0.01348 0.01438,-0.02539 0.0332,-0.02539 z"
           style="fill:url(#linearGradient4039);fill-opacity:1;stroke:#000000;stroke-width:0.86874157;stroke-miterlimit:4;stroke-dasharray:none;stroke-opacity:1"
           inkscape:connector-curvature="0" />
      </g>
      <circle
         r="36.765728"
         cy="1641.4082"
         cx="-2370.8123"
         id="path4495"
         style="opacity:1;fill:none;fill-opacity:1;fill-rule:nonzero;stroke:#000000;stroke-width:2.5;stroke-miterlimit:4;stroke-dasharray:none;stroke-opacity:1" />
      <path
         id="path3015"
         d="m -2378.2353,1611.304 c -0.2024,0.01 -0.3797,0.06 -0.5683,0.1504 -0.3927,0.189 -0.5565,0.4508 -0.5195,0.8301 0.026,0.267 0.027,0.2668 -0.3497,0.3008 -0.1294,0.012 -0.2676,0.034 -0.3066,0.049 -0.1017,0.039 -0.2379,0.1704 -0.2969,0.291 -0.056,0.1133 -0.2104,0.2854 -0.3222,0.3574 -0.041,0.026 -0.1263,0.049 -0.1993,0.049 h -0.1289 l -0.06,0.1679 c -0.033,0.092 -0.083,0.1974 -0.1113,0.2364 -0.028,0.039 -0.051,0.1054 -0.051,0.1464 0,0.047 -0.036,0.1005 -0.096,0.1465 l -0.094,0.072 -0.7343,0.012 c -1.1313,0.011 -2.4587,-0.01 -2.6836,-0.033 -0.2112,-0.026 -0.6188,0.01 -1.0469,0.094 -0.1035,0.021 -0.2779,0.053 -0.3867,0.072 -0.1088,0.019 -0.2542,0.055 -0.3242,0.08 -0.07,0.025 -0.204,0.047 -0.295,0.047 -0.1571,0 -0.427,0.062 -0.6347,0.1387 -0.1309,0.048 -0.6131,0.3662 -0.7325,0.4824 -0.097,0.094 -0.2958,0.4371 -0.3808,0.6582 -0.024,0.061 -0.057,0.1312 -0.076,0.1582 -0.018,0.027 -0.055,0.082 -0.082,0.1211 -0.08,0.118 -0.1502,0.1337 -0.252,0.055 -0.086,-0.066 -0.095,-0.068 -0.373,-0.055 -0.2675,0.013 -0.5624,0.068 -0.7461,0.1387 -0.044,0.017 -0.2842,0.043 -0.5313,0.061 -0.4266,0.029 -0.4569,0.034 -0.6152,0.1152 -0.159,0.08 -0.2956,0.1234 -0.498,0.1524 -0.062,0.01 -0.094,0.029 -0.1036,0.066 -0.01,0.042 -0.055,0.067 -0.1933,0.1035 -0.162,0.042 -0.1901,0.059 -0.2481,0.1563 -0.037,0.06 -0.09,0.1824 -0.1191,0.2714 -0.029,0.089 -0.082,0.2451 -0.1191,0.3477 -0.095,0.2661 -0.1199,0.8581 -0.049,1.1523 0.06,0.2446 0.052,0.2999 -0.086,0.6231 -0.052,0.1213 -0.1128,0.2682 -0.1348,0.3262 -0.032,0.085 -0.1115,0.1566 -0.3906,0.3554 -0.1924,0.137 -0.4519,0.3041 -0.5781,0.3711 -0.2386,0.1274 -0.6562,0.5033 -0.7637,0.6875 -0.029,0.05 -0.1482,0.1602 -0.2656,0.2442 -0.195,0.14 -0.233,0.1537 -0.4219,0.1777 -0.414,0.052 -0.7144,0.2075 -0.916,0.4727 -0.089,0.1173 -0.1041,0.1643 -0.1211,0.4023 -0.016,0.2348 -0.028,0.2848 -0.1094,0.3828 -0.1055,0.1285 -0.2663,0.2239 -0.5,0.2969 -0.089,0.028 -0.1735,0.063 -0.1875,0.078 -0.014,0.015 -0.025,0.1619 -0.025,0.3281 -10e-4,0.2683 0.01,0.3202 0.088,0.461 0.049,0.087 0.082,0.1734 0.072,0.1914 -0.019,0.035 -0.1931,0.086 -0.5078,0.1484 -0.242,0.048 -0.4922,0.168 -0.6387,0.3086 -0.142,0.1364 -0.3749,0.525 -0.4199,0.6992 -0.054,0.2098 0.03,0.4618 0.2129,0.6368 0.044,0.042 0.1484,0.1417 0.2304,0.2207 0.083,0.079 0.2055,0.1824 0.2735,0.2304 0.068,0.047 0.1715,0.1249 0.2285,0.1719 0.1902,0.1553 0.5787,0.3736 0.7695,0.4336 0.1036,0.032 0.2715,0.085 0.375,0.1172 0.1035,0.032 0.2954,0.093 0.4258,0.1347 0.2841,0.092 0.9384,0.1811 1.2188,0.1641 0.1041,-0.01 0.274,0 0.3769,0.01 0.1615,0.018 0.2039,0.034 0.3145,0.125 0.07,0.058 0.1289,0.1292 0.1289,0.1582 0,0.029 -0.041,0.1163 -0.09,0.1953 -0.1071,0.1726 -0.2519,0.5702 -0.2519,0.6895 0,0.059 -0.042,0.1305 -0.1328,0.2285 -0.1045,0.112 -0.1527,0.2027 -0.2227,0.4199 -0.1578,0.4876 -0.1132,0.6733 0.2481,1.0293 0.3565,0.3513 0.5628,0.4569 0.9863,0.5059 0.12,0.014 0.2668,0.051 0.3418,0.086 0.2628,0.1241 0.3624,0.1387 1.2344,0.1387 0.5955,10e-4 0.892,0.014 1.1093,0.043 0.2639,0.04 0.3277,0.041 0.5821,0.01 0.157,-0.019 0.3935,-0.034 0.5273,-0.033 0.2162,0 0.2659,0.012 0.4453,0.09 0.2693,0.1167 0.434,0.1477 0.7363,0.1367 0.2982,-0.011 0.5446,-0.087 0.7813,-0.2402 0.1185,-0.077 0.1804,-0.1 0.2754,-0.1 0.324,0 0.7274,-0.1394 0.9297,-0.3223 0.059,-0.053 0.1425,-0.1593 0.1855,-0.2363 0.053,-0.095 0.1153,-0.1592 0.1973,-0.2012 0.1232,-0.062 0.3262,-0.2208 0.4609,-0.3594 0.065,-0.067 0.199,-0.1415 0.4395,-0.2441 0.037,-0.016 0.066,-0.056 0.066,-0.098 10e-4,-0.039 0.015,-0.1101 0.029,-0.1601 0.043,-0.1459 -0.045,-0.2184 -0.461,-0.3867 -0.295,-0.1198 -0.4094,-0.1528 -0.6171,-0.1758 -0.1404,-0.016 -0.272,-0.035 -0.293,-0.035 -0.021,0 -0.052,-0.069 -0.064,-0.1465 -0.03,-0.1692 -0.093,-0.3102 -0.1894,-0.4062 -0.079,-0.075 -0.084,-0.1543 -0.012,-0.1543 0.023,0.01 0.4639,0.01 0.9785,0.01 h 0.9355 l 0.3399,0.2305 c 0.365,0.2479 0.7434,0.4529 1.0625,0.5761 0.1098,0.042 0.2363,0.099 0.2793,0.125 0.087,0.052 0.2129,0.3251 0.2129,0.4629 0,0.057 0.026,0.1 0.082,0.1367 0.073,0.049 0.079,0.066 0.053,0.1621 -0.015,0.059 -0.054,0.2056 -0.086,0.3262 -0.097,0.369 -0.1791,0.5443 -0.3321,0.709 -0.3263,0.3515 -0.6407,0.7696 -0.6777,0.9004 -0.021,0.073 -0.061,0.2011 -0.088,0.2851 -0.1026,0.3225 -0.039,0.5695 0.2031,0.8067 0.08,0.079 0.1864,0.1938 0.2364,0.2558 0.1172,0.1403 0.1769,0.1804 0.2519,0.1504 0.041,-0.017 0.1145,-0.01 0.25,0.033 0.1057,0.031 0.3143,0.089 0.4649,0.1289 0.1891,0.05 0.2882,0.09 0.3222,0.1309 0.047,0.058 0.039,0.068 -0.2734,0.293 -0.1774,0.1278 -0.3802,0.2932 -0.4512,0.3672 -0.1672,0.1738 -0.3324,0.5529 -0.3554,0.8164 -0.01,0.1078 -0.028,0.2048 -0.041,0.2148 -0.013,0.01 -0.1471,0.04 -0.2968,0.068 -0.2087,0.043 -0.3487,0.053 -0.6016,0.043 -0.3096,-0.01 -0.3401,-0.013 -0.4863,-0.088 l -0.1563,-0.08 -0.2441,0.047 c -0.1341,0.026 -0.2773,0.071 -0.3203,0.1 -0.045,0.03 -0.1734,0.066 -0.3047,0.086 -0.1247,0.018 -0.2703,0.055 -0.3223,0.082 -0.052,0.026 -0.1659,0.065 -0.2519,0.086 -0.2499,0.061 -0.6411,0.2487 -0.7637,0.3671 l -0.068,0.068 0.1094,0.07 c 0.101,0.066 0.1089,0.081 0.088,0.1778 -0.042,0.2013 -0.025,0.191 -0.5703,0.1914 -0.5723,4e-4 -0.8054,0.033 -1.0781,0.1523 -0.1077,0.047 -0.2533,0.1049 -0.3243,0.1289 -0.071,0.024 -0.202,0.09 -0.291,0.1465 -0.089,0.057 -0.295,0.1642 -0.457,0.2402 -0.3113,0.146 -0.4939,0.3017 -0.5879,0.4961 -0.069,0.1423 -0.1076,0.7325 -0.057,0.877 0.035,0.092 0.035,0.1223 0,0.1523 -0.037,0.031 -0.032,0.051 0.023,0.1055 0.037,0.036 0.089,0.1053 0.1152,0.1523 0.073,0.1339 0.223,0.2805 0.3965,0.3867 l 0.1602,0.096 -0.061,0.1153 c -0.034,0.062 -0.079,0.1816 -0.1,0.2656 l -0.039,0.1524 -0.3047,0.01 c -0.1683,0 -0.3266,0.019 -0.3496,0.033 -0.024,0.014 -0.1395,0.041 -0.2578,0.061 -0.2333,0.039 -0.5614,0.1599 -0.8321,0.3066 -0.3363,0.1821 -0.5203,0.4773 -0.4863,0.7793 0.02,0.1811 -0.016,0.2584 -0.1113,0.2364 -0.047,-0.011 -0.067,0 -0.084,0.051 -0.013,0.036 -0.01,0.076 0.012,0.09 0.056,0.04 0.043,0.1195 -0.031,0.1875 -0.088,0.085 -0.084,0.1029 0.012,0.086 0.106,-0.019 0.1433,0.02 0.1933,0.1973 0.023,0.081 0.086,0.1959 0.1407,0.2559 0.055,0.06 0.1176,0.153 0.1386,0.207 0.022,0.055 0.079,0.131 0.127,0.168 0.081,0.063 0.085,0.073 0.043,0.1464 -0.081,0.1412 -0.068,0.172 0.082,0.209 0.082,0.02 0.2068,0.032 0.3144,0.022 0.1517,-0.011 0.211,0 0.3848,0.061 0.1789,0.064 0.2496,0.072 0.543,0.082 0.2866,0.01 0.366,0.017 0.5332,0.076 0.5132,0.18 0.7193,0.6188 0.4629,0.9863 -0.1139,0.1631 -0.2677,0.2676 -0.5098,0.3496 -0.2917,0.098 -1.1617,0.071 -1.5859,-0.049 -0.053,-0.015 -0.2065,-0.033 -0.3418,-0.043 -0.165,-0.011 -0.3564,-0.047 -0.5801,-0.1113 l -0.334,-0.096 -0.2637,0.053 c -0.2384,0.048 -0.3101,0.053 -0.75,0.037 -0.615,-0.022 -0.7117,0 -1.1816,0.248 -0.3516,0.1882 -0.5182,0.325 -0.6152,0.5059 -0.047,0.088 -0.085,0.1136 -0.2793,0.1836 -0.3298,0.1186 -0.7617,0.4096 -1.043,0.7031 -0.2403,0.2507 -0.2846,0.3146 -0.3496,0.4961 -0.03,0.083 -0.056,0.1072 -0.1309,0.1192 -0.051,0.01 -0.1839,0.034 -0.2969,0.059 -0.1129,0.025 -0.3298,0.047 -0.4804,0.057 -0.1506,0.01 -0.3799,0.037 -0.5098,0.066 -0.2043,0.045 -0.2618,0.072 -0.4355,0.2031 l -0.2012,0.1524 -0.3008,0.012 c -0.2343,0.01 -0.3443,0.029 -0.4961,0.082 -0.3643,0.1276 -0.6027,0.3551 -0.6777,0.6446 -0.028,0.1082 -0.022,0.1816 0.033,0.3847 0.086,0.3151 0.2012,0.6131 0.2402,0.6231 0.016,0 0.098,0.038 0.1817,0.076 0.108,0.049 0.2144,0.1367 0.3593,0.295 0.1461,0.1595 0.249,0.2429 0.3594,0.2929 0.087,0.039 0.2036,0.1253 0.2676,0.1953 l 0.1133,0.127 h 0.6465 c 0.6944,0 0.7666,0.01 1.0312,0.1406 0.072,0.036 0.1774,0.1119 0.2344,0.1719 0.1028,0.1069 0.1439,0.1247 0.6719,0.2891 0.075,0.024 0.1135,0.049 0.1035,0.076 -0.017,0.062 -0.2915,0.2014 -0.4629,0.2344 -0.1359,0.026 -0.1628,0.044 -0.2578,0.1719 -0.1145,0.1539 -0.2759,0.2589 -0.5118,0.3359 -0.1181,0.038 -0.2237,0.048 -0.5136,0.049 -0.2011,0 -0.4052,0.012 -0.4532,0.025 -0.048,0.013 -0.1267,0.066 -0.1757,0.1192 -0.062,0.067 -0.142,0.1124 -0.2657,0.1504 -0.097,0.03 -0.3321,0.1306 -0.5214,0.2226 -0.4086,0.1989 -0.5467,0.3234 -0.6524,0.586 l -0.074,0.1835 -0.2344,0.031 c -0.4605,0.06 -0.7774,0.2294 -0.9648,0.5156 -0.076,0.1165 -0.092,0.1728 -0.092,0.3477 0,0.1864 0.013,0.2272 0.1133,0.373 0.1376,0.2001 0.3794,0.3625 0.6503,0.4375 0.1553,0.042 0.2609,0.053 0.5196,0.053 0.2982,0 0.3375,0 0.459,0.062 0.073,0.036 0.1565,0.1005 0.1855,0.1445 0.049,0.069 0.05,0.094 0.01,0.1797 -0.047,0.1026 -0.024,0.1655 0.1113,0.3008 0.032,0.034 0.032,0.053 0,0.09 -0.032,0.036 -0.032,0.051 0,0.068 0.061,0.033 1.0076,0.1718 1.4786,0.2168 0.2259,0.022 0.4433,0.055 0.4843,0.074 0.08,0.037 0.44,0.4956 0.502,0.6406 0.028,0.065 0.067,0.096 0.1582,0.123 0.067,0.02 0.2025,0.079 0.3027,0.1329 0.2482,0.1335 0.4959,0.2066 0.752,0.2226 0.1564,0.01 0.2922,0.04 0.498,0.1133 0.1555,0.055 0.2994,0.1016 0.3184,0.1016 0.143,0 0.405,0.087 0.5605,0.1875 0.1912,0.1228 0.2983,0.1461 0.9414,0.2031 0.2078,0.018 0.3345,0.047 0.5293,0.1191 0.1411,0.053 0.331,0.1071 0.42,0.1231 0.089,0.016 0.251,0.061 0.3593,0.1 0.1083,0.038 0.24,0.076 0.293,0.086 0.053,0.01 0.147,0.053 0.207,0.098 0.1504,0.115 0.2168,0.1354 0.3282,0.1054 0.081,-0.022 0.1173,-0.014 0.2949,0.074 0.2039,0.1006 0.5249,0.1916 1.0937,0.3125 0.1694,0.036 0.3674,0.095 0.4414,0.1289 0.074,0.034 0.1747,0.07 0.2227,0.08 v -0.01 c 0.048,0.01 0.1069,0.021 0.1289,0.021 0.099,0.01 0.5553,-0.078 0.6953,-0.1269 0.1469,-0.056 0.1996,-0.055 1.1465,-0.055 h 0.9922 l 0.375,-0.096 c 0.4136,-0.1051 0.5887,-0.1882 0.7754,-0.3652 0.2348,-0.2222 0.2969,-0.5071 0.1718,-0.795 -0.075,-0.1715 -0.068,-0.1832 0.1719,-0.2812 0.2472,-0.1006 0.4122,-0.2543 0.5742,-0.5352 0.1853,-0.3142 0.2219,-0.4678 0.1739,-0.6386 -0.1542,-0.5459 -0.1972,-0.6312 -0.4297,-0.8262 -0.083,-0.07 -0.1521,-0.146 -0.1524,-0.168 -9e-4,-0.095 -0.2801,-0.6048 -0.3925,-0.7168 -0.081,-0.081 -0.1211,-0.1471 -0.1211,-0.2031 0,-0.1024 -0.044,-0.1285 -0.2403,-0.1445 -0.089,-0.01 -0.2242,-0.043 -0.3242,-0.088 -0.1503,-0.068 -0.2498,-0.089 -0.6562,-0.1406 -0.048,-0.01 -0.092,-0.044 -0.127,-0.1075 -0.1194,-0.2136 -0.4559,-0.5035 -0.7051,-0.6074 -0.1778,-0.074 -0.2044,-0.097 -0.2051,-0.1699 -5e-4,-0.051 -0.016,-0.051 -0.4257,-0.061 -0.3644,-0.01 -0.4405,-0.016 -0.5235,-0.059 -0.1555,-0.081 -0.2623,-0.2647 -0.2773,-0.4765 -0.012,-0.1676 0,-0.1973 0.092,-0.3281 0.058,-0.079 0.1074,-0.1504 0.1074,-0.1504 0,-0.01 -0.081,-0.03 -0.1797,-0.057 -0.099,-0.027 -0.3185,-0.094 -0.4863,-0.1504 -0.1678,-0.056 -0.4014,-0.1176 -0.5195,-0.1386 -0.2538,-0.046 -0.3461,-0.1037 -0.2891,-0.1797 0.033,-0.045 0.025,-0.057 -0.07,-0.098 -0.06,-0.026 -0.2127,-0.062 -0.3399,-0.078 -0.2981,-0.038 -0.5856,-10e-5 -0.871,0.1133 -0.1133,0.045 -0.3321,0.1048 -0.4864,0.1328 -0.1543,0.029 -0.4061,0.085 -0.5586,0.125 -0.3524,0.095 -0.4831,0.097 -0.5781,0.01 -0.039,-0.036 -0.08,-0.094 -0.09,-0.1289 -0.031,-0.1066 -0.068,-0.1348 -0.2227,-0.1758 -0.2022,-0.054 -0.2289,-0.092 -0.1699,-0.2363 0.026,-0.065 0.053,-0.1704 0.062,-0.2344 0.012,-0.096 0.032,-0.1258 0.1211,-0.1738 0.2212,-0.1189 1.0419,-0.3828 1.1914,-0.3828 0.039,0 0.1396,0.043 0.2226,0.096 0.1953,0.123 0.3932,0.1896 0.6739,0.2246 0.1651,0.021 0.2558,0.02 0.3398,0 0.063,-0.015 0.2388,-0.042 0.3906,-0.061 0.1517,-0.019 0.3333,-0.053 0.4043,-0.074 0.071,-0.022 0.1508,-0.039 0.1778,-0.039 0.027,0 0.207,0.098 0.3984,0.2168 0.4023,0.2506 0.603,0.35 1.1699,0.5782 0.2259,0.091 0.4463,0.1897 0.4903,0.2187 0.1232,0.082 0.3886,0.4837 0.3886,0.5879 0,0.089 4e-4,0.09 0.1504,0.09 0.1367,0 0.1585,-0.01 0.2324,-0.092 0.045,-0.051 0.1143,-0.1126 0.1543,-0.1386 0.096,-0.062 0.093,-0.076 -0.043,-0.1895 -0.1819,-0.1521 -0.2853,-0.3074 -0.2403,-0.3594 0.055,-0.067 0.2351,-0.07 0.4122,-0.01 0.2402,0.083 0.4889,0.1073 0.7382,0.074 0.1306,-0.015 0.5712,-0.025 1.127,-0.025 0.8562,0 0.9266,0 1.1133,-0.051 0.2012,-0.053 0.5696,-0.14 0.8808,-0.209 0.2152,-0.047 0.8656,-0.3716 0.9785,-0.4883 0.047,-0.049 0.1305,-0.1572 0.1875,-0.2402 0.078,-0.1143 0.1317,-0.1604 0.2227,-0.1914 0.2173,-0.074 0.5266,-0.151 0.666,-0.168 0.7021,-0.085 1.2208,-0.1795 1.4785,-0.2695 0.1534,-0.053 0.2878,-0.096 0.3008,-0.096 0.013,0 0.095,-0.035 0.1817,-0.078 0.089,-0.044 0.3873,-0.135 0.6816,-0.207 0.6268,-0.1532 0.7784,-0.2227 1.0469,-0.4883 0.3229,-0.3196 0.4135,-0.6275 0.2675,-0.8984 -0.1173,-0.2177 -0.2767,-0.3456 -0.6679,-0.5332 -0.381,-0.1826 -0.5877,-0.2481 -0.8164,-0.2481 -0.079,-10e-4 -0.2224,-0.015 -0.3164,-0.031 l -0.17,-0.029 v -0.1953 c 0,-0.205 0.024,-0.2832 0.094,-0.2832 0.077,0 0.3698,-0.173 0.4726,-0.2774 0.1021,-0.1038 0.1186,-0.1095 0.7735,-0.3261 0.098,-0.032 0.2499,-0.1109 0.3359,-0.1739 l 0.1563,-0.1132 0.7773,-0.01 c 0.4275,0 0.8429,-0.01 0.9219,-0.02 0.1922,-0.016 0.4193,-0.095 0.5996,-0.209 0.1368,-0.086 0.3607,-0.1783 0.6914,-0.2851 0.1495,-0.048 0.5664,-0.3153 0.5664,-0.3633 0,-0.017 0.062,-0.082 0.1367,-0.1426 0.1361,-0.1103 0.294,-0.1711 0.5196,-0.2011 0.1195,-0.016 0.1191,-0.018 0.1621,-0.2051 0.023,-0.1035 0.056,-0.2113 0.072,-0.2403 0.016,-0.031 0.013,-0.1188 -0.01,-0.2128 -0.036,-0.1495 -0.033,-0.1691 0.043,-0.2852 0.055,-0.084 0.1325,-0.152 0.2402,-0.207 0.088,-0.045 0.2285,-0.1456 0.3125,-0.2246 0.1088,-0.1029 0.179,-0.1463 0.25,-0.1563 0.1519,-0.019 0.2307,-0.131 0.1817,-0.2617 -0.1075,-0.2862 0.2893,-0.576 0.6855,-0.5 0.1746,0.034 0.6768,0.2522 0.836,0.3633 l 0.1269,0.088 0.1817,-0.066 c 0.2123,-0.077 0.3341,-0.08 0.5254,-0.018 0.1729,0.056 0.2791,0.1485 0.3281,0.289 0.029,0.084 0.067,0.121 0.166,0.166 0.1611,0.073 0.2571,0.1867 0.2871,0.3379 0.014,0.069 0.045,0.1228 0.074,0.1328 0.084,0.023 0.096,-0.012 0.037,-0.1093 -0.085,-0.1397 -0.1353,-0.3158 -0.1113,-0.3848 0.015,-0.042 0.075,-0.081 0.1836,-0.1211 0.2794,-0.1021 0.4377,-0.1981 0.4727,-0.2871 0.051,-0.1271 0.1546,-0.1234 0.2636,0.01 0.1235,0.1508 0.3304,0.276 0.6172,0.375 0.1353,0.046 0.2936,0.1058 0.3516,0.1328 0.058,0.027 0.1814,0.054 0.2734,0.064 0.099,0.01 0.2452,0.047 0.3555,0.094 0.1035,0.044 0.2568,0.1048 0.3398,0.1348 0.083,0.03 0.2216,0.1079 0.3086,0.1719 0.09,0.066 0.2546,0.1493 0.3828,0.1933 0.187,0.064 0.2693,0.1122 0.4864,0.2949 0.3005,0.253 0.4593,0.3301 0.8652,0.4122 l 0.291,0.057 0.2871,-0.098 c 0.3653,-0.1243 0.5201,-0.2242 0.7305,-0.4746 0.2092,-0.2493 0.2793,-0.3948 0.2793,-0.5801 0,-0.079 0.014,-0.1482 0.031,-0.1582 0.052,-0.023 0.3626,0.094 0.5332,0.2012 0.1513,0.095 0.1674,0.1004 0.2344,0.066 0.04,-0.02 0.096,-0.035 0.127,-0.035 0.1235,0 1.4159,0.6445 1.4609,0.7285 0.011,0.021 0,0.054 -0.016,0.076 -0.029,0.033 -0.1319,0.042 -0.6289,0.053 -0.7457,0.017 -0.8023,0.033 -1.2657,0.3652 -0.3624,0.2596 -0.6191,0.5033 -0.7031,0.666 -0.081,0.1571 -0.075,0.4434 0.014,0.6074 0.04,0.073 0.067,0.1414 0.057,0.1524 -0.01,0.011 -0.115,0.053 -0.2343,0.094 -0.1313,0.045 -0.3465,0.1564 -0.545,0.2832 -0.4081,0.2607 -0.5273,0.4128 -0.5703,0.7266 -0.019,0.1365 -0.054,0.2415 -0.1074,0.3145 -0.076,0.1011 -0.076,0.1383 -0.076,0.4414 0.01,0.4702 0.041,0.5636 0.3184,0.8652 0.2425,0.2635 0.4072,0.378 0.6641,0.459 0.209,0.066 0.5155,0.085 0.7441,0.047 0.1308,-0.022 0.6071,-0.035 1.6055,-0.035 1.3488,-0.01 1.4301,-0.01 1.6035,-0.057 0.1004,-0.028 0.2025,-0.049 0.2265,-0.039 0.052,0.014 0.1543,0.1964 0.1543,0.2734 0,0.029 0.024,0.067 0.053,0.084 0.089,0.053 0.1158,0.077 0.248,0.2149 0.281,0.2923 0.862,0.4441 1.3086,0.3418 0.08,-0.018 0.6773,-0.033 1.8125,-0.033 1.9117,-0.01 1.8269,0 2.2031,-0.2012 l 0.1993,-0.1094 0.1601,0.037 c 0.5003,0.1139 0.9349,0.041 1.2891,-0.2168 0.1309,-0.095 0.2802,-0.1636 0.6367,-0.289 0.4621,-0.1626 0.4696,-0.1653 0.8457,-0.4473 0.4626,-0.3468 0.7004,-0.4633 1.0898,-0.5313 0.1783,-0.031 0.3704,-0.086 0.5098,-0.1464 0.1229,-0.053 0.3109,-0.1129 0.418,-0.1329 0.107,-0.02 0.2822,-0.074 0.3886,-0.121 0.1658,-0.073 0.223,-0.086 0.4043,-0.086 0.1164,0 0.3313,-0.02 0.4766,-0.047 0.1453,-0.027 0.4122,-0.058 0.5938,-0.07 0.2455,-0.016 0.3785,-0.039 0.5195,-0.088 0.2312,-0.081 0.4655,-0.2436 0.5625,-0.3906 0.1182,-0.1795 0.2202,-0.5888 0.1992,-0.7949 -0.021,-0.2079 -0.01,-0.2181 0.3359,-0.2871 0.2731,-0.055 0.4536,-0.1319 0.6309,-0.2695 0.2584,-0.2008 0.293,-0.2861 0.293,-0.709 0,-0.3485 0.01,-0.3784 0.1,-0.541 0.1452,-0.2538 0.1587,-0.2683 0.498,-0.5743 0.3677,-0.3318 0.4695,-0.5101 0.4375,-0.7636 -0.017,-0.1303 -0.011,-0.1488 0.055,-0.1778 0.041,-0.018 0.1502,-0.039 0.2442,-0.049 0.094,-0.01 0.2832,-0.054 0.4199,-0.1016 0.1987,-0.07 0.2775,-0.1149 0.3886,-0.2226 0.077,-0.074 0.1605,-0.1385 0.1875,-0.1485 0.027,-0.01 0.1191,-0.089 0.2051,-0.1816 0.086,-0.093 0.1667,-0.1692 0.1797,-0.1699 0.013,0 0.13,-0.012 0.2617,-0.012 0.493,-0.018 0.8765,-0.1933 1.086,-0.4981 0.1003,-0.1458 0.1133,-0.1847 0.1133,-0.3711 0,-0.244 -0.085,-0.4025 -0.3165,-0.5937 -0.101,-0.083 -0.1451,-0.1446 -0.1621,-0.2266 -0.013,-0.062 -0.041,-0.1484 -0.066,-0.1914 -0.025,-0.043 -0.055,-0.1752 -0.068,-0.293 -0.023,-0.2114 -0.022,-0.2156 0.082,-0.3242 0.1463,-0.1518 0.2148,-0.2936 0.2148,-0.4668 0.01,-0.3004 -0.018,-0.3598 -0.1914,-0.5215 -0.2603,-0.2422 -0.5314,-0.3527 -0.9453,-0.3867 -0.3231,-0.026 -0.6733,-0.1839 -0.8613,-0.3887 -0.08,-0.087 -0.2092,-0.1914 -0.2852,-0.2304 -0.2174,-0.1115 -0.7818,-0.293 -1.0429,-0.336 -0.2687,-0.044 -0.328,-0.079 -0.295,-0.1738 0.037,-0.1057 0.2693,-0.2364 0.6973,-0.3906 0.2415,-0.087 0.4754,-0.1926 0.5918,-0.2676 0.4,-0.2569 0.5553,-0.3378 0.7266,-0.3848 0.1618,-0.044 0.3478,-0.1183 0.7324,-0.289 0.2241,-0.1 0.7168,-0.4932 0.7598,-0.6074 0.02,-0.053 0.074,-0.1375 0.1211,-0.1875 0.046,-0.05 0.086,-0.1212 0.086,-0.1602 0,-0.073 0.088,-0.1556 0.4336,-0.4063 0.3097,-0.2249 0.3638,-0.3558 0.4238,-1.0195 l 0.037,-0.4258 -0.1074,-0.2441 c -0.1451,-0.3282 -0.3125,-0.5908 -0.5586,-0.8789 -0.068,-0.079 -0.1658,-0.2224 -0.2168,-0.3184 -0.071,-0.1337 -0.1371,-0.2064 -0.2832,-0.3105 -0.2328,-0.1659 -0.4469,-0.2406 -0.7676,-0.2676 -0.3533,-0.03 -0.5019,-0.081 -0.5019,-0.1758 0,-0.045 -0.043,-0.045 -0.7696,-0.045 -0.6832,0 -0.7946,-0.01 -0.9765,-0.051 l -0.2051,-0.051 -0.1289,0.072 c -0.07,0.04 -0.1887,0.085 -0.2637,0.1016 -0.075,0.017 -0.1756,0.054 -0.2226,0.084 -0.085,0.053 -0.6904,0.3066 -0.7324,0.3066 -0.012,0 -0.099,0.039 -0.1954,0.086 -0.096,0.047 -0.1947,0.086 -0.2207,0.086 -0.055,0 -0.3053,0.1695 -0.4355,0.2949 -0.049,0.047 -0.1211,0.1506 -0.1621,0.2266 -0.041,0.076 -0.1,0.1423 -0.1289,0.1523 -0.049,0.014 -0.9051,0.047 -1.1602,0.047 -0.1593,-7e-4 -0.2604,-0.074 -0.2324,-0.168 0.065,-0.2188 0.06,-0.2789 -0.031,-0.3906 -0.049,-0.06 -0.1591,-0.1521 -0.2441,-0.2031 -0.2071,-0.1242 -0.1943,-0.1677 0.086,-0.2715 0.1986,-0.073 0.3238,-0.1413 0.6719,-0.3692 0.1396,-0.091 0.3556,-0.5238 0.3926,-0.7832 0.015,-0.1035 0.036,-0.2283 0.049,-0.2773 0.034,-0.1307 -0.041,-0.3497 -0.1933,-0.5645 -0.078,-0.1086 -0.1423,-0.2415 -0.1543,-0.3125 -0.016,-0.099 -0.033,-0.123 -0.084,-0.123 -0.041,0 -0.064,-0.02 -0.064,-0.051 0,-0.033 0.022,-0.049 0.068,-0.049 0.1461,0 0.062,-0.066 -0.1328,-0.1055 -0.1109,-0.022 -0.2477,-0.068 -0.3047,-0.1016 -0.057,-0.034 -0.1472,-0.062 -0.2012,-0.062 -0.054,0 -0.2094,-0.026 -0.3476,-0.06 -0.2255,-0.051 -0.3066,-0.06 -0.7871,-0.061 -0.4916,0 -0.5509,-0.01 -0.711,-0.059 l -0.1738,-0.059 -0.168,0.059 c -0.1318,0.045 -0.2246,0.058 -0.4316,0.059 -0.4089,3e-4 -0.5753,0.035 -0.916,0.1973 -0.1672,0.079 -0.3834,0.1673 -0.4824,0.1953 -0.099,0.028 -0.2215,0.074 -0.2735,0.1 -0.052,0.026 -0.1204,0.047 -0.1504,0.047 -0.03,0 -0.1679,-0.074 -0.3066,-0.166 -0.2799,-0.1856 -0.469,-0.2621 -0.7227,-0.2871 -0.093,-0.01 -0.2784,-0.03 -0.4101,-0.047 -0.1616,-0.017 -0.5349,-0.027 -1.1465,-0.027 -0.4988,0 -0.9329,0 -0.9649,-0.016 -0.031,-0.011 -0.067,-0.044 -0.08,-0.074 -0.013,-0.03 -0.071,-0.1078 -0.127,-0.1738 l -0.1035,-0.1192 0.092,-0.1269 c 0.249,-0.3528 0.1646,-0.7484 -0.2168,-1.0215 -0.3069,-0.2198 -0.5669,-0.269 -1.3027,-0.248 -0.9323,0.027 -1.5713,0.014 -1.7793,-0.035 -0.1517,-0.036 -0.3139,-0.047 -0.8379,-0.047 -0.643,0 -0.6539,0 -0.8653,0.064 -0.1176,0.038 -0.286,0.1168 -0.375,0.1758 -0.09,0.059 -0.1972,0.1217 -0.2382,0.1367 -0.05,0.018 -0.3625,0.027 -0.9512,0.027 h -0.875 l -0.3848,-0.2676 c -0.484,-0.3372 -0.4681,-0.3286 -1,-0.5273 -0.6401,-0.2392 -0.8464,-0.3425 -1.2304,-0.6133 -0.4101,-0.2898 -0.5931,-0.359 -0.9766,-0.375 -0.2013,-0.01 -0.3,0 -0.459,0.041 -0.23,0.057 -0.503,0.088 -0.584,0.066 -0.045,-0.012 -0.05,-0.024 -0.016,-0.07 0.1088,-0.1486 0.2455,-0.2371 0.4355,-0.2871 0.2737,-0.072 0.4929,-0.1949 0.6563,-0.3672 0.077,-0.081 0.1501,-0.1484 0.1641,-0.1484 0.014,0 0.033,-0.1869 0.033,-0.416 0.01,-0.4062 0.01,-0.4221 -0.094,-0.6406 -0.057,-0.1232 -0.1349,-0.3162 -0.1719,-0.4297 -0.037,-0.1134 -0.093,-0.2412 -0.123,-0.2832 -0.1136,-0.1573 -0.5192,-0.524 -0.6484,-0.586 -0.1391,-0.067 -0.3038,-0.1757 -0.5508,-0.3671 -0.079,-0.061 -0.232,-0.1446 -0.3399,-0.1836 -0.1078,-0.04 -0.199,-0.084 -0.209,-0.098 -0.01,-0.014 0.054,-0.058 0.1348,-0.096 0.4674,-0.2201 0.7609,-0.4445 0.9766,-0.75 0.1989,-0.2823 0.2585,-0.4529 0.2265,-0.6484 -0.012,-0.072 0,-0.2516 0.021,-0.3985 0.044,-0.2611 0.042,-0.2722 -0.049,-0.5449 -0.1066,-0.318 -0.1771,-0.4398 -0.3399,-0.5762 -0.063,-0.053 -0.1256,-0.1194 -0.1386,-0.1484 -0.022,-0.05 -0.046,-0.051 -0.5996,-0.061 l -0.5762,-0.012 -0.252,-0.092 c -0.2441,-0.091 -0.2633,-0.091 -0.6113,-0.09 -0.1976,10e-4 -0.4268,0.011 -0.5098,0.025 -0.1371,0.023 -0.1617,0.019 -0.2832,-0.041 -0.1296,-0.064 -0.1399,-0.065 -0.33,-0.035 -0.1076,0.017 -0.3188,0.033 -0.4707,0.043 -0.3427,0.014 -0.3952,-0.013 -0.2754,-0.1407 0.1302,-0.139 0.2038,-0.313 0.2031,-0.4746 0,-0.2974 -0.073,-0.6281 -0.1641,-0.7617 -0.11,-0.161 -0.6863,-0.5666 -0.9121,-0.6426 -0.087,-0.03 -0.2323,-0.087 -0.3203,-0.1269 -0.088,-0.04 -0.2379,-0.085 -0.3359,-0.1016 -0.098,-0.017 -0.2443,-0.052 -0.3243,-0.076 l -0.1445,-0.043 v -0.1914 c 0,-0.1825 -0.013,-0.2177 -0.1777,-0.5274 -0.056,-0.1053 -0.2742,-0.2153 -0.75,-0.3808 -0.3026,-0.1056 -0.5459,-0.1524 -0.7988,-0.1524 -0.1903,0 -0.5388,-0.1262 -0.6602,-0.2383 -0.051,-0.047 -0.1527,-0.1372 -0.2227,-0.1992 -0.1391,-0.1231 -0.2633,-0.2962 -0.2636,-0.3652 -9e-4,-0.2033 -0.2597,-0.4294 -0.6407,-0.5606 -0.2159,-0.074 -0.2743,-0.1087 -0.3613,-0.2089 -0.057,-0.065 -0.1216,-0.1192 -0.1426,-0.1192 -0.021,0 -0.099,-0.023 -0.1718,-0.051 -0.073,-0.028 -0.2969,-0.089 -0.4961,-0.1367 -0.286,-0.068 -0.5124,-0.099 -0.7149,-0.09 z m -0.5507,11.4375 c 0.033,0 0.1052,0.025 0.1582,0.057 0.053,0.032 0.1816,0.097 0.2851,0.1445 0.1154,0.053 0.2356,0.1378 0.3086,0.2168 0.066,0.071 0.1771,0.1687 0.2481,0.2187 0.07,0.049 0.1269,0.107 0.1269,0.127 0,0.019 -0.076,0.06 -0.1679,0.09 -0.2285,0.074 -0.4656,0.2296 -0.5879,0.3848 -0.056,0.071 -0.1216,0.1393 -0.1446,0.1523 -0.1172,0.066 -0.6494,0.039 -0.875,-0.043 -0.2852,-0.1042 -0.3385,-0.282 -0.1797,-0.5977 0.1216,-0.2414 0.6833,-0.75 0.8282,-0.75 z m 4.4297,0.6719 c 0.059,0.011 0.087,0.04 0.1015,0.092 0.043,0.155 0.053,0.1622 0.2403,0.2012 0.4224,0.088 0.3837,0.2516 -0.072,0.3066 v 0 c -0.1294,0.016 -0.2819,0.033 -0.3399,0.043 -0.1201,0.015 -0.1481,0 -0.2461,-0.1621 -0.037,-0.061 -0.1376,-0.1674 -0.2246,-0.2364 -0.1616,-0.1284 -0.1662,-0.1816 -0.014,-0.1816 0.036,0 0.1595,-0.016 0.2734,-0.037 0.134,-0.025 0.2223,-0.034 0.2813,-0.023 z m 2.6113,0.4062 c 0.047,-0.022 0.1217,-0.013 0.2597,0.01 0.384,0.064 0.4516,0.093 0.4766,0.2012 0.037,0.1568 0.026,0.4092 -0.018,0.4434 -0.057,0.041 -0.1137,0.038 -0.3847,-0.031 -0.1303,-0.033 -0.2442,-0.061 -0.2442,-0.061 0,0 -0.055,-0.055 -0.1152,-0.1211 -0.107,-0.1195 -0.1084,-0.1231 -0.068,-0.2695 0.027,-0.099 0.047,-0.1502 0.094,-0.1719 z m -1.6328,0.078 c 0.027,0.01 0.021,0.023 -0.018,0.051 v 0 c -0.072,0.048 -0.1231,0.049 -0.1231,0 0,-0.04 0.077,-0.07 0.1407,-0.055 z m 3.582,0.025 h 0.9141 l 0.086,0.074 c 0.3337,0.2852 0.7,0.4001 1.1895,0.3691 0.1741,-0.011 0.248,-0.01 0.248,0.012 0,0.015 -0.054,0.081 -0.123,0.1446 -0.1482,0.1385 -0.2089,0.2338 -0.2539,0.4043 -0.019,0.069 -0.049,0.1374 -0.067,0.1504 -0.018,0.013 -0.262,0.038 -0.541,0.055 -0.2789,0.017 -0.5524,0.043 -0.6074,0.059 -0.055,0.015 -0.2238,0.039 -0.373,0.051 -0.2993,0.024 -0.3773,0.053 -0.2793,0.1035 0.097,0.051 0.052,0.1207 -0.1153,0.1817 v 0.01 c -0.1833,0.066 -0.2922,0.07 -0.3242,0.012 -0.013,-0.024 -0.045,-0.1279 -0.07,-0.2305 -0.079,-0.3181 -0.2323,-0.4989 -0.5469,-0.6484 -0.2094,-0.1 -0.2082,-0.1005 -0.2402,-0.3457 -0.026,-0.1987 0.019,-0.335 0.123,-0.375 0.041,-0.02 0.4067,-0.022 0.9805,-0.022 z m -16.0527,26.8086 c -0.018,-0.013 -0.2943,0.029 -0.3223,0.049 -0.01,0.01 0.017,0.035 0.062,0.062 0.045,0.027 0.1,0.05 0.123,0.051 0.043,9e-4 0.1638,-0.1431 0.1368,-0.1621 z m -0.1602,1.8359 c -0.021,0 -0.052,0.017 -0.1074,0.047 -0.064,0.034 -0.1494,0.068 -0.1914,0.078 -0.04,0.01 -0.071,0.026 -0.074,0.039 0.01,0.03 0.2779,0.03 0.3886,0 0.098,-0.027 0.11,-0.067 0.041,-0.1347 -0.022,-0.022 -0.036,-0.032 -0.057,-0.029 z m -0.373,0.1641 c -1e-4,-3e-4 0,3e-4 0,0 v 0 c 0,-7e-4 0,0 0,0 z m 7.9648,0.01 c -0.065,0.015 -0.2427,0.2083 -0.2187,0.2363 v 0 c 0.033,0.038 0.066,0.033 0.1679,-0.025 0.067,-0.038 0.09,-0.073 0.09,-0.1367 0,-0.053 -0.015,-0.086 -0.039,-0.076 z m 8.5371,16.0468 -0.1172,0.065 c -0.2384,0.1289 -0.3989,0.1599 -0.7754,0.1699 l -0.3515,0.01 -0.3672,0.168 c -0.2018,0.093 -0.4203,0.1841 -0.4863,0.2031 -0.066,0.018 -0.1857,0.061 -0.2657,0.094 -0.08,0.033 -0.25,0.078 -0.3769,0.1016 -1.2107,0.2252 -1.5254,0.2616 -2.168,0.2266 -0.4542,-0.024 -0.5078,-0.024 -0.6816,0.02 -0.1035,0.026 -0.2132,0.048 -0.2442,0.049 -0.031,0 -0.123,0.041 -0.205,0.09 -0.082,0.049 -0.2026,0.106 -0.2676,0.125 -0.065,0.02 -0.206,0.078 -0.3145,0.1308 -0.1085,0.053 -0.2371,0.1062 -0.2851,0.1192 -0.07,0.02 -0.086,0.041 -0.086,0.1093 0,0.047 -0.014,0.09 -0.033,0.1 -0.019,0.01 -0.035,0.044 -0.035,0.078 0,0.086 -0.06,0.1562 -0.1328,0.1562 -0.046,0 -0.073,0.032 -0.1036,0.1289 -0.065,0.2026 -0.1675,0.3097 -0.375,0.3887 -0.1005,0.038 -0.2434,0.1093 -0.3164,0.1563 -0.1106,0.071 -0.1591,0.086 -0.2871,0.086 -0.1689,0 -0.1702,0 -0.1152,0.1582 0.075,0.2131 -0.097,0.4889 -0.375,0.6035 -0.1792,0.074 -0.2461,0.1656 -0.2461,0.3379 0,0.11 -0.014,0.1515 -0.066,0.1855 -0.063,0.038 -0.073,0.038 -0.1543,0 -0.048,-0.022 -0.086,-0.063 -0.086,-0.09 0,-0.03 -0.023,-0.047 -0.064,-0.047 -0.084,0 -0.4442,0.137 -0.5547,0.211 -0.1064,0.072 -0.1492,0.073 -0.2617,0.01 -0.104,-0.058 -0.1578,-0.061 -0.2148,-0.012 -0.065,0.056 -0.1926,0.043 -0.2676,-0.025 -0.089,-0.081 -0.1256,-0.078 -0.3008,0.025 -0.2699,0.1578 -0.5873,0.1994 -0.8594,0.1114 l -0.1426,-0.047 -0.1035,0.1309 c -0.057,0.072 -0.1491,0.1526 -0.2051,0.1816 -0.1331,0.067 -0.3607,0.125 -0.5,0.125 h -0.1113 l 0.037,0.098 c 0.037,0.098 0.036,0.099 -0.1289,0.207 -0.1405,0.09 -0.1596,0.119 -0.1386,0.166 0.079,0.176 0.043,0.2916 -0.1153,0.3945 -0.087,0.057 -0.2297,0.039 -0.2617,-0.033 -0.021,-0.047 -0.028,-0.046 -0.1406,0.025 -0.067,0.042 -0.1571,0.074 -0.2071,0.074 -0.105,0 -0.272,0.068 -0.3789,0.1562 -0.1441,0.1187 -0.3633,0.06 -0.4433,-0.1191 -0.044,-0.1 -0.086,-0.1018 -0.1465,-0.01 -0.07,0.1064 -0.1838,0.158 -0.4453,0.205 -0.1632,0.034 -0.2886,0.037 -0.4766,0.025 -0.2375,-0.016 -0.2595,-0.013 -0.3125,0.037 -0.055,0.053 -0.081,0.054 -0.9258,0.066 -0.552,0.01 -0.8633,0.012 -1.0586,0.01 a 37.478897,37.478897 0 0 0 11.5977,3.7208 c 4.3203,0 2.1967,0.01 9.9355,0.01 h 1.1309 a 37.478897,37.478897 0 0 0 15.0313,-5.7305 c -0.01,0 -0.021,0 -0.025,0 -0.05,-0.015 -0.1421,-0.057 -0.2051,-0.096 -0.063,-0.039 -0.2444,-0.1216 -0.4043,-0.1836 -0.2574,-0.099 -0.3247,-0.1139 -0.582,-0.1289 -0.2698,-0.016 -0.3289,-0.031 -0.8125,-0.1992 -0.2867,-0.1 -0.5832,-0.2196 -0.6582,-0.2676 -0.1339,-0.086 -0.1399,-0.088 -0.3516,-0.072 -0.2209,0.017 -0.5597,-0.026 -0.8066,-0.1 -0.065,-0.019 -0.1685,-0.035 -0.2305,-0.035 -0.1237,0 -0.5065,-0.1327 -0.707,-0.246 -0.073,-0.042 -0.1677,-0.072 -0.2247,-0.072 -0.1985,0 -0.4514,-0.074 -0.5996,-0.1758 -0.08,-0.055 -0.2138,-0.1243 -0.2988,-0.1543 -0.1673,-0.06 -0.7149,-0.1562 -0.8594,-0.1562 -0.049,10e-4 -0.1335,-0.022 -0.1875,-0.049 -0.054,-0.027 -0.1651,-0.051 -0.2461,-0.061 -0.1404,-0.012 -0.1514,-0.01 -0.2324,0.082 -0.099,0.112 -0.2072,0.1272 -0.2402,0.033 -0.014,-0.039 1e-4,-0.084 0.037,-0.125 0.056,-0.057 0.057,-0.067 0.01,-0.1 -0.046,-0.033 -0.055,-0.028 -0.088,0.059 -0.02,0.054 -0.074,0.1213 -0.1191,0.1523 -0.1681,0.113 -0.2921,0.016 -0.293,-0.2285 -4e-4,-0.1307 -0.013,-0.1545 -0.1113,-0.2265 -0.1211,-0.089 -0.1695,-0.1 -0.2325,-0.045 -0.052,0.041 -0.1311,0.043 -0.2031,0 -0.03,-0.017 -0.1775,-0.055 -0.3281,-0.084 -0.4549,-0.089 -0.4496,-0.088 -0.5645,-0.029 -0.1645,0.083 -0.2696,0.025 -0.1543,-0.084 0.045,-0.042 0.038,-0.052 -0.094,-0.1211 -0.1603,-0.084 -0.058,-0.079 -1.4102,-0.066 -0.4476,0 -0.5024,-3e-4 -0.8222,-0.07 -0.2895,-0.064 -0.6142,-0.1568 -0.9668,-0.2774 -0.042,-0.014 -0.1649,-0.081 -0.2735,-0.1465 -0.1085,-0.066 -0.2504,-0.1448 -0.3164,-0.1758 -0.066,-0.031 -0.205,-0.096 -0.3086,-0.1445 -0.2963,-0.1401 -0.7358,-0.2904 -0.7968,-0.2734 -0.085,0.023 -0.148,0.1086 -0.209,0.2812 -0.072,0.2026 -0.2536,0.3923 -0.4942,0.5157 -0.349,0.1788 -0.7409,0.2163 -1.1797,0.1113 -0.1351,-0.033 -0.3564,-0.071 -0.4921,-0.086 -0.2757,-0.03 -0.377,-0.057 -0.5762,-0.1523 -0.2825,-0.1341 -0.3573,-0.1543 -0.6836,-0.1543 -0.4385,-0.01 -0.6654,-0.087 -1.0371,-0.3711 z m -7.3515,1.7422 c -0.01,0.01 -0.01,0.03 0,0.055 0.016,0.026 0.026,0.033 0.047,0.01 0.02,-0.018 0.018,-0.044 0,-0.057 -0.023,-0.016 -0.042,-0.017 -0.051,-0.01 z m -0.5957,1.0977 c 0.048,0 0.068,0.014 0.059,0.043 -0.02,0.063 -0.1289,0.07 -0.1289,0.01 0,-0.035 0.021,-0.051 0.07,-0.051 z m -0.2579,0.1953 c 0.082,0 0.1033,0.075 0.031,0.1133 -0.075,0.04 -0.1068,0.042 -0.1348,0.01 -0.03,-0.035 0.044,-0.1231 0.1035,-0.1231 z"
         style="fill:url(#linearGradient4041);fill-opacity:1;stroke:#000000;stroke-width:0.86874157;stroke-miterlimit:4;stroke-dasharray:none;stroke-opacity:1"
         inkscape:connector-curvature="0" />
    </g>
  </g>
</svg>
