<?xml version="1.0" encoding="UTF-8" standalone="no"?>
<svg
   xmlns:dc="http://purl.org/dc/elements/1.1/"
   xmlns:cc="http://creativecommons.org/ns#"
   xmlns:rdf="http://www.w3.org/1999/02/22-rdf-syntax-ns#"
   xmlns:svg="http://www.w3.org/2000/svg"
   xmlns="http://www.w3.org/2000/svg"
   xmlns:sodipodi="http://sodipodi.sourceforge.net/DTD/sodipodi-0.dtd"
   xmlns:inkscape="http://www.inkscape.org/namespaces/inkscape"
   width="237.40239"
   height="453.5433"
   id="SvgGdi_output"
   version="1.1"
   sodipodi:docname="branching.svg"
   inkscape:version="0.92.1 r15371"
   viewBox="0 0 118.70119 226.77165">
  <metadata
     id="metadata38">
    <rdf:RDF>
      <cc:Work
         rdf:about="">
        <dc:format>image/svg+xml</dc:format>
        <dc:type
           rdf:resource="http://purl.org/dc/dcmitype/StillImage" />
        <dc:title></dc:title>
      </cc:Work>
    </rdf:RDF>
  </metadata>
  <sodipodi:namedview
     pagecolor="#ffffff"
     bordercolor="#666666"
     borderopacity="1"
     objecttolerance="10"
     gridtolerance="10"
     guidetolerance="10"
     inkscape:pageopacity="0"
     inkscape:pageshadow="2"
     inkscape:window-width="3000"
     inkscape:window-height="1875"
     id="namedview36"
     showgrid="false"
     inkscape:zoom="2.5439219"
     inkscape:cx="146.20033"
     inkscape:cy="263.72067"
     inkscape:window-x="-13"
     inkscape:window-y="-13"
     inkscape:window-maximized="1"
     inkscape:current-layer="SvgGdi_output"
     fit-margin-top="0"
     fit-margin-left="0"
     fit-margin-right="0"
     fit-margin-bottom="0" />
  <defs
     id="clips_hatches_and_gradients">
    <clipPath
       id="264_text_clipper-5">
      <rect
         x="166"
         y="76"
         width="134.53"
         height="26.389999"
         id="265-7" />
    </clipPath>
    <clipPath
       id="276_text_clipper-5">
      <rect
         x="166"
         y="236"
         width="103.3"
         height="26.389999"
         id="277-1" />
    </clipPath>
    <clipPath
       id="288_text_clipper-3">
      <rect
         x="6"
         y="76"
         width="83.940002"
         height="52.790001"
         id="289-8" />
    </clipPath>
    <clipPath
       id="294_text_clipper-6">
      <rect
         x="6"
         y="99.769997"
         width="83.940002"
         height="52.790001"
         id="295-5" />
    </clipPath>
  </defs>
  <g
     style="shape-rendering:auto"
     id="root_group-7"
     transform="matrix(0.39310145,0,0,0.39310145,-1.1793044,51.79697)">
    <circle
       id="256-3"
       cy="36"
       cx="196"
       style="opacity:1;fill:none;stroke:#000000;stroke-width:6;stroke-linecap:butt;stroke-linejoin:miter;stroke-miterlimit:9"
       r="30" />
    <circle
       id="257-9"
       cy="36"
       cx="196"
       style="opacity:1;fill:#ffffff;stroke:none"
       r="30" />
    <g
       aria-label="C"
       style="font-size:21px;font-family:'Microsoft Sans Serif';text-anchor:middle;opacity:1;fill:#000000;stroke:none"
       id="258-9">
      <path
         d="m 196.38965,43.729682 q -3.18897,0 -5.09619,-2.091796 -1.89698,-2.102051 -1.89698,-5.680664 0,-3.578614 1.89698,-5.670411 1.90722,-2.10205 5.09619,-2.10205 2.45068,0 4.17334,1.322753 1.72265,1.322754 1.93799,3.486329 h -2.05078 q -0.12305,-1.425293 -1.24073,-2.266114 -1.10742,-0.84082 -2.79931,-0.84082 -2.28662,0 -3.61963,1.579102 -1.33301,1.568847 -1.33301,4.491211 0,2.912109 1.32275,4.49121 1.32276,1.579102 3.58887,1.579102 1.76367,0 2.85059,-0.861328 1.08691,-0.861328 1.23047,-2.460938 h 2.05078 q -0.21534,2.399414 -1.88672,3.711914 -1.67139,1.3125 -4.22461,1.3125 z"
         id="path217"
         inkscape:connector-curvature="0" />
    </g>
    <g
       aria-label="ConvertColor"
       clip-path="url(#264_text_clipper-5)"
       style="font-size:21px;font-family:'Microsoft Sans Serif';opacity:1;fill:#000000;stroke:none"
       id="262-1">
      <path
         d="m 173.97754,97.256348 q -3.18897,0 -5.09619,-2.091797 -1.89698,-2.102051 -1.89698,-5.680664 0,-3.578614 1.89698,-5.67041 1.90722,-2.102051 5.09619,-2.102051 2.45068,0 4.17334,1.322754 1.72266,1.322754 1.93799,3.486328 h -2.05078 q -0.12305,-1.425293 -1.24073,-2.266113 -1.10742,-0.840821 -2.79931,-0.840821 -2.28662,0 -3.61963,1.579102 -1.33301,1.568847 -1.33301,4.491211 0,2.912109 1.32275,4.491211 1.32276,1.579101 3.58887,1.579101 1.76367,0 2.85059,-0.861328 1.08691,-0.861328 1.23047,-2.460937 h 2.05078 q -0.21533,2.399414 -1.88672,3.711914 -1.67139,1.3125 -4.22461,1.3125 z"
         id="path170"
         inkscape:connector-curvature="0" />
      <path
         d="m 187.01025,85.874512 q 2.32764,0 3.71192,1.486816 1.39453,1.486817 1.39453,4.204102 0,2.707031 -1.39453,4.204101 -1.38428,1.486817 -3.71192,1.486817 -2.31738,0 -3.71191,-1.486817 -1.38428,-1.49707 -1.38428,-4.204101 0,-2.717285 1.38428,-4.204102 1.39453,-1.486816 3.71191,-1.486816 z m 0,9.864258 q 1.38428,0 2.24561,-1.045899 0.86133,-1.056152 0.86133,-3.127441 0,-2.081543 -0.86133,-3.127442 -0.86133,-1.056152 -2.24561,-1.056152 -1.38427,0 -2.2456,1.056152 -0.86133,1.045899 -0.86133,3.127442 0,2.071289 0.86133,3.127441 0.86133,1.045899 2.2456,1.045899 z"
         id="path172"
         inkscape:connector-curvature="0" />
      <path
         d="m 196.22852,87.504883 q 1.4458,-1.630371 3.25048,-1.630371 3.68116,0 3.68116,4.009277 V 97 h -1.93799 v -7.03418 q 0,-1.333008 -0.48194,-1.91748 -0.47168,-0.584473 -1.55859,-0.584473 -1.47656,0 -2.95312,1.743164 V 97 h -1.93799 V 86.120605 h 1.93799 z"
         id="path174"
         inkscape:connector-curvature="0" />
      <path
         d="M 214.77783,86.120605 210.66602,97 h -1.72266 l -4.11182,-10.879395 h 2.0918 l 2.88135,8.510743 2.88135,-8.510743 z"
         id="path176"
         inkscape:connector-curvature="0" />
      <path
         d="m 221.10449,97.256348 q -2.39941,0 -3.85547,-1.497071 -1.45605,-1.507324 -1.45605,-4.193847 0,-2.666016 1.40478,-4.17334 1.41504,-1.517578 3.69141,-1.517578 2.32764,0 3.71191,1.486816 1.39454,1.486817 1.39454,4.204102 v 0.461425 h -8.19288 q 0.12305,1.886719 1.03565,2.799317 0.92285,0.912598 2.26611,0.912598 1.01514,0 1.8252,-0.512696 0.82031,-0.522949 0.86133,-1.476562 h 1.99951 q -0.22559,1.68164 -1.52783,2.594238 -1.292,0.912598 -3.15821,0.912598 z m 2.85059,-6.747071 q -0.23584,-1.568847 -1.05615,-2.348144 -0.82032,-0.779297 -2.00977,-0.779297 -1.15869,0 -1.98926,0.779297 -0.83056,0.769043 -1.05615,2.348144 z"
         id="path178"
         inkscape:connector-curvature="0" />
      <path
         d="m 233.81934,87.884277 q -0.41016,-0.123047 -1.1792,-0.123047 -1.47657,0 -2.53272,1.54834 V 97 h -1.93799 V 86.120605 h 1.93799 v 1.517579 q 1.22022,-1.763672 2.83008,-1.763672 0.41016,0 0.88184,0.08203 z"
         id="path180"
         inkscape:connector-curvature="0" />
      <path
         d="m 239.40771,97.020508 q -0.63574,0.123047 -1.38427,0.123047 -1.18946,0 -1.74317,-0.42041 -0.55371,-0.430665 -0.68701,-1.097168 -0.1333,-0.666504 -0.1333,-1.814942 v -6.172851 h -1.34326 v -1.517579 h 1.34326 v -2.707031 h 1.92774 v 2.707031 h 1.76367 v 1.517579 h -1.76367 v 6.27539 q 0,1.117676 0.27685,1.425293 0.28711,0.297363 0.7793,0.297363 0.50244,0 0.96386,-0.08203 z"
         id="path182"
         inkscape:connector-curvature="0" />
      <path
         d="m 247.55957,97.256348 q -3.18896,0 -5.09619,-2.091797 -1.89697,-2.102051 -1.89697,-5.680664 0,-3.578614 1.89697,-5.67041 1.90723,-2.102051 5.09619,-2.102051 2.45068,0 4.17334,1.322754 1.72266,1.322754 1.93799,3.486328 h -2.05078 q -0.12305,-1.425293 -1.24073,-2.266113 -1.10742,-0.840821 -2.79931,-0.840821 -2.28662,0 -3.61963,1.579102 -1.33301,1.568847 -1.33301,4.491211 0,2.912109 1.32276,4.491211 1.32275,1.579101 3.58886,1.579101 1.76367,0 2.85059,-0.861328 1.08691,-0.861328 1.23047,-2.460937 h 2.05078 q -0.21533,2.399414 -1.88672,3.711914 -1.67139,1.3125 -4.22461,1.3125 z"
         id="path184"
         inkscape:connector-curvature="0" />
      <path
         d="m 260.59229,85.874512 q 2.32763,0 3.71191,1.486816 1.39453,1.486817 1.39453,4.204102 0,2.707031 -1.39453,4.204101 -1.38428,1.486817 -3.71191,1.486817 -2.31739,0 -3.71192,-1.486817 -1.38428,-1.49707 -1.38428,-4.204101 0,-2.717285 1.38428,-4.204102 1.39453,-1.486816 3.71192,-1.486816 z m 0,9.864258 q 1.38427,0 2.2456,-1.045899 0.86133,-1.056152 0.86133,-3.127441 0,-2.081543 -0.86133,-3.127442 -0.86133,-1.056152 -2.2456,-1.056152 -1.38428,0 -2.24561,1.056152 -0.86133,1.045899 -0.86133,3.127442 0,2.071289 0.86133,3.127441 0.86133,1.045899 2.24561,1.045899 z"
         id="path186"
         inkscape:connector-curvature="0" />
      <path
         d="m 269.81055,97 h -1.93799 V 81.967773 h 1.93799 z"
         id="path188"
         inkscape:connector-curvature="0" />
      <path
         d="m 276.99854,85.874512 q 2.32763,0 3.71191,1.486816 1.39453,1.486817 1.39453,4.204102 0,2.707031 -1.39453,4.204101 -1.38428,1.486817 -3.71191,1.486817 -2.31739,0 -3.71192,-1.486817 -1.38428,-1.49707 -1.38428,-4.204101 0,-2.717285 1.38428,-4.204102 1.39453,-1.486816 3.71192,-1.486816 z m 0,9.864258 q 1.38427,0 2.2456,-1.045899 0.86133,-1.056152 0.86133,-3.127441 0,-2.081543 -0.86133,-3.127442 -0.86133,-1.056152 -2.2456,-1.056152 -1.38428,0 -2.24561,1.056152 -0.86133,1.045899 -0.86133,3.127442 0,2.071289 0.86133,3.127441 0.86133,1.045899 2.24561,1.045899 z"
         id="path190"
         inkscape:connector-curvature="0" />
      <path
         d="m 289.92871,87.884277 q -0.41016,-0.123047 -1.1792,-0.123047 -1.47656,0 -2.53271,1.54834 V 97 h -1.93799 V 86.120605 h 1.93799 v 1.517579 q 1.22021,-1.763672 2.83007,-1.763672 0.41016,0 0.88184,0.08203 z"
         id="path192"
         inkscape:connector-curvature="0" />
    </g>
    <circle
       id="268-5"
       cy="196"
       cx="196"
       style="opacity:1;fill:none;stroke:#000000;stroke-width:6;stroke-linecap:butt;stroke-linejoin:miter;stroke-miterlimit:9"
       r="30" />
    <circle
       id="269-7"
       cy="196"
       cx="196"
       style="opacity:1;fill:#ffffff;stroke:none"
       r="30" />
    <g
       aria-label="T"
       style="font-size:21px;font-family:'Microsoft Sans Serif';text-anchor:middle;opacity:1;fill:#000000;stroke:none"
       id="270-6">
      <path
         d="m 201.94727,190.22529 h -4.97315 v 13.24805 h -1.99951 v -13.24805 h -4.93213 v -1.78418 h 11.90479 z"
         id="path214"
         inkscape:connector-curvature="0" />
    </g>
    <g
       aria-label="Threshold"
       clip-path="url(#276_text_clipper-5)"
       style="font-size:21px;font-family:'Microsoft Sans Serif';opacity:1;fill:#000000;stroke:none"
       id="274-8">
      <path
         d="m 178.36621,243.75195 h -4.97314 V 257 h -1.99952 v -13.24805 h -4.93212 v -1.78418 h 11.90478 z"
         id="path195"
         inkscape:connector-curvature="0" />
      <path
         d="m 182.20117,247.50488 q 1.4458,-1.63037 3.25049,-1.63037 3.68115,0 3.68115,4.00928 V 257 h -1.93799 v -7.03418 q 0,-1.33301 -0.48193,-1.91748 -0.47168,-0.58447 -1.55859,-0.58447 -1.47657,0 -2.95313,1.74316 V 257 h -1.93799 v -15.03223 h 1.93799 z"
         id="path197"
         inkscape:connector-curvature="0" />
      <path
         d="m 197.60254,247.88428 q -0.41016,-0.12305 -1.1792,-0.12305 -1.47656,0 -2.53272,1.54834 V 257 h -1.93798 v -10.87939 h 1.93798 v 1.51757 q 1.22022,-1.76367 2.83008,-1.76367 0.41016,0 0.88184,0.082 z"
         id="path199"
         inkscape:connector-curvature="0" />
      <path
         d="m 203.59082,257.25635 q -2.39941,0 -3.85547,-1.49707 -1.45605,-1.50733 -1.45605,-4.19385 0,-2.66602 1.40478,-4.17334 1.41504,-1.51758 3.69141,-1.51758 2.32763,0 3.71191,1.48682 1.39453,1.48681 1.39453,4.2041 v 0.46143 h -8.19287 q 0.12305,1.88671 1.03565,2.79931 0.92285,0.9126 2.26611,0.9126 1.01514,0 1.8252,-0.5127 0.82031,-0.52295 0.86132,-1.47656 h 1.99952 q -0.22559,1.68164 -1.52784,2.59424 -1.29199,0.9126 -3.1582,0.9126 z m 2.85059,-6.74707 q -0.23584,-1.56885 -1.05616,-2.34815 -0.82031,-0.77929 -2.00976,-0.77929 -1.15869,0 -1.98926,0.77929 -0.83057,0.76905 -1.05615,2.34815 z"
         id="path201"
         inkscape:connector-curvature="0" />
      <path
         d="m 214.54199,257.25635 q -4.46045,0 -4.66553,-3.50684 h 1.93799 q 0.0205,1.98926 2.70703,1.98926 1.19971,0 1.8252,-0.49219 0.63574,-0.50244 0.63574,-1.25097 0,-0.73829 -0.61523,-1.03565 -0.61524,-0.30762 -2.54297,-0.78955 -1.91748,-0.48193 -2.80957,-1.07666 -0.88184,-0.59473 -0.88184,-2.0918 0,-1.35351 1.09717,-2.23535 1.10742,-0.89209 2.95313,-0.89209 4.27587,0 4.36816,3.04541 h -1.92773 q -0.10254,-1.53808 -2.30713,-1.53808 -0.97412,0 -1.62012,0.36914 -0.63574,0.36914 -0.63574,1.07666 0,0.63574 0.49218,0.92285 0.49219,0.27685 2.46094,0.75879 1.97901,0.47168 2.93262,1.10742 0.96387,0.63574 0.96387,2.19434 0,1.48681 -1.18946,2.47119 -1.1792,0.97412 -3.17871,0.97412 z"
         id="path203"
         inkscape:connector-curvature="0" />
      <path
         d="m 223.09375,247.50488 q 1.4458,-1.63037 3.25049,-1.63037 3.68115,0 3.68115,4.00928 V 257 h -1.93799 v -7.03418 q 0,-1.33301 -0.48193,-1.91748 -0.47168,-0.58447 -1.5586,-0.58447 -1.47656,0 -2.95312,1.74316 V 257 h -1.93799 v -15.03223 h 1.93799 z"
         id="path205"
         inkscape:connector-curvature="0" />
      <path
         d="m 237.25439,245.87451 q 2.32764,0 3.71192,1.48682 1.39453,1.48681 1.39453,4.2041 0,2.70703 -1.39453,4.2041 -1.38428,1.48682 -3.71192,1.48682 -2.31738,0 -3.71191,-1.48682 -1.38428,-1.49707 -1.38428,-4.2041 0,-2.71729 1.38428,-4.2041 1.39453,-1.48682 3.71191,-1.48682 z m 0,9.86426 q 1.38428,0 2.24561,-1.0459 0.86133,-1.05615 0.86133,-3.12744 0,-2.08154 -0.86133,-3.12744 -0.86133,-1.05615 -2.24561,-1.05615 -1.38427,0 -2.2456,1.05615 -0.86133,1.0459 -0.86133,3.12744 0,2.07129 0.86133,3.12744 0.86133,1.0459 2.2456,1.0459 z"
         id="path207"
         inkscape:connector-curvature="0" />
      <path
         d="m 246.47266,257 h -1.93799 v -15.03223 h 1.93799 z"
         id="path209"
         inkscape:connector-curvature="0" />
      <path
         d="m 256.14209,253.87256 v -5.16797 q -1.25098,-1.32275 -2.86084,-1.32275 -1.24072,0 -1.98926,1.07666 -0.73828,1.0664 -0.73828,3.18896 0,2.00977 0.69727,3.05566 0.70752,1.03565 1.94824,1.03565 1.62012,0 2.94287,-1.86621 z m 0,1.82519 q -1.29199,1.5586 -3.10693,1.5586 -2.13282,0 -3.30176,-1.51758 -1.16895,-1.51758 -1.16895,-4.09131 0,-2.66601 1.30225,-4.21435 1.3125,-1.5586 3.2915,-1.5586 1.76367,0 2.98389,1.08692 v -4.99366 h 1.92773 V 257 h -1.92773 z"
         id="path211"
         inkscape:connector-curvature="0" />
    </g>
    <circle
       id="280-8"
       cy="36"
       cx="36"
       style="opacity:1;fill:none;stroke:#000000;stroke-width:6;stroke-linecap:butt;stroke-linejoin:miter;stroke-miterlimit:9"
       r="30" />
    <circle
       id="281-9"
       cy="36"
       cx="36"
       style="opacity:1;fill:#ee82ee;stroke:none"
       r="30" />
    <g
       aria-label="C"
       style="font-size:21px;font-family:'Microsoft Sans Serif';text-anchor:middle;opacity:1;fill:#000000;stroke:none"
       id="282-6">
      <path
         d="m 36.389648,43.729682 q -3.188964,0 -5.096191,-2.091796 -1.896973,-2.102051 -1.896973,-5.680664 0,-3.578614 1.896973,-5.670411 1.907227,-2.10205 5.096191,-2.10205 2.450684,0 4.17334,1.322753 1.722657,1.322754 1.937989,3.486329 h -2.050782 q -0.123047,-1.425293 -1.240722,-2.266114 -1.107422,-0.84082 -2.799317,-0.84082 -2.286621,0 -3.619629,1.579102 -1.333007,1.568847 -1.333007,4.491211 0,2.912109 1.322753,4.49121 1.322754,1.579102 3.588868,1.579102 1.763671,0 2.850586,-0.861328 1.086914,-0.861328 1.230468,-2.460938 h 2.050782 q -0.215332,2.399414 -1.886719,3.711914 -1.671387,1.3125 -4.22461,1.3125 z"
         id="path220"
         inkscape:connector-curvature="0" />
    </g>
    <g
       aria-label="Camera"
       clip-path="url(#288_text_clipper-3)"
       style="font-size:21px;font-family:'Microsoft Sans Serif';opacity:1;fill:#000000;stroke:none"
       id="286-3">
      <path
         d="m 13.977539,97.256348 q -3.188965,0 -5.0961913,-2.091797 Q 6.984375,93.0625 6.984375,89.483887 q 0,-3.578614 1.8969727,-5.67041 1.9072263,-2.102051 5.0961913,-2.102051 2.450684,0 4.17334,1.322754 1.722656,1.322754 1.937988,3.486328 h -2.050781 q -0.123047,-1.425293 -1.240723,-2.266113 -1.107422,-0.840821 -2.799316,-0.840821 -2.286621,0 -3.619629,1.579102 -1.3330078,1.568847 -1.3330078,4.491211 0,2.912109 1.3227538,4.491211 1.322754,1.579101 3.588867,1.579101 1.763672,0 2.850586,-0.861328 1.086914,-0.861328 1.230469,-2.460937 h 2.050781 q -0.215332,2.399414 -1.886719,3.711914 -1.671386,1.3125 -4.224609,1.3125 z"
         id="path157"
         inkscape:connector-curvature="0" />
      <path
         d="m 29.491699,94.13916 v -2.409668 h -1.322754 q -4.204101,0 -4.204101,2.286621 0,0.830567 0.615234,1.281739 0.615234,0.440918 1.661133,0.440918 0.953613,0 1.845703,-0.430665 0.89209,-0.430664 1.404785,-1.168945 z m 0,1.743164 q -1.476562,1.374024 -3.804199,1.374024 -1.620117,0 -2.666016,-0.871582 -1.045898,-0.881836 -1.045898,-2.266114 0,-3.814453 6.572754,-3.814453 h 0.943359 q 0,-1.168945 -0.123047,-1.691894 -0.123047,-0.533203 -0.687011,-0.881836 -0.563965,-0.348633 -1.794434,-0.348633 -2.583984,0 -2.666016,1.845703 h -1.927734 q 0.215332,-3.353027 4.696289,-3.353027 2.091797,0 3.260742,0.830566 1.168946,0.830567 1.168946,3.260742 V 97 h -1.927735 z"
         id="path159"
         inkscape:connector-curvature="0" />
      <path
         d="m 48.994629,97 h -1.937988 v -7.03418 q 0,-1.353515 -0.389649,-1.927734 -0.389648,-0.574219 -1.302246,-0.574219 -1.404785,0 -2.758301,1.743164 V 97 h -1.927734 v -7.03418 q 0,-1.353515 -0.389649,-1.927734 -0.389648,-0.574219 -1.3125,-0.574219 -1.404785,0 -2.748046,1.743164 V 97 H 34.290527 V 86.120605 h 1.937989 v 1.384278 q 1.374023,-1.630371 3.04541,-1.630371 2.38916,0 3.04541,1.96875 1.086914,-1.281739 1.845703,-1.620117 0.758789,-0.348633 1.486816,-0.348633 3.342774,0 3.342774,4.009277 z"
         id="path161"
         inkscape:connector-curvature="0" />
      <path
         d="m 56.428711,97.256348 q -2.399414,0 -3.855469,-1.497071 -1.456055,-1.507324 -1.456055,-4.193847 0,-2.666016 1.404786,-4.17334 1.415039,-1.517578 3.691406,-1.517578 2.327637,0 3.711914,1.486816 1.394531,1.486817 1.394531,4.204102 v 0.461425 h -8.192871 q 0.123047,1.886719 1.035645,2.799317 0.922851,0.912598 2.266113,0.912598 1.015137,0 1.825195,-0.512696 0.820313,-0.522949 0.861328,-1.476562 h 1.999512 q -0.225586,1.68164 -1.527832,2.594238 -1.291992,0.912598 -3.158203,0.912598 z m 2.850586,-6.747071 q -0.23584,-1.568847 -1.056152,-2.348144 -0.820313,-0.779297 -2.009766,-0.779297 -1.158692,0 -1.989258,0.779297 -0.830566,0.769043 -1.056152,2.348144 z"
         id="path163"
         inkscape:connector-curvature="0" />
      <path
         d="m 69.143555,87.884277 q -0.410157,-0.123047 -1.1792,-0.123047 -1.476562,0 -2.532714,1.54834 V 97 H 63.493652 V 86.120605 h 1.937989 v 1.517579 q 1.220214,-1.763672 2.830078,-1.763672 0.410156,0 0.881836,0.08203 z"
         id="path165"
         inkscape:connector-curvature="0" />
      <path
         d="m 77.397949,94.13916 v -2.409668 h -1.322754 q -4.204101,0 -4.204101,2.286621 0,0.830567 0.615234,1.281739 0.615234,0.440918 1.661133,0.440918 0.953613,0 1.845703,-0.430665 0.89209,-0.430664 1.404785,-1.168945 z m 0,1.743164 q -1.476562,1.374024 -3.804199,1.374024 -1.620117,0 -2.666016,-0.871582 -1.045898,-0.881836 -1.045898,-2.266114 0,-3.814453 6.572754,-3.814453 h 0.943359 q 0,-1.168945 -0.123047,-1.691894 -0.123047,-0.533203 -0.687011,-0.881836 -0.563965,-0.348633 -1.794434,-0.348633 -2.583984,0 -2.666016,1.845703 h -1.927734 q 0.215332,-3.353027 4.696289,-3.353027 2.091797,0 3.260742,0.830566 1.168946,0.830567 1.168946,3.260742 V 97 h -1.927735 z"
         id="path167"
         inkscape:connector-curvature="0" />
    </g>
    <g
       aria-label="Capture"
       clip-path="url(#294_text_clipper-6)"
       style="font-size:21px;font-family:'Microsoft Sans Serif';opacity:1;fill:#000000;stroke:none"
       id="292-9">
      <path
         d="m 13.977539,121.02634 q -3.188965,0 -5.0961913,-2.09179 -1.8969727,-2.10205 -1.8969727,-5.68067 0,-3.57861 1.8969727,-5.67041 1.9072263,-2.10205 5.0961913,-2.10205 2.450684,0 4.17334,1.32276 1.722656,1.32275 1.937988,3.48632 h -2.050781 q -0.123047,-1.42529 -1.240723,-2.26611 -1.107422,-0.84082 -2.799316,-0.84082 -2.286621,0 -3.619629,1.5791 -1.3330078,1.56885 -1.3330078,4.49121 0,2.91211 1.3227538,4.49121 1.322754,1.57911 3.588867,1.57911 1.763672,0 2.850586,-0.86133 1.086914,-0.86133 1.230469,-2.46094 h 2.050781 q -0.215332,2.39941 -1.886719,3.71191 -1.671386,1.3125 -4.224609,1.3125 z"
         id="path142"
         inkscape:connector-curvature="0" />
      <path
         d="m 29.491699,117.90916 v -2.40967 h -1.322754 q -4.204101,0 -4.204101,2.28662 0,0.83057 0.615234,1.28174 0.615234,0.44092 1.661133,0.44092 0.953613,0 1.845703,-0.43067 0.89209,-0.43066 1.404785,-1.16894 z m 0,1.74316 q -1.476562,1.37402 -3.804199,1.37402 -1.620117,0 -2.666016,-0.87158 -1.045898,-0.88183 -1.045898,-2.26611 0,-3.81445 6.572754,-3.81445 h 0.943359 q 0,-1.16895 -0.123047,-1.6919 -0.123047,-0.5332 -0.687011,-0.88183 -0.563965,-0.34864 -1.794434,-0.34864 -2.583984,0 -2.666016,1.84571 h -1.927734 q 0.215332,-3.35303 4.696289,-3.35303 2.091797,0 3.260742,0.83056 1.168946,0.83057 1.168946,3.26075 V 120.77 h -1.927735 z"
         id="path144"
         inkscape:connector-curvature="0" />
      <path
         d="m 36.228516,111.19285 q 1.291992,-1.54834 3.106933,-1.54834 2.132813,0 3.301758,1.51758 1.168945,1.50732 1.168945,4.08105 0,2.67627 -1.3125,4.23486 -1.302246,1.54834 -3.291504,1.54834 -1.763671,0 -2.973632,-1.09716 v 5.02441 H 34.290527 V 109.8906 h 1.937989 z m 0,6.99316 q 1.240722,1.32276 2.850586,1.32276 1.250976,0 1.989257,-1.06641 0.738282,-1.07666 0.738282,-3.19922 0,-2.00976 -0.697266,-3.04541 -0.697266,-1.0459 -1.948242,-1.0459 -1.609863,0 -2.932617,1.86621 z"
         id="path146"
         inkscape:connector-curvature="0" />
      <path
         d="m 50.20459,120.7905 q -0.635742,0.12305 -1.384278,0.12305 -1.189453,0 -1.743164,-0.42041 -0.553711,-0.43066 -0.687011,-1.09717 -0.133301,-0.6665 -0.133301,-1.81494 v -6.17285 h -1.343262 v -1.51758 h 1.343262 v -2.70703 h 1.927734 v 2.70703 h 1.763672 v 1.51758 H 48.18457 v 6.27539 q 0,1.11768 0.276856,1.42529 0.287109,0.29737 0.779297,0.29737 0.502441,0 0.963867,-0.082 z"
         id="path148"
         inkscape:connector-curvature="0" />
      <path
         d="m 58.694824,119.38572 q -1.445801,1.64062 -3.250488,1.64062 -3.681152,0 -3.681152,-4.01953 v -7.11621 h 1.937988 v 7.03418 q 0,1.33301 0.47168,1.91748 0.471679,0.58447 1.558593,0.58447 1.620117,0 2.963379,-1.74316 v -7.79297 h 1.927735 V 120.77 h -1.927735 z"
         id="path150"
         inkscape:connector-curvature="0" />
      <path
         d="m 69.143555,111.65427 q -0.410157,-0.12304 -1.1792,-0.12304 -1.476562,0 -2.532714,1.54834 V 120.77 h -1.937989 v -10.8794 h 1.937989 v 1.51758 q 1.220214,-1.76367 2.830078,-1.76367 0.410156,0 0.881836,0.082 z"
         id="path152"
         inkscape:connector-curvature="0" />
      <path
         d="m 75.131836,121.02634 q -2.399414,0 -3.855469,-1.49707 -1.456055,-1.50732 -1.456055,-4.19384 0,-2.66602 1.404786,-4.17334 1.415039,-1.51758 3.691406,-1.51758 2.327637,0 3.711914,1.48681 1.394531,1.48682 1.394531,4.20411 v 0.46142 h -8.192871 q 0.123047,1.88672 1.035645,2.79932 0.922851,0.9126 2.266113,0.9126 1.015137,0 1.825195,-0.5127 0.820313,-0.52295 0.861328,-1.47656 h 1.999512 q -0.225586,1.68164 -1.527832,2.59424 -1.291992,0.91259 -3.158203,0.91259 z m 2.850586,-6.74707 q -0.23584,-1.56884 -1.056152,-2.34814 -0.820313,-0.7793 -2.009766,-0.7793 -1.158692,0 -1.989258,0.7793 -0.830566,0.76904 -1.056152,2.34814 z"
         id="path154"
         inkscape:connector-curvature="0" />
    </g>
    <line
       y1="36"
       style="opacity:1;fill:none;stroke:#000000;stroke-width:2;stroke-linecap:butt;stroke-linejoin:miter;stroke-miterlimit:9"
       id="298-2"
       x2="163"
       y2="36"
       x1="69" />
    <line
       y1="36"
       style="opacity:1;fill:none;stroke:#000000;stroke-width:2;stroke-linecap:butt;stroke-linejoin:miter;stroke-miterlimit:9"
       id="299-9"
       x2="163"
       y2="196"
       x1="69" />
  </g>
  <text
     xml:space="preserve"
     style="font-style:normal;font-weight:normal;font-size:10px;line-height:1.25;font-family:sans-serif;letter-spacing:0px;word-spacing:0px;fill:#000000;fill-opacity:1;stroke:none;stroke-width:0.5"
     x="23.301769"
     y="19.218111"
     id="text225"><tspan
       sodipodi:role="line"
       id="tspan223"
       x="23.301769"
       y="19.218111"
       style="font-size:10px;stroke-width:0.5">Branching</tspan><tspan
       sodipodi:role="line"
       x="23.301769"
       y="31.718111"
       style="font-size:10px;stroke-width:0.5"
       id="tspan227">(Publish)</tspan></text>
</svg>
