<?xml version="1.0" encoding="UTF-8" standalone="no"?>
<svg
   xmlns:dc="http://purl.org/dc/elements/1.1/"
   xmlns:cc="http://creativecommons.org/ns#"
   xmlns:rdf="http://www.w3.org/1999/02/22-rdf-syntax-ns#"
   xmlns:svg="http://www.w3.org/2000/svg"
   xmlns="http://www.w3.org/2000/svg"
   xmlns:sodipodi="http://sodipodi.sourceforge.net/DTD/sodipodi-0.dtd"
   xmlns:inkscape="http://www.inkscape.org/namespaces/inkscape"
   width="364.42294"
   height="160"
   id="SvgGdi_output"
   version="1.1"
   sodipodi:docname="cameracapture.svg"
   inkscape:version="0.92.1 r15371">
  <metadata
     id="metadata29">
    <rdf:RDF>
      <cc:Work
         rdf:about="">
        <dc:format>image/svg+xml</dc:format>
        <dc:type
           rdf:resource="http://purl.org/dc/dcmitype/StillImage" />
        <dc:title></dc:title>
      </cc:Work>
    </rdf:RDF>
  </metadata>
  <sodipodi:namedview
     pagecolor="#ffffff"
     bordercolor="#666666"
     borderopacity="1"
     objecttolerance="10"
     gridtolerance="10"
     guidetolerance="10"
     inkscape:pageopacity="0"
     inkscape:pageshadow="2"
     inkscape:window-width="3000"
     inkscape:window-height="1875"
     id="namedview27"
     showgrid="false"
     inkscape:zoom="5.1830411"
     inkscape:cx="57.561236"
     inkscape:cy="30.647779"
     inkscape:window-x="-13"
     inkscape:window-y="-13"
     inkscape:window-maximized="1"
     inkscape:current-layer="SvgGdi_output"
     fit-margin-top="0"
     fit-margin-left="0"
     fit-margin-right="0"
     fit-margin-bottom="0" />
  <defs
     id="clips_hatches_and_gradients">
    <clipPath
       id="241_text_clipper-9">
      <rect
         x="6"
         y="76"
         width="83.940002"
         height="52.790001"
         id="242-3" />
    </clipPath>
    <clipPath
       id="247_text_clipper-6">
      <rect
         x="6"
         y="99.769997"
         width="83.940002"
         height="52.790001"
         id="248-0" />
    </clipPath>
  </defs>
  <g
     id="g4796">
    <circle
       r="18.568695"
       id="233-1"
       cy="20.425564"
       cx="20.425564"
       style="opacity:1;fill:none;stroke:#000000;stroke-width:3.71373892;stroke-linecap:butt;stroke-linejoin:miter;stroke-miterlimit:9;shape-rendering:auto" />
    <circle
       r="18.568695"
       id="234-1"
       cy="20.425564"
       cx="20.425564"
       style="opacity:1;fill:#ee82ee;stroke:none;stroke-width:0.61895651;shape-rendering:auto" />
    <g
       transform="matrix(0.6189565,0,0,0.6189565,-1.8568695,-1.8568695)"
       aria-label="C"
       style="font-size:21px;font-family:'Microsoft Sans Serif';text-anchor:middle;opacity:1;fill:#000000;stroke:none;shape-rendering:auto"
       id="235-3">
      <path
         inkscape:connector-curvature="0"
         d="m 36.389648,43.729682 q -3.188964,0 -5.096191,-2.091796 -1.896973,-2.102051 -1.896973,-5.680664 0,-3.578614 1.896973,-5.670411 1.907227,-2.10205 5.096191,-2.10205 2.450684,0 4.17334,1.322753 1.722657,1.322754 1.937989,3.486329 h -2.050782 q -0.123047,-1.425293 -1.240722,-2.266114 -1.107422,-0.84082 -2.799317,-0.84082 -2.286621,0 -3.619629,1.579102 -1.333007,1.568847 -1.333007,4.491211 0,2.912109 1.322753,4.49121 1.322754,1.579102 3.588868,1.579102 1.763671,0 2.850586,-0.861328 1.086914,-0.861328 1.230468,-2.460938 h 2.050782 q -0.215332,2.399414 -1.886719,3.711914 -1.671387,1.3125 -4.22461,1.3125 z"
         id="path4509-2" />
    </g>
    <g
       transform="matrix(0.6189565,0,0,0.6189565,-1.8568695,-1.8568695)"
       aria-label="Camera"
       clip-path="url(#241_text_clipper-9)"
       style="font-size:21px;font-family:'Microsoft Sans Serif';opacity:1;fill:#000000;stroke:none;shape-rendering:auto"
       id="239-2">
      <path
         inkscape:connector-curvature="0"
         d="m 13.977539,97.256348 q -3.188965,0 -5.0961913,-2.091797 Q 6.984375,93.0625 6.984375,89.483887 q 0,-3.578614 1.8969727,-5.67041 1.9072263,-2.102051 5.0961913,-2.102051 2.450684,0 4.17334,1.322754 1.722656,1.322754 1.937988,3.486328 h -2.050781 q -0.123047,-1.425293 -1.240723,-2.266113 -1.107422,-0.840821 -2.799316,-0.840821 -2.286621,0 -3.619629,1.579102 -1.3330078,1.568847 -1.3330078,4.491211 0,2.912109 1.3227538,4.491211 1.322754,1.579101 3.588867,1.579101 1.763672,0 2.850586,-0.861328 1.086914,-0.861328 1.230469,-2.460937 h 2.050781 q -0.215332,2.399414 -1.886719,3.711914 -1.671386,1.3125 -4.224609,1.3125 z"
         id="path4546-4" />
      <path
         inkscape:connector-curvature="0"
         d="m 29.491699,94.13916 v -2.409668 h -1.322754 q -4.204101,0 -4.204101,2.286621 0,0.830567 0.615234,1.281739 0.615234,0.440918 1.661133,0.440918 0.953613,0 1.845703,-0.430665 0.89209,-0.430664 1.404785,-1.168945 z m 0,1.743164 q -1.476562,1.374024 -3.804199,1.374024 -1.620117,0 -2.666016,-0.871582 -1.045898,-0.881836 -1.045898,-2.266114 0,-3.814453 6.572754,-3.814453 h 0.943359 q 0,-1.168945 -0.123047,-1.691894 -0.123047,-0.533203 -0.687011,-0.881836 -0.563965,-0.348633 -1.794434,-0.348633 -2.583984,0 -2.666016,1.845703 h -1.927734 q 0.215332,-3.353027 4.696289,-3.353027 2.091797,0 3.260742,0.830566 1.168946,0.830567 1.168946,3.260742 V 97 h -1.927735 z"
         id="path4548-8" />
      <path
         inkscape:connector-curvature="0"
         d="m 48.994629,97 h -1.937988 v -7.03418 q 0,-1.353515 -0.389649,-1.927734 -0.389648,-0.574219 -1.302246,-0.574219 -1.404785,0 -2.758301,1.743164 V 97 h -1.927734 v -7.03418 q 0,-1.353515 -0.389649,-1.927734 -0.389648,-0.574219 -1.3125,-0.574219 -1.404785,0 -2.748046,1.743164 V 97 H 34.290527 V 86.120605 h 1.937989 v 1.384278 q 1.374023,-1.630371 3.04541,-1.630371 2.38916,0 3.04541,1.96875 1.086914,-1.281739 1.845703,-1.620117 0.758789,-0.348633 1.486816,-0.348633 3.342774,0 3.342774,4.009277 z"
         id="path4550-1" />
      <path
         inkscape:connector-curvature="0"
         d="m 56.428711,97.256348 q -2.399414,0 -3.855469,-1.497071 -1.456055,-1.507324 -1.456055,-4.193847 0,-2.666016 1.404786,-4.17334 1.415039,-1.517578 3.691406,-1.517578 2.327637,0 3.711914,1.486816 1.394531,1.486817 1.394531,4.204102 v 0.461425 h -8.192871 q 0.123047,1.886719 1.035645,2.799317 0.922851,0.912598 2.266113,0.912598 1.015137,0 1.825195,-0.512696 0.820313,-0.522949 0.861328,-1.476562 h 1.999512 q -0.225586,1.68164 -1.527832,2.594238 -1.291992,0.912598 -3.158203,0.912598 z m 2.850586,-6.747071 q -0.23584,-1.568847 -1.056152,-2.348144 -0.820313,-0.779297 -2.009766,-0.779297 -1.158692,0 -1.989258,0.779297 -0.830566,0.769043 -1.056152,2.348144 z"
         id="path4552-1" />
      <path
         inkscape:connector-curvature="0"
         d="m 69.143555,87.884277 q -0.410157,-0.123047 -1.1792,-0.123047 -1.476562,0 -2.532714,1.54834 V 97 H 63.493652 V 86.120605 h 1.937989 v 1.517579 q 1.220214,-1.763672 2.830078,-1.763672 0.410156,0 0.881836,0.08203 z"
         id="path4554-7" />
      <path
         inkscape:connector-curvature="0"
         d="m 77.397949,94.13916 v -2.409668 h -1.322754 q -4.204101,0 -4.204101,2.286621 0,0.830567 0.615234,1.281739 0.615234,0.440918 1.661133,0.440918 0.953613,0 1.845703,-0.430665 0.89209,-0.430664 1.404785,-1.168945 z m 0,1.743164 q -1.476562,1.374024 -3.804199,1.374024 -1.620117,0 -2.666016,-0.871582 -1.045898,-0.881836 -1.045898,-2.266114 0,-3.814453 6.572754,-3.814453 h 0.943359 q 0,-1.168945 -0.123047,-1.691894 -0.123047,-0.533203 -0.687011,-0.881836 -0.563965,-0.348633 -1.794434,-0.348633 -2.583984,0 -2.666016,1.845703 h -1.927734 q 0.215332,-3.353027 4.696289,-3.353027 2.091797,0 3.260742,0.830566 1.168946,0.830567 1.168946,3.260742 V 97 h -1.927735 z"
         id="path4556-6" />
    </g>
    <g
       transform="matrix(0.6189565,0,0,0.6189565,-1.8568695,-1.8568695)"
       aria-label="Capture"
       clip-path="url(#247_text_clipper-6)"
       style="font-size:21px;font-family:'Microsoft Sans Serif';opacity:1;fill:#000000;stroke:none;shape-rendering:auto"
       id="245-4">
      <path
         inkscape:connector-curvature="0"
         d="m 13.977539,121.02634 q -3.188965,0 -5.0961913,-2.09179 -1.8969727,-2.10205 -1.8969727,-5.68067 0,-3.57861 1.8969727,-5.67041 1.9072263,-2.10205 5.0961913,-2.10205 2.450684,0 4.17334,1.32276 1.722656,1.32275 1.937988,3.48632 h -2.050781 q -0.123047,-1.42529 -1.240723,-2.26611 -1.107422,-0.84082 -2.799316,-0.84082 -2.286621,0 -3.619629,1.5791 -1.3330078,1.56885 -1.3330078,4.49121 0,2.91211 1.3227538,4.49121 1.322754,1.57911 3.588867,1.57911 1.763672,0 2.850586,-0.86133 1.086914,-0.86133 1.230469,-2.46094 h 2.050781 q -0.215332,2.39941 -1.886719,3.71191 -1.671386,1.3125 -4.224609,1.3125 z"
         id="path4531-2" />
      <path
         inkscape:connector-curvature="0"
         d="m 29.491699,117.90916 v -2.40967 h -1.322754 q -4.204101,0 -4.204101,2.28662 0,0.83057 0.615234,1.28174 0.615234,0.44092 1.661133,0.44092 0.953613,0 1.845703,-0.43067 0.89209,-0.43066 1.404785,-1.16894 z m 0,1.74316 q -1.476562,1.37402 -3.804199,1.37402 -1.620117,0 -2.666016,-0.87158 -1.045898,-0.88183 -1.045898,-2.26611 0,-3.81445 6.572754,-3.81445 h 0.943359 q 0,-1.16895 -0.123047,-1.6919 -0.123047,-0.5332 -0.687011,-0.88183 -0.563965,-0.34864 -1.794434,-0.34864 -2.583984,0 -2.666016,1.84571 h -1.927734 q 0.215332,-3.35303 4.696289,-3.35303 2.091797,0 3.260742,0.83056 1.168946,0.83057 1.168946,3.26075 V 120.77 h -1.927735 z"
         id="path4533-7" />
      <path
         inkscape:connector-curvature="0"
         d="m 36.228516,111.19285 q 1.291992,-1.54834 3.106933,-1.54834 2.132813,0 3.301758,1.51758 1.168945,1.50732 1.168945,4.08105 0,2.67627 -1.3125,4.23486 -1.302246,1.54834 -3.291504,1.54834 -1.763671,0 -2.973632,-1.09716 v 5.02441 H 34.290527 V 109.8906 h 1.937989 z m 0,6.99316 q 1.240722,1.32276 2.850586,1.32276 1.250976,0 1.989257,-1.06641 0.738282,-1.07666 0.738282,-3.19922 0,-2.00976 -0.697266,-3.04541 -0.697266,-1.0459 -1.948242,-1.0459 -1.609863,0 -2.932617,1.86621 z"
         id="path4535-9" />
      <path
         inkscape:connector-curvature="0"
         d="m 50.20459,120.7905 q -0.635742,0.12305 -1.384278,0.12305 -1.189453,0 -1.743164,-0.42041 -0.553711,-0.43066 -0.687011,-1.09717 -0.133301,-0.6665 -0.133301,-1.81494 v -6.17285 h -1.343262 v -1.51758 h 1.343262 v -2.70703 h 1.927734 v 2.70703 h 1.763672 v 1.51758 H 48.18457 v 6.27539 q 0,1.11768 0.276856,1.42529 0.287109,0.29737 0.779297,0.29737 0.502441,0 0.963867,-0.082 z"
         id="path4537-7" />
      <path
         inkscape:connector-curvature="0"
         d="m 58.694824,119.38572 q -1.445801,1.64062 -3.250488,1.64062 -3.681152,0 -3.681152,-4.01953 v -7.11621 h 1.937988 v 7.03418 q 0,1.33301 0.47168,1.91748 0.471679,0.58447 1.558593,0.58447 1.620117,0 2.963379,-1.74316 v -7.79297 h 1.927735 V 120.77 h -1.927735 z"
         id="path4539-7" />
      <path
         inkscape:connector-curvature="0"
         d="m 69.143555,111.65427 q -0.410157,-0.12304 -1.1792,-0.12304 -1.476562,0 -2.532714,1.54834 V 120.77 h -1.937989 v -10.8794 h 1.937989 v 1.51758 q 1.220214,-1.76367 2.830078,-1.76367 0.410156,0 0.881836,0.082 z"
         id="path4541-0" />
      <path
         inkscape:connector-curvature="0"
         d="m 75.131836,121.02634 q -2.399414,0 -3.855469,-1.49707 -1.456055,-1.50732 -1.456055,-4.19384 0,-2.66602 1.404786,-4.17334 1.415039,-1.51758 3.691406,-1.51758 2.327637,0 3.711914,1.48681 1.394531,1.48682 1.394531,4.20411 v 0.46142 h -8.192871 q 0.123047,1.88672 1.035645,2.79932 0.922851,0.9126 2.266113,0.9126 1.015137,0 1.825195,-0.5127 0.820313,-0.52295 0.861328,-1.47656 h 1.999512 q -0.225586,1.68164 -1.527832,2.59424 -1.291992,0.91259 -3.158203,0.91259 z m 2.850586,-6.74707 q -0.23584,-1.56884 -1.056152,-2.34814 -0.820313,-0.7793 -2.009766,-0.7793 -1.158692,0 -1.989258,0.7793 -0.830566,0.76904 -1.056152,2.34814 z"
         id="path4543-1" />
    </g>
  </g>
</svg>
