<?xml version="1.0" encoding="UTF-8" standalone="no"?>
<svg
   xmlns:dc="http://purl.org/dc/elements/1.1/"
   xmlns:cc="http://creativecommons.org/ns#"
   xmlns:rdf="http://www.w3.org/1999/02/22-rdf-syntax-ns#"
   xmlns:svg="http://www.w3.org/2000/svg"
   xmlns="http://www.w3.org/2000/svg"
   xmlns:sodipodi="http://sodipodi.sourceforge.net/DTD/sodipodi-0.dtd"
   xmlns:inkscape="http://www.inkscape.org/namespaces/inkscape"
   width="237.40239"
   height="453.5433"
   id="SvgGdi_output"
   version="1.1"
   sodipodi:docname="subjects-publish.svg"
   inkscape:version="0.92.1 r15371"
   viewBox="0 0 118.70119 226.77165">
  <metadata
     id="metadata71">
    <rdf:RDF>
      <cc:Work
         rdf:about="">
        <dc:format>image/svg+xml</dc:format>
        <dc:type
           rdf:resource="http://purl.org/dc/dcmitype/StillImage" />
        <dc:title></dc:title>
      </cc:Work>
    </rdf:RDF>
  </metadata>
  <sodipodi:namedview
     pagecolor="#ffffff"
     bordercolor="#666666"
     borderopacity="1"
     objecttolerance="10"
     gridtolerance="10"
     guidetolerance="10"
     inkscape:pageopacity="0"
     inkscape:pageshadow="2"
     inkscape:window-width="3000"
     inkscape:window-height="1875"
     id="namedview69"
     showgrid="false"
     fit-margin-top="0"
     fit-margin-left="0"
     fit-margin-right="0"
     fit-margin-bottom="0"
     inkscape:zoom="2.1034472"
     inkscape:cx="176.7545"
     inkscape:cy="158.60925"
     inkscape:window-x="-13"
     inkscape:window-y="-13"
     inkscape:window-maximized="1"
     inkscape:current-layer="SvgGdi_output"
     scale-x="0.5" />
  <g
     style="shape-rendering:auto"
     id="root_group"
     transform="matrix(0.39306111,0,0,0.39306111,-1.1791833,51.797091)">
    <circle
       id="401"
       cy="36"
       cx="196"
       style="opacity:1;fill:none;stroke:#000000;stroke-width:6;stroke-linecap:butt;stroke-linejoin:miter;stroke-miterlimit:9"
       r="30" />
    <circle
       id="402"
       cy="36"
       cx="196"
       style="opacity:1;fill:#a9a9a9;stroke:none"
       r="30" />
    <g
       aria-label="P"
       style="font-size:21px;font-family:'Microsoft Sans Serif';text-anchor:middle;opacity:1;fill:#000000;stroke:none"
       id="403">
      <path
         d="m 190.66797,28.441108 h 5.60889 q 1.8457,0 3.08642,0.348633 1.25098,0.338379 1.97901,1.486816 0.72802,1.138184 0.72802,2.553223 0,2.276367 -1.4458,3.455567 -1.4458,1.179199 -4.18359,1.179199 h -3.78369 v 6.008789 h -1.98926 z m 1.98926,7.239258 h 3.8042 q 1.91748,0 2.72753,-0.717773 0.82032,-0.717774 0.82032,-2.071289 0,-0.902344 -0.45117,-1.59961 -0.45118,-0.697265 -1.14844,-0.881836 -0.68701,-0.18457 -1.98926,-0.18457 h -3.76318 z"
         id="path560"
         inkscape:connector-curvature="0" />
    </g>
    <g
       aria-label="PublishSubject"
       clip-path="url(#409_text_clipper)"
       style="font-size:21px;font-family:'Microsoft Sans Serif';opacity:1;fill:#000000;stroke:none"
       id="407">
      <path
         d="m 167.68164,81.967773 h 5.60889 q 1.8457,0 3.08642,0.348633 1.25098,0.338379 1.97901,1.486817 0.72802,1.138183 0.72802,2.553222 0,2.276367 -1.4458,3.455567 -1.4458,1.179199 -4.18359,1.179199 H 169.6709 V 97 h -1.98926 z m 1.98926,7.239258 h 3.8042 q 1.91748,0 2.72754,-0.717773 0.82031,-0.717774 0.82031,-2.071289 0,-0.902344 -0.45117,-1.59961 -0.45117,-0.697265 -1.14844,-0.881836 -0.68701,-0.18457 -1.98926,-0.18457 h -3.76318 z"
         id="path531"
         inkscape:connector-curvature="0" />
      <path
         d="m 188.34326,95.615723 q -1.4458,1.640625 -3.25049,1.640625 -3.68115,0 -3.68115,-4.019532 v -7.116211 h 1.93799 v 7.03418 q 0,1.333008 0.47168,1.917481 0.47168,0.584472 1.55859,0.584472 1.62012,0 2.96338,-1.743164 V 86.120605 H 190.271 V 97 h -1.92774 z"
         id="path533"
         inkscape:connector-curvature="0" />
      <path
         d="m 195.08008,87.422852 q 1.29199,-1.54834 3.10693,-1.54834 2.13281,0 3.30176,1.517578 1.16894,1.507324 1.16894,4.081055 0,2.676269 -1.3125,4.234863 -1.30224,1.54834 -3.2915,1.54834 -1.76367,0 -2.97363,-1.097168 V 97 h -1.93799 V 81.967773 h 1.93799 z m 0,6.993164 q 1.24072,1.322754 2.85058,1.322754 1.25098,0 1.98926,-1.066407 0.73828,-1.07666 0.73828,-3.199218 0,-2.009766 -0.69726,-3.045411 -0.69727,-1.045898 -1.94824,-1.045898 -1.60987,0 -2.93262,1.866211 z"
         id="path535"
         inkscape:connector-curvature="0" />
      <path
         d="m 206.76953,97 h -1.93799 V 81.967773 h 1.93799 z"
         id="path537"
         inkscape:connector-curvature="0" />
      <path
         d="m 211.48633,97 h -1.93799 V 86.120605 h 1.93799 z m 0,-12.94043 h -1.93799 v -2.091797 h 1.93799 z"
         id="path539"
         inkscape:connector-curvature="0" />
      <path
         d="m 218.15137,97.256348 q -4.46045,0 -4.66553,-3.506836 h 1.93799 q 0.0205,1.989258 2.70703,1.989258 1.19971,0 1.82519,-0.492188 0.63575,-0.502441 0.63575,-1.250977 0,-0.738281 -0.61524,-1.035644 -0.61523,-0.307617 -2.54297,-0.789551 -1.91748,-0.481933 -2.80957,-1.07666 -0.88183,-0.594727 -0.88183,-2.091797 0,-1.353516 1.09717,-2.235351 1.10742,-0.89209 2.95312,-0.89209 4.27588,0 4.36816,3.04541 h -1.92773 q -0.10254,-1.538086 -2.30713,-1.538086 -0.97412,0 -1.62012,0.369141 -0.63574,0.36914 -0.63574,1.07666 0,0.635742 0.49219,0.922851 0.49219,0.276856 2.46094,0.758789 1.979,0.47168 2.93261,1.107422 0.96387,0.635742 0.96387,2.194336 0,1.486817 -1.18945,2.471192 -1.1792,0.974121 -3.17871,0.974121 z"
         id="path541"
         inkscape:connector-curvature="0" />
      <path
         d="m 226.70312,87.504883 q 1.44581,-1.630371 3.25049,-1.630371 3.68116,0 3.68116,4.009277 V 97 h -1.93799 v -7.03418 q 0,-1.333008 -0.48194,-1.91748 -0.47168,-0.584473 -1.55859,-0.584473 -1.47656,0 -2.95313,1.743164 V 97 h -1.93798 V 81.967773 h 1.93798 z"
         id="path543"
         inkscape:connector-curvature="0" />
      <path
         d="m 242.38135,97.256348 q -3.17871,0 -4.75781,-1.425293 -1.56885,-1.425293 -1.65088,-3.660645 h 1.91748 q 0.15381,1.681641 1.39453,2.491699 1.25097,0.799805 3.01465,0.799805 1.67138,0 2.68652,-0.687012 1.02539,-0.687011 1.02539,-1.866211 0,-1.240722 -1.05615,-1.804687 -1.05615,-0.563965 -3.64014,-1.107422 -2.57373,-0.553711 -3.70166,-1.527832 -1.11767,-0.974121 -1.11767,-2.594238 0,-1.825196 1.45605,-2.994141 1.46631,-1.168945 3.88623,-1.168945 2.54297,0 4.10156,1.179199 1.5586,1.179199 1.65088,3.33252 h -1.93799 q -0.29736,-2.72754 -3.73242,-2.72754 -1.66113,0 -2.57373,0.625489 -0.9126,0.625488 -0.9126,1.661133 0,0.943359 0.72803,1.415039 0.73828,0.471679 2.73779,0.912597 2.00977,0.440918 3.18897,0.871582 1.1792,0.430664 2.02002,1.343262 0.84082,0.902344 0.84082,2.430176 0,1.937988 -1.54834,3.219726 -1.53809,1.281739 -4.01953,1.281739 z"
         id="path545"
         inkscape:connector-curvature="0" />
      <path
         d="m 257.37256,95.615723 q -1.4458,1.640625 -3.25049,1.640625 -3.68115,0 -3.68115,-4.019532 v -7.116211 h 1.93799 v 7.03418 q 0,1.333008 0.47168,1.917481 0.47168,0.584472 1.55859,0.584472 1.62012,0 2.96338,-1.743164 v -7.792969 h 1.92773 V 97 h -1.92773 z"
         id="path547"
         inkscape:connector-curvature="0" />
      <path
         d="m 264.10937,87.422852 q 1.292,-1.54834 3.10694,-1.54834 2.13281,0 3.30176,1.517578 1.16894,1.507324 1.16894,4.081055 0,2.676269 -1.3125,4.234863 -1.30224,1.54834 -3.2915,1.54834 -1.76367,0 -2.97364,-1.097168 V 97 h -1.93798 V 81.967773 h 1.93798 z m 0,6.993164 q 1.24073,1.322754 2.85059,1.322754 1.25098,0 1.98926,-1.066407 0.73828,-1.07666 0.73828,-3.199218 0,-2.009766 -0.69727,-3.045411 -0.69726,-1.045898 -1.94824,-1.045898 -1.60986,0 -2.93262,1.866211 z"
         id="path549"
         inkscape:connector-curvature="0" />
      <path
         d="m 275.79883,97.584473 q 0,2.33789 -0.73828,3.065917 -0.73828,0.73828 -2.06104,0.73828 -0.78955,0 -1.30224,-0.10254 v -1.640622 q 0.55371,0.143554 1.07666,0.143554 0.63574,0 0.86132,-0.451171 0.22559,-0.440918 0.22559,-1.794434 V 86.120605 h 1.93799 z m 0,-13.524903 h -1.93799 v -2.091797 h 1.93799 z"
         id="path551"
         inkscape:connector-curvature="0" />
      <path
         d="m 283.20215,97.256348 q -2.39942,0 -3.85547,-1.497071 -1.45606,-1.507324 -1.45606,-4.193847 0,-2.666016 1.40479,-4.17334 1.41504,-1.517578 3.69141,-1.517578 2.32763,0 3.71191,1.486816 1.39453,1.486817 1.39453,4.204102 v 0.461425 h -8.19287 q 0.12305,1.886719 1.03565,2.799317 0.92285,0.912598 2.26611,0.912598 1.01514,0 1.82519,-0.512696 0.82032,-0.522949 0.86133,-1.476562 h 1.99951 q -0.22558,1.68164 -1.52783,2.594238 -1.29199,0.912598 -3.1582,0.912598 z m 2.85058,-6.747071 q -0.23584,-1.568847 -1.05615,-2.348144 -0.82031,-0.779297 -2.00976,-0.779297 -1.1587,0 -1.98926,0.779297 -0.83057,0.769043 -1.05615,2.348144 z"
         id="path553"
         inkscape:connector-curvature="0" />
      <path
         d="m 294.67627,97.256348 q -2.31738,0 -3.71191,-1.486817 -1.38428,-1.49707 -1.38428,-4.204101 0,-2.717285 1.38428,-4.204102 1.39453,-1.486816 3.71191,-1.486816 1.78418,0 2.97363,0.902343 1.19971,0.902344 1.41504,2.604493 h -1.98926 q -0.041,-0.974121 -0.73828,-1.486817 -0.68701,-0.512695 -1.66113,-0.512695 -1.38428,0 -2.24561,1.056152 -0.86132,1.045899 -0.86132,3.127442 0,2.071289 0.86132,3.127441 0.86133,1.045899 2.24561,1.045899 0.97412,0 1.66113,-0.512696 0.69727,-0.512695 0.73828,-1.476562 h 1.98926 q -0.21533,1.702148 -1.41504,2.604492 -1.18945,0.902344 -2.97363,0.902344 z"
         id="path555"
         inkscape:connector-curvature="0" />
      <path
         d="m 304.9917,97.020508 q -0.63574,0.123047 -1.38428,0.123047 -1.18945,0 -1.74316,-0.42041 -0.55371,-0.430665 -0.68701,-1.097168 -0.1333,-0.666504 -0.1333,-1.814942 v -6.172851 h -1.34327 v -1.517579 h 1.34327 v -2.707031 h 1.92773 v 2.707031 h 1.76367 v 1.517579 h -1.76367 v 6.27539 q 0,1.117676 0.27686,1.425293 0.2871,0.297363 0.77929,0.297363 0.50244,0 0.96387,-0.08203 z"
         id="path557"
         inkscape:connector-curvature="0" />
    </g>
    <circle
       id="413"
       cy="196"
       cx="196"
       style="opacity:1;fill:none;stroke:#000000;stroke-width:6;stroke-linecap:butt;stroke-linejoin:miter;stroke-miterlimit:9"
       r="30" />
    <circle
       id="414"
       cy="196"
       cx="196"
       style="opacity:1;fill:#ffffff;stroke:none"
       r="30" />
    <g
       aria-label="C"
       style="font-size:21px;font-family:'Microsoft Sans Serif';text-anchor:middle;opacity:1;fill:#000000;stroke:none"
       id="415">
      <path
         d="m 196.38965,203.72969 q -3.18897,0 -5.09619,-2.0918 -1.89698,-2.10205 -1.89698,-5.68066 0,-3.57862 1.89698,-5.67041 1.90722,-2.10206 5.09619,-2.10206 2.45068,0 4.17334,1.32276 1.72265,1.32275 1.93799,3.48633 h -2.05078 q -0.12305,-1.4253 -1.24073,-2.26612 -1.10742,-0.84082 -2.79931,-0.84082 -2.28662,0 -3.61963,1.5791 -1.33301,1.56885 -1.33301,4.49122 0,2.9121 1.32275,4.49121 1.32276,1.5791 3.58887,1.5791 1.76367,0 2.85059,-0.86133 1.08691,-0.86133 1.23047,-2.46094 h 2.05078 q -0.21534,2.39942 -1.88672,3.71192 -1.67139,1.3125 -4.22461,1.3125 z"
         id="path497"
         inkscape:connector-curvature="0" />
    </g>
    <g
       aria-label="ConvertColor"
       clip-path="url(#421_text_clipper)"
       style="font-size:21px;font-family:'Microsoft Sans Serif';opacity:1;fill:#000000;stroke:none"
       id="419">
      <path
         d="m 173.97754,257.25635 q -3.18897,0 -5.09619,-2.0918 -1.89698,-2.10205 -1.89698,-5.68066 0,-3.57862 1.89698,-5.67041 1.90722,-2.10205 5.09619,-2.10205 2.45068,0 4.17334,1.32275 1.72266,1.32275 1.93799,3.48633 h -2.05078 q -0.12305,-1.4253 -1.24073,-2.26612 -1.10742,-0.84082 -2.79931,-0.84082 -2.28662,0 -3.61963,1.57911 -1.33301,1.56884 -1.33301,4.49121 0,2.91211 1.32275,4.49121 1.32276,1.5791 3.58887,1.5791 1.76367,0 2.85059,-0.86133 1.08691,-0.86133 1.23047,-2.46094 h 2.05078 q -0.21533,2.39942 -1.88672,3.71192 -1.67139,1.3125 -4.22461,1.3125 z"
         id="path472"
         inkscape:connector-curvature="0" />
      <path
         d="m 187.01025,245.87451 q 2.32764,0 3.71192,1.48682 1.39453,1.48681 1.39453,4.2041 0,2.70703 -1.39453,4.2041 -1.38428,1.48682 -3.71192,1.48682 -2.31738,0 -3.71191,-1.48682 -1.38428,-1.49707 -1.38428,-4.2041 0,-2.71729 1.38428,-4.2041 1.39453,-1.48682 3.71191,-1.48682 z m 0,9.86426 q 1.38428,0 2.24561,-1.0459 0.86133,-1.05615 0.86133,-3.12744 0,-2.08154 -0.86133,-3.12744 -0.86133,-1.05615 -2.24561,-1.05615 -1.38427,0 -2.2456,1.05615 -0.86133,1.0459 -0.86133,3.12744 0,2.07129 0.86133,3.12744 0.86133,1.0459 2.2456,1.0459 z"
         id="path474"
         inkscape:connector-curvature="0" />
      <path
         d="m 196.22852,247.50488 q 1.4458,-1.63037 3.25048,-1.63037 3.68116,0 3.68116,4.00928 V 257 h -1.93799 v -7.03418 q 0,-1.33301 -0.48194,-1.91748 -0.47168,-0.58447 -1.55859,-0.58447 -1.47656,0 -2.95312,1.74316 V 257 h -1.93799 v -10.87939 h 1.93799 z"
         id="path476"
         inkscape:connector-curvature="0" />
      <path
         d="M 214.77783,246.12061 210.66602,257 h -1.72266 l -4.11182,-10.87939 h 2.0918 l 2.88135,8.51074 2.88135,-8.51074 z"
         id="path478"
         inkscape:connector-curvature="0" />
      <path
         d="m 221.10449,257.25635 q -2.39941,0 -3.85547,-1.49707 -1.45605,-1.50733 -1.45605,-4.19385 0,-2.66602 1.40478,-4.17334 1.41504,-1.51758 3.69141,-1.51758 2.32764,0 3.71191,1.48682 1.39454,1.48681 1.39454,4.2041 v 0.46143 h -8.19288 q 0.12305,1.88671 1.03565,2.79931 0.92285,0.9126 2.26611,0.9126 1.01514,0 1.8252,-0.5127 0.82031,-0.52295 0.86133,-1.47656 h 1.99951 q -0.22559,1.68164 -1.52783,2.59424 -1.292,0.9126 -3.15821,0.9126 z m 2.85059,-6.74707 q -0.23584,-1.56885 -1.05615,-2.34815 -0.82032,-0.77929 -2.00977,-0.77929 -1.15869,0 -1.98926,0.77929 -0.83056,0.76905 -1.05615,2.34815 z"
         id="path480"
         inkscape:connector-curvature="0" />
      <path
         d="m 233.81934,247.88428 q -0.41016,-0.12305 -1.1792,-0.12305 -1.47657,0 -2.53272,1.54834 V 257 h -1.93799 v -10.87939 h 1.93799 v 1.51757 q 1.22022,-1.76367 2.83008,-1.76367 0.41016,0 0.88184,0.082 z"
         id="path482"
         inkscape:connector-curvature="0" />
      <path
         d="m 239.40771,257.02051 q -0.63574,0.12304 -1.38427,0.12304 -1.18946,0 -1.74317,-0.42041 -0.55371,-0.43066 -0.68701,-1.09716 -0.1333,-0.66651 -0.1333,-1.81494 v -6.17286 h -1.34326 v -1.51757 h 1.34326 v -2.70704 h 1.92774 v 2.70704 h 1.76367 v 1.51757 h -1.76367 v 6.27539 q 0,1.11768 0.27685,1.4253 0.28711,0.29736 0.7793,0.29736 0.50244,0 0.96386,-0.082 z"
         id="path484"
         inkscape:connector-curvature="0" />
      <path
         d="m 247.55957,257.25635 q -3.18896,0 -5.09619,-2.0918 -1.89697,-2.10205 -1.89697,-5.68066 0,-3.57862 1.89697,-5.67041 1.90723,-2.10205 5.09619,-2.10205 2.45068,0 4.17334,1.32275 1.72266,1.32275 1.93799,3.48633 h -2.05078 q -0.12305,-1.4253 -1.24073,-2.26612 -1.10742,-0.84082 -2.79931,-0.84082 -2.28662,0 -3.61963,1.57911 -1.33301,1.56884 -1.33301,4.49121 0,2.91211 1.32276,4.49121 1.32275,1.5791 3.58886,1.5791 1.76367,0 2.85059,-0.86133 1.08691,-0.86133 1.23047,-2.46094 h 2.05078 q -0.21533,2.39942 -1.88672,3.71192 -1.67139,1.3125 -4.22461,1.3125 z"
         id="path486"
         inkscape:connector-curvature="0" />
      <path
         d="m 260.59229,245.87451 q 2.32763,0 3.71191,1.48682 1.39453,1.48681 1.39453,4.2041 0,2.70703 -1.39453,4.2041 -1.38428,1.48682 -3.71191,1.48682 -2.31739,0 -3.71192,-1.48682 -1.38428,-1.49707 -1.38428,-4.2041 0,-2.71729 1.38428,-4.2041 1.39453,-1.48682 3.71192,-1.48682 z m 0,9.86426 q 1.38427,0 2.2456,-1.0459 0.86133,-1.05615 0.86133,-3.12744 0,-2.08154 -0.86133,-3.12744 -0.86133,-1.05615 -2.2456,-1.05615 -1.38428,0 -2.24561,1.05615 -0.86133,1.0459 -0.86133,3.12744 0,2.07129 0.86133,3.12744 0.86133,1.0459 2.24561,1.0459 z"
         id="path488"
         inkscape:connector-curvature="0" />
      <path
         d="m 269.81055,257 h -1.93799 v -15.03223 h 1.93799 z"
         id="path490"
         inkscape:connector-curvature="0" />
      <path
         d="m 276.99854,245.87451 q 2.32763,0 3.71191,1.48682 1.39453,1.48681 1.39453,4.2041 0,2.70703 -1.39453,4.2041 -1.38428,1.48682 -3.71191,1.48682 -2.31739,0 -3.71192,-1.48682 -1.38428,-1.49707 -1.38428,-4.2041 0,-2.71729 1.38428,-4.2041 1.39453,-1.48682 3.71192,-1.48682 z m 0,9.86426 q 1.38427,0 2.2456,-1.0459 0.86133,-1.05615 0.86133,-3.12744 0,-2.08154 -0.86133,-3.12744 -0.86133,-1.05615 -2.2456,-1.05615 -1.38428,0 -2.24561,1.05615 -0.86133,1.0459 -0.86133,3.12744 0,2.07129 0.86133,3.12744 0.86133,1.0459 2.24561,1.0459 z"
         id="path492"
         inkscape:connector-curvature="0" />
      <path
         d="m 289.92871,247.88428 q -0.41016,-0.12305 -1.1792,-0.12305 -1.47656,0 -2.53271,1.54834 V 257 h -1.93799 v -10.87939 h 1.93799 v 1.51757 q 1.22021,-1.76367 2.83007,-1.76367 0.41016,0 0.88184,0.082 z"
         id="path494"
         inkscape:connector-curvature="0" />
    </g>
    <circle
       id="425"
       cy="356"
       cx="196"
       style="opacity:1;fill:none;stroke:#000000;stroke-width:6;stroke-linecap:butt;stroke-linejoin:miter;stroke-miterlimit:9"
       r="30" />
    <circle
       id="426"
       cy="356"
       cx="196"
       style="opacity:1;fill:#ffffff;stroke:none"
       r="30" />
    <g
       aria-label="T"
       style="font-size:21px;font-family:'Microsoft Sans Serif';text-anchor:middle;opacity:1;fill:#000000;stroke:none"
       id="427">
      <path
         d="m 201.94727,350.22529 h -4.97315 v 13.24805 h -1.99951 v -13.24805 h -4.93213 v -1.78418 h 11.90479 z"
         id="path447"
         inkscape:connector-curvature="0" />
    </g>
    <g
       aria-label="Threshold"
       clip-path="url(#433_text_clipper)"
       style="font-size:21px;font-family:'Microsoft Sans Serif';opacity:1;fill:#000000;stroke:none"
       id="431">
      <path
         d="m 178.36621,403.75195 h -4.97314 V 417 h -1.99952 v -13.24805 h -4.93212 v -1.78418 h 11.90478 z"
         id="path428"
         inkscape:connector-curvature="0" />
      <path
         d="m 182.20117,407.50488 q 1.4458,-1.63037 3.25049,-1.63037 3.68115,0 3.68115,4.00928 V 417 h -1.93799 v -7.03418 q 0,-1.33301 -0.48193,-1.91748 -0.47168,-0.58447 -1.55859,-0.58447 -1.47657,0 -2.95313,1.74316 V 417 h -1.93799 v -15.03223 h 1.93799 z"
         id="path430"
         inkscape:connector-curvature="0" />
      <path
         d="m 197.60254,407.88428 q -0.41016,-0.12305 -1.1792,-0.12305 -1.47656,0 -2.53272,1.54834 V 417 h -1.93798 v -10.87939 h 1.93798 v 1.51757 q 1.22022,-1.76367 2.83008,-1.76367 0.41016,0 0.88184,0.082 z"
         id="path432"
         inkscape:connector-curvature="0" />
      <path
         d="m 203.59082,417.25635 q -2.39941,0 -3.85547,-1.49707 -1.45605,-1.50733 -1.45605,-4.19385 0,-2.66602 1.40478,-4.17334 1.41504,-1.51758 3.69141,-1.51758 2.32763,0 3.71191,1.48682 1.39453,1.48681 1.39453,4.2041 v 0.46143 h -8.19287 q 0.12305,1.88671 1.03565,2.79931 0.92285,0.9126 2.26611,0.9126 1.01514,0 1.8252,-0.5127 0.82031,-0.52295 0.86132,-1.47656 h 1.99952 q -0.22559,1.68164 -1.52784,2.59424 -1.29199,0.9126 -3.1582,0.9126 z m 2.85059,-6.74707 q -0.23584,-1.56885 -1.05616,-2.34815 -0.82031,-0.77929 -2.00976,-0.77929 -1.15869,0 -1.98926,0.77929 -0.83057,0.76905 -1.05615,2.34815 z"
         id="path434"
         inkscape:connector-curvature="0" />
      <path
         d="m 214.54199,417.25635 q -4.46045,0 -4.66553,-3.50684 h 1.93799 q 0.0205,1.98926 2.70703,1.98926 1.19971,0 1.8252,-0.49219 0.63574,-0.50244 0.63574,-1.25097 0,-0.73829 -0.61523,-1.03565 -0.61524,-0.30762 -2.54297,-0.78955 -1.91748,-0.48193 -2.80957,-1.07666 -0.88184,-0.59473 -0.88184,-2.0918 0,-1.35351 1.09717,-2.23535 1.10742,-0.89209 2.95313,-0.89209 4.27587,0 4.36816,3.04541 h -1.92773 q -0.10254,-1.53808 -2.30713,-1.53808 -0.97412,0 -1.62012,0.36914 -0.63574,0.36914 -0.63574,1.07666 0,0.63574 0.49218,0.92285 0.49219,0.27685 2.46094,0.75879 1.97901,0.47168 2.93262,1.10742 0.96387,0.63574 0.96387,2.19434 0,1.48681 -1.18946,2.47119 -1.1792,0.97412 -3.17871,0.97412 z"
         id="path436"
         inkscape:connector-curvature="0" />
      <path
         d="m 223.09375,407.50488 q 1.4458,-1.63037 3.25049,-1.63037 3.68115,0 3.68115,4.00928 V 417 h -1.93799 v -7.03418 q 0,-1.33301 -0.48193,-1.91748 -0.47168,-0.58447 -1.5586,-0.58447 -1.47656,0 -2.95312,1.74316 V 417 h -1.93799 v -15.03223 h 1.93799 z"
         id="path438"
         inkscape:connector-curvature="0" />
      <path
         d="m 237.25439,405.87451 q 2.32764,0 3.71192,1.48682 1.39453,1.48681 1.39453,4.2041 0,2.70703 -1.39453,4.2041 -1.38428,1.48682 -3.71192,1.48682 -2.31738,0 -3.71191,-1.48682 -1.38428,-1.49707 -1.38428,-4.2041 0,-2.71729 1.38428,-4.2041 1.39453,-1.48682 3.71191,-1.48682 z m 0,9.86426 q 1.38428,0 2.24561,-1.0459 0.86133,-1.05615 0.86133,-3.12744 0,-2.08154 -0.86133,-3.12744 -0.86133,-1.05615 -2.24561,-1.05615 -1.38427,0 -2.2456,1.05615 -0.86133,1.0459 -0.86133,3.12744 0,2.07129 0.86133,3.12744 0.86133,1.0459 2.2456,1.0459 z"
         id="path440"
         inkscape:connector-curvature="0" />
      <path
         d="m 246.47266,417 h -1.93799 v -15.03223 h 1.93799 z"
         id="path442"
         inkscape:connector-curvature="0" />
      <path
         d="m 256.14209,413.87256 v -5.16797 q -1.25098,-1.32275 -2.86084,-1.32275 -1.24072,0 -1.98926,1.07666 -0.73828,1.0664 -0.73828,3.18896 0,2.00977 0.69727,3.05566 0.70752,1.03565 1.94824,1.03565 1.62012,0 2.94287,-1.86621 z m 0,1.82519 q -1.29199,1.5586 -3.10693,1.5586 -2.13282,0 -3.30176,-1.51758 -1.16895,-1.51758 -1.16895,-4.09131 0,-2.66601 1.30225,-4.21435 1.3125,-1.5586 3.2915,-1.5586 1.76367,0 2.98389,1.08692 v -4.99366 h 1.92773 V 417 h -1.92773 z"
         id="path444"
         inkscape:connector-curvature="0" />
    </g>
    <circle
       id="437"
       cy="36"
       cx="36"
       style="opacity:1;fill:none;stroke:#000000;stroke-width:6;stroke-linecap:butt;stroke-linejoin:miter;stroke-miterlimit:9"
       r="30" />
    <circle
       id="438"
       cy="36"
       cx="36"
       style="opacity:1;fill:#ee82ee;stroke:none"
       r="30" />
    <g
       aria-label="C"
       style="font-size:21px;font-family:'Microsoft Sans Serif';text-anchor:middle;opacity:1;fill:#000000;stroke:none"
       id="439">
      <path
         d="m 36.389648,43.729682 q -3.188964,0 -5.096191,-2.091796 -1.896973,-2.102051 -1.896973,-5.680664 0,-3.578614 1.896973,-5.670411 1.907227,-2.10205 5.096191,-2.10205 2.450684,0 4.17334,1.322753 1.722657,1.322754 1.937989,3.486329 h -2.050782 q -0.123047,-1.425293 -1.240722,-2.266114 -1.107422,-0.84082 -2.799317,-0.84082 -2.286621,0 -3.619629,1.579102 -1.333007,1.568847 -1.333007,4.491211 0,2.912109 1.322753,4.49121 1.322754,1.579102 3.588868,1.579102 1.763671,0 2.850586,-0.861328 1.086914,-0.861328 1.230468,-2.460938 h 2.050782 q -0.215332,2.399414 -1.886719,3.711914 -1.671387,1.3125 -4.22461,1.3125 z"
         id="path563"
         inkscape:connector-curvature="0" />
    </g>
    <g
       aria-label="Camera"
       clip-path="url(#445_text_clipper)"
       style="font-size:21px;font-family:'Microsoft Sans Serif';opacity:1;fill:#000000;stroke:none"
       id="443">
      <path
         d="m 13.977539,97.256348 q -3.188965,0 -5.0961913,-2.091797 Q 6.984375,93.0625 6.984375,89.483887 q 0,-3.578614 1.8969727,-5.67041 1.9072263,-2.102051 5.0961913,-2.102051 2.450684,0 4.17334,1.322754 1.722656,1.322754 1.937988,3.486328 h -2.050781 q -0.123047,-1.425293 -1.240723,-2.266113 -1.107422,-0.840821 -2.799316,-0.840821 -2.286621,0 -3.619629,1.579102 -1.3330078,1.568847 -1.3330078,4.491211 0,2.912109 1.3227538,4.491211 1.322754,1.579101 3.588867,1.579101 1.763672,0 2.850586,-0.861328 1.086914,-0.861328 1.230469,-2.460937 h 2.050781 q -0.215332,2.399414 -1.886719,3.711914 -1.671386,1.3125 -4.224609,1.3125 z"
         id="path518"
         inkscape:connector-curvature="0" />
      <path
         d="m 29.491699,94.13916 v -2.409668 h -1.322754 q -4.204101,0 -4.204101,2.286621 0,0.830567 0.615234,1.281739 0.615234,0.440918 1.661133,0.440918 0.953613,0 1.845703,-0.430665 0.89209,-0.430664 1.404785,-1.168945 z m 0,1.743164 q -1.476562,1.374024 -3.804199,1.374024 -1.620117,0 -2.666016,-0.871582 -1.045898,-0.881836 -1.045898,-2.266114 0,-3.814453 6.572754,-3.814453 h 0.943359 q 0,-1.168945 -0.123047,-1.691894 -0.123047,-0.533203 -0.687011,-0.881836 -0.563965,-0.348633 -1.794434,-0.348633 -2.583984,0 -2.666016,1.845703 h -1.927734 q 0.215332,-3.353027 4.696289,-3.353027 2.091797,0 3.260742,0.830566 1.168946,0.830567 1.168946,3.260742 V 97 h -1.927735 z"
         id="path520"
         inkscape:connector-curvature="0" />
      <path
         d="m 48.994629,97 h -1.937988 v -7.03418 q 0,-1.353515 -0.389649,-1.927734 -0.389648,-0.574219 -1.302246,-0.574219 -1.404785,0 -2.758301,1.743164 V 97 h -1.927734 v -7.03418 q 0,-1.353515 -0.389649,-1.927734 -0.389648,-0.574219 -1.3125,-0.574219 -1.404785,0 -2.748046,1.743164 V 97 H 34.290527 V 86.120605 h 1.937989 v 1.384278 q 1.374023,-1.630371 3.04541,-1.630371 2.38916,0 3.04541,1.96875 1.086914,-1.281739 1.845703,-1.620117 0.758789,-0.348633 1.486816,-0.348633 3.342774,0 3.342774,4.009277 z"
         id="path522"
         inkscape:connector-curvature="0" />
      <path
         d="m 56.428711,97.256348 q -2.399414,0 -3.855469,-1.497071 -1.456055,-1.507324 -1.456055,-4.193847 0,-2.666016 1.404786,-4.17334 1.415039,-1.517578 3.691406,-1.517578 2.327637,0 3.711914,1.486816 1.394531,1.486817 1.394531,4.204102 v 0.461425 h -8.192871 q 0.123047,1.886719 1.035645,2.799317 0.922851,0.912598 2.266113,0.912598 1.015137,0 1.825195,-0.512696 0.820313,-0.522949 0.861328,-1.476562 h 1.999512 q -0.225586,1.68164 -1.527832,2.594238 -1.291992,0.912598 -3.158203,0.912598 z m 2.850586,-6.747071 q -0.23584,-1.568847 -1.056152,-2.348144 -0.820313,-0.779297 -2.009766,-0.779297 -1.158692,0 -1.989258,0.779297 -0.830566,0.769043 -1.056152,2.348144 z"
         id="path524"
         inkscape:connector-curvature="0" />
      <path
         d="m 69.143555,87.884277 q -0.410157,-0.123047 -1.1792,-0.123047 -1.476562,0 -2.532714,1.54834 V 97 H 63.493652 V 86.120605 h 1.937989 v 1.517579 q 1.220214,-1.763672 2.830078,-1.763672 0.410156,0 0.881836,0.08203 z"
         id="path526"
         inkscape:connector-curvature="0" />
      <path
         d="m 77.397949,94.13916 v -2.409668 h -1.322754 q -4.204101,0 -4.204101,2.286621 0,0.830567 0.615234,1.281739 0.615234,0.440918 1.661133,0.440918 0.953613,0 1.845703,-0.430665 0.89209,-0.430664 1.404785,-1.168945 z m 0,1.743164 q -1.476562,1.374024 -3.804199,1.374024 -1.620117,0 -2.666016,-0.871582 -1.045898,-0.881836 -1.045898,-2.266114 0,-3.814453 6.572754,-3.814453 h 0.943359 q 0,-1.168945 -0.123047,-1.691894 -0.123047,-0.533203 -0.687011,-0.881836 -0.563965,-0.348633 -1.794434,-0.348633 -2.583984,0 -2.666016,1.845703 h -1.927734 q 0.215332,-3.353027 4.696289,-3.353027 2.091797,0 3.260742,0.830566 1.168946,0.830567 1.168946,3.260742 V 97 h -1.927735 z"
         id="path528"
         inkscape:connector-curvature="0" />
    </g>
    <g
       aria-label="Capture"
       clip-path="url(#451_text_clipper)"
       style="font-size:21px;font-family:'Microsoft Sans Serif';opacity:1;fill:#000000;stroke:none"
       id="449">
      <path
         d="m 13.977539,121.02634 q -3.188965,0 -5.0961913,-2.09179 -1.8969727,-2.10205 -1.8969727,-5.68067 0,-3.57861 1.8969727,-5.67041 1.9072263,-2.10205 5.0961913,-2.10205 2.450684,0 4.17334,1.32276 1.722656,1.32275 1.937988,3.48632 h -2.050781 q -0.123047,-1.42529 -1.240723,-2.26611 -1.107422,-0.84082 -2.799316,-0.84082 -2.286621,0 -3.619629,1.5791 -1.3330078,1.56885 -1.3330078,4.49121 0,2.91211 1.3227538,4.49121 1.322754,1.57911 3.588867,1.57911 1.763672,0 2.850586,-0.86133 1.086914,-0.86133 1.230469,-2.46094 h 2.050781 q -0.215332,2.39941 -1.886719,3.71191 -1.671386,1.3125 -4.224609,1.3125 z"
         id="path503"
         inkscape:connector-curvature="0" />
      <path
         d="m 29.491699,117.90916 v -2.40967 h -1.322754 q -4.204101,0 -4.204101,2.28662 0,0.83057 0.615234,1.28174 0.615234,0.44092 1.661133,0.44092 0.953613,0 1.845703,-0.43067 0.89209,-0.43066 1.404785,-1.16894 z m 0,1.74316 q -1.476562,1.37402 -3.804199,1.37402 -1.620117,0 -2.666016,-0.87158 -1.045898,-0.88183 -1.045898,-2.26611 0,-3.81445 6.572754,-3.81445 h 0.943359 q 0,-1.16895 -0.123047,-1.6919 -0.123047,-0.5332 -0.687011,-0.88183 -0.563965,-0.34864 -1.794434,-0.34864 -2.583984,0 -2.666016,1.84571 h -1.927734 q 0.215332,-3.35303 4.696289,-3.35303 2.091797,0 3.260742,0.83056 1.168946,0.83057 1.168946,3.26075 V 120.77 h -1.927735 z"
         id="path505"
         inkscape:connector-curvature="0" />
      <path
         d="m 36.228516,111.19285 q 1.291992,-1.54834 3.106933,-1.54834 2.132813,0 3.301758,1.51758 1.168945,1.50732 1.168945,4.08105 0,2.67627 -1.3125,4.23486 -1.302246,1.54834 -3.291504,1.54834 -1.763671,0 -2.973632,-1.09716 v 5.02441 H 34.290527 V 109.8906 h 1.937989 z m 0,6.99316 q 1.240722,1.32276 2.850586,1.32276 1.250976,0 1.989257,-1.06641 0.738282,-1.07666 0.738282,-3.19922 0,-2.00976 -0.697266,-3.04541 -0.697266,-1.0459 -1.948242,-1.0459 -1.609863,0 -2.932617,1.86621 z"
         id="path507"
         inkscape:connector-curvature="0" />
      <path
         d="m 50.20459,120.7905 q -0.635742,0.12305 -1.384278,0.12305 -1.189453,0 -1.743164,-0.42041 -0.553711,-0.43066 -0.687011,-1.09717 -0.133301,-0.6665 -0.133301,-1.81494 v -6.17285 h -1.343262 v -1.51758 h 1.343262 v -2.70703 h 1.927734 v 2.70703 h 1.763672 v 1.51758 H 48.18457 v 6.27539 q 0,1.11768 0.276856,1.42529 0.287109,0.29737 0.779297,0.29737 0.502441,0 0.963867,-0.082 z"
         id="path509"
         inkscape:connector-curvature="0" />
      <path
         d="m 58.694824,119.38572 q -1.445801,1.64062 -3.250488,1.64062 -3.681152,0 -3.681152,-4.01953 v -7.11621 h 1.937988 v 7.03418 q 0,1.33301 0.47168,1.91748 0.471679,0.58447 1.558593,0.58447 1.620117,0 2.963379,-1.74316 v -7.79297 h 1.927735 V 120.77 h -1.927735 z"
         id="path511"
         inkscape:connector-curvature="0" />
      <path
         d="m 69.143555,111.65427 q -0.410157,-0.12304 -1.1792,-0.12304 -1.476562,0 -2.532714,1.54834 V 120.77 h -1.937989 v -10.8794 h 1.937989 v 1.51758 q 1.220214,-1.76367 2.830078,-1.76367 0.410156,0 0.881836,0.082 z"
         id="path513"
         inkscape:connector-curvature="0" />
      <path
         d="m 75.131836,121.02634 q -2.399414,0 -3.855469,-1.49707 -1.456055,-1.50732 -1.456055,-4.19384 0,-2.66602 1.404786,-4.17334 1.415039,-1.51758 3.691406,-1.51758 2.327637,0 3.711914,1.48681 1.394531,1.48682 1.394531,4.20411 v 0.46142 h -8.192871 q 0.123047,1.88672 1.035645,2.79932 0.922851,0.9126 2.266113,0.9126 1.015137,0 1.825195,-0.5127 0.820313,-0.52295 0.861328,-1.47656 h 1.999512 q -0.225586,1.68164 -1.527832,2.59424 -1.291992,0.91259 -3.158203,0.91259 z m 2.850586,-6.74707 q -0.23584,-1.56884 -1.056152,-2.34814 -0.820313,-0.7793 -2.009766,-0.7793 -1.158692,0 -1.989258,0.7793 -0.830566,0.76904 -1.056152,2.34814 z"
         id="path515"
         inkscape:connector-curvature="0" />
    </g>
    <line
       y1="36"
       style="opacity:1;fill:none;stroke:#000000;stroke-width:2;stroke-linecap:butt;stroke-linejoin:miter;stroke-miterlimit:9"
       id="455"
       x2="163"
       y2="36"
       x1="69" />
    <circle
       id="456"
       cy="196"
       cx="36"
       style="opacity:1;fill:none;stroke:#000000;stroke-width:6;stroke-linecap:butt;stroke-linejoin:miter;stroke-miterlimit:9"
       r="30" />
    <circle
       id="457"
       cy="196"
       cx="36"
       style="opacity:1;fill:#ee82ee;stroke:none"
       r="30" />
    <g
       aria-label="S"
       style="font-size:21px;font-family:'Microsoft Sans Serif';text-anchor:middle;opacity:1;fill:#000000;stroke:none"
       id="458">
      <path
         d="m 36.338379,203.72969 q -3.178711,0 -4.757813,-1.4253 -1.568847,-1.42529 -1.650879,-3.66064 h 1.917481 q 0.153809,1.68164 1.394531,2.4917 1.250977,0.7998 3.014649,0.7998 1.671386,0 2.686523,-0.68701 1.025391,-0.68701 1.025391,-1.86621 0,-1.24072 -1.056153,-1.80469 -1.056152,-0.56396 -3.640136,-1.10742 -2.573731,-0.55371 -3.701661,-1.52783 -1.117675,-0.97412 -1.117675,-2.59424 0,-1.82519 1.456054,-2.99414 1.466309,-1.16895 3.886231,-1.16895 2.542969,0 4.101562,1.1792 1.558594,1.1792 1.650879,3.33252 h -1.937988 q -0.297363,-2.72754 -3.732422,-2.72754 -1.661133,0 -2.57373,0.62549 -0.912598,0.62549 -0.912598,1.66114 0,0.94335 0.728027,1.41503 0.738282,0.47168 2.737793,0.9126 2.009766,0.44092 3.188965,0.87158 1.179199,0.43067 2.02002,1.34327 0.84082,0.90234 0.84082,2.43017 0,1.93799 -1.54834,3.21973 -1.538086,1.28174 -4.019531,1.28174 z"
         id="path500"
         inkscape:connector-curvature="0" />
    </g>
    <g
       aria-label="Subscribe"
       clip-path="url(#464_text_clipper)"
       style="font-size:21px;font-family:'Microsoft Sans Serif';opacity:1;fill:#000000;stroke:none"
       id="462">
      <path
         d="m 13.352051,257.25635 q -3.178711,0 -4.7578127,-1.4253 -1.5688477,-1.42529 -1.6508789,-3.66064 h 1.9174804 q 0.1538086,1.68164 1.3945312,2.4917 1.250977,0.7998 3.014649,0.7998 1.671386,0 2.686523,-0.68701 1.025391,-0.68701 1.025391,-1.86621 0,-1.24072 -1.056153,-1.80469 -1.056152,-0.56396 -3.640136,-1.10742 -2.5737309,-0.55371 -3.7016606,-1.52783 -1.1176758,-0.97412 -1.1176758,-2.59424 0,-1.82519 1.4560547,-2.99414 1.4663087,-1.16894 3.8862307,-1.16894 2.542969,0 4.101562,1.17919 1.558594,1.1792 1.650879,3.33252 h -1.937988 q -0.297363,-2.72753 -3.732422,-2.72753 -1.661133,0 -2.57373,0.62548 -0.9125981,0.62549 -0.9125981,1.66114 0,0.94336 0.7280271,1.41504 0.738281,0.47168 2.737793,0.91259 2.009766,0.44092 3.188965,0.87159 1.179199,0.43066 2.02002,1.34326 0.84082,0.90234 0.84082,2.43017 0,1.93799 -1.54834,3.21973 -1.538086,1.28174 -4.019531,1.28174 z"
         id="path453"
         inkscape:connector-curvature="0" />
      <path
         d="m 28.343262,255.61572 q -1.445801,1.64063 -3.250489,1.64063 -3.681152,0 -3.681152,-4.01953 v -7.11621 h 1.937988 v 7.03418 q 0,1.333 0.47168,1.91748 0.47168,0.58447 1.558594,0.58447 1.620117,0 2.963379,-1.74317 v -7.79296 h 1.927734 V 257 h -1.927734 z"
         id="path455"
         inkscape:connector-curvature="0" />
      <path
         d="m 35.080078,247.42285 q 1.291992,-1.54834 3.106934,-1.54834 2.132812,0 3.301758,1.51758 1.168945,1.50732 1.168945,4.08105 0,2.67627 -1.3125,4.23487 -1.302246,1.54834 -3.291504,1.54834 -1.763672,0 -2.973633,-1.09717 V 257 H 33.14209 v -15.03223 h 1.937988 z m 0,6.99317 q 1.240723,1.32275 2.850586,1.32275 1.250977,0 1.989258,-1.06641 0.738281,-1.07666 0.738281,-3.19922 0,-2.00976 -0.697266,-3.04541 -0.697265,-1.04589 -1.948242,-1.04589 -1.609863,0 -2.932617,1.86621 z"
         id="path457"
         inkscape:connector-curvature="0" />
      <path
         d="m 48.717773,257.25635 q -4.460449,0 -4.665527,-3.50684 h 1.937988 q 0.02051,1.98926 2.707032,1.98926 1.199707,0 1.825195,-0.49219 0.635742,-0.50244 0.635742,-1.25097 0,-0.73829 -0.615234,-1.03565 Q 49.927734,252.65234 48,252.17041 q -1.91748,-0.48193 -2.80957,-1.07666 -0.881836,-0.59473 -0.881836,-2.0918 0,-1.35351 1.097168,-2.23535 1.107422,-0.89209 2.953125,-0.89209 4.275879,0 4.368164,3.04541 h -1.927735 q -0.102539,-1.53808 -2.307129,-1.53808 -0.974121,0 -1.620117,0.36914 -0.635742,0.36914 -0.635742,1.07666 0,0.63574 0.492188,0.92285 0.492187,0.27685 2.460937,0.75879 1.979004,0.47168 2.932617,1.10742 0.963867,0.63574 0.963867,2.19434 0,1.48681 -1.189453,2.47119 -1.179199,0.97412 -3.178711,0.97412 z"
         id="path459"
         inkscape:connector-curvature="0" />
      <path
         d="m 59.740723,257.25635 q -2.317383,0 -3.711914,-1.48682 -1.384278,-1.49707 -1.384278,-4.2041 0,-2.71729 1.384278,-4.2041 1.394531,-1.48682 3.711914,-1.48682 1.784179,0 2.973632,0.90235 1.199707,0.90234 1.41504,2.60449 h -1.989258 q -0.04102,-0.97412 -0.738282,-1.48682 -0.687011,-0.51269 -1.661132,-0.51269 -1.384278,0 -2.245606,1.05615 -0.861328,1.0459 -0.861328,3.12744 0,2.07129 0.861328,3.12744 0.861328,1.0459 2.245606,1.0459 0.974121,0 1.661132,-0.5127 0.697266,-0.51269 0.738282,-1.47656 h 1.989258 q -0.215333,1.70215 -1.41504,2.60449 -1.189453,0.90235 -2.973632,0.90235 z"
         id="path461"
         inkscape:connector-curvature="0" />
      <path
         d="m 71.481445,247.88428 q -0.410156,-0.12305 -1.179199,-0.12305 -1.476562,0 -2.532715,1.54834 V 257 h -1.937988 v -10.87939 h 1.937988 v 1.51757 q 1.220215,-1.76367 2.830078,-1.76367 0.410157,0 0.881836,0.082 z"
         id="path463"
         inkscape:connector-curvature="0" />
      <path
         d="m 74.783203,257 h -1.937988 v -10.87939 h 1.937988 z m 0,-12.94043 h -1.937988 v -2.0918 h 1.937988 z"
         id="path465"
         inkscape:connector-curvature="0" />
      <path
         d="m 79.5,247.42285 q 1.291992,-1.54834 3.106934,-1.54834 2.132812,0 3.301757,1.51758 1.168946,1.50732 1.168946,4.08105 0,2.67627 -1.3125,4.23487 -1.302246,1.54834 -3.291504,1.54834 -1.763672,0 -2.973633,-1.09717 V 257 H 77.562012 V 241.96777 H 79.5 Z m 0,6.99317 q 1.240723,1.32275 2.850586,1.32275 1.250976,0 1.989258,-1.06641 0.738281,-1.07666 0.738281,-3.19922 0,-2.00976 -0.697266,-3.04541 -0.697265,-1.04589 -1.948242,-1.04589 -1.609863,0 -2.932617,1.86621 z"
         id="path467"
         inkscape:connector-curvature="0" />
      <path
         d="m 93.875977,257.25635 q -2.399415,0 -3.855469,-1.49707 -1.456055,-1.50733 -1.456055,-4.19385 0,-2.66602 1.404785,-4.17334 1.415039,-1.51758 3.691407,-1.51758 2.327636,0 3.711914,1.48682 1.394531,1.48681 1.394531,4.2041 v 0.46143 h -8.192871 q 0.123047,1.88671 1.035644,2.79931 0.922852,0.9126 2.266114,0.9126 1.015136,0 1.825195,-0.5127 0.820312,-0.52295 0.861328,-1.47656 h 1.999512 q -0.225586,1.68164 -1.527832,2.59424 -1.291993,0.9126 -3.158203,0.9126 z m 2.850585,-6.74707 q -0.235839,-1.56885 -1.056152,-2.34815 -0.820312,-0.77929 -2.009765,-0.77929 -1.158692,0 -1.989258,0.77929 -0.830567,0.76905 -1.056153,2.34815 z"
         id="path469"
         inkscape:connector-curvature="0" />
    </g>
    <g
       aria-label="Subject"
       clip-path="url(#470_text_clipper)"
       style="font-size:21px;font-family:'Microsoft Sans Serif';opacity:1;fill:#000000;stroke:none"
       id="468">
      <path
         d="m 13.352051,281.02634 q -3.178711,0 -4.7578127,-1.4253 -1.5688477,-1.42529 -1.6508789,-3.66064 h 1.9174804 q 0.1538086,1.68164 1.3945312,2.4917 1.250977,0.7998 3.014649,0.7998 1.671386,0 2.686523,-0.68701 1.025391,-0.68701 1.025391,-1.86621 0,-1.24072 -1.056153,-1.80469 -1.056152,-0.56396 -3.640136,-1.10742 -2.5737309,-0.55371 -3.7016606,-1.52783 -1.1176758,-0.97412 -1.1176758,-2.59424 0,-1.82519 1.4560547,-2.99414 1.4663087,-1.16895 3.8862307,-1.16895 2.542969,0 4.101562,1.1792 1.558594,1.1792 1.650879,3.33252 h -1.937988 q -0.297363,-2.72754 -3.732422,-2.72754 -1.661133,0 -2.57373,0.62549 -0.9125981,0.62549 -0.9125981,1.66114 0,0.94335 0.7280271,1.41503 0.738281,0.47168 2.737793,0.9126 2.009766,0.44092 3.188965,0.87158 1.179199,0.43067 2.02002,1.34327 0.84082,0.90234 0.84082,2.43017 0,1.93799 -1.54834,3.21973 -1.538086,1.28174 -4.019531,1.28174 z"
         id="path379"
         inkscape:connector-curvature="0" />
      <path
         d="m 28.343262,279.38571 q -1.445801,1.64063 -3.250489,1.64063 -3.681152,0 -3.681152,-4.01953 v -7.11622 h 1.937988 v 7.03418 q 0,1.33301 0.47168,1.91748 0.47168,0.58448 1.558594,0.58448 1.620117,0 2.963379,-1.74317 v -7.79297 h 1.927734 v 10.8794 h -1.927734 z"
         id="path381"
         inkscape:connector-curvature="0" />
      <path
         d="m 35.080078,271.19284 q 1.291992,-1.54834 3.106934,-1.54834 2.132812,0 3.301758,1.51758 1.168945,1.50732 1.168945,4.08105 0,2.67627 -1.3125,4.23487 -1.302246,1.54834 -3.291504,1.54834 -1.763672,0 -2.973633,-1.09717 v 0.84082 H 33.14209 v -15.03223 h 1.937988 z m 0,6.99316 q 1.240723,1.32276 2.850586,1.32276 1.250977,0 1.989258,-1.06641 0.738281,-1.07666 0.738281,-3.19922 0,-2.00976 -0.697266,-3.04541 -0.697265,-1.0459 -1.948242,-1.0459 -1.609863,0 -2.932617,1.86622 z"
         id="path383"
         inkscape:connector-curvature="0" />
      <path
         d="m 46.769531,281.35446 q 0,2.33789 -0.738281,3.06592 -0.738281,0.73828 -2.061035,0.73828 -0.789551,0 -1.302246,-0.10254 v -1.64062 q 0.553711,0.14355 1.07666,0.14355 0.635742,0 0.861328,-0.45117 0.225586,-0.44092 0.225586,-1.79443 v -11.42286 h 1.937988 z m 0,-13.5249 h -1.937988 v -2.0918 h 1.937988 z"
         id="path385"
         inkscape:connector-curvature="0" />
      <path
         d="m 54.172852,281.02634 q -2.399415,0 -3.855469,-1.49707 -1.456055,-1.50733 -1.456055,-4.19385 0,-2.66602 1.404785,-4.17334 1.415039,-1.51758 3.691407,-1.51758 2.327636,0 3.711914,1.48682 1.394531,1.48681 1.394531,4.2041 v 0.46142 h -8.192871 q 0.123047,1.88672 1.035644,2.79932 0.922852,0.9126 2.266114,0.9126 1.015136,0 1.825195,-0.5127 0.820312,-0.52295 0.861328,-1.47656 h 1.999512 q -0.225586,1.68164 -1.527832,2.59424 -1.291993,0.9126 -3.158203,0.9126 z m 2.850585,-6.74707 q -0.235839,-1.56885 -1.056152,-2.34815 -0.820312,-0.7793 -2.009765,-0.7793 -1.158692,0 -1.989258,0.7793 -0.830567,0.76904 -1.056153,2.34815 z"
         id="path387"
         inkscape:connector-curvature="0" />
      <path
         d="m 65.646973,281.02634 q -2.317383,0 -3.711914,-1.48682 -1.384278,-1.49707 -1.384278,-4.2041 0,-2.71729 1.384278,-4.2041 1.394531,-1.48682 3.711914,-1.48682 1.784179,0 2.973632,0.90234 1.199707,0.90235 1.41504,2.6045 h -1.989258 q -0.04102,-0.97412 -0.738282,-1.48682 -0.687011,-0.5127 -1.661132,-0.5127 -1.384278,0 -2.245606,1.05616 -0.861328,1.0459 -0.861328,3.12744 0,2.07129 0.861328,3.12744 0.861328,1.0459 2.245606,1.0459 0.974121,0 1.661132,-0.5127 0.697266,-0.51269 0.738282,-1.47656 h 1.989258 q -0.215333,1.70215 -1.41504,2.60449 -1.189453,0.90235 -2.973632,0.90235 z"
         id="path389"
         inkscape:connector-curvature="0" />
      <path
         d="m 75.962402,280.7905 q -0.635742,0.12304 -1.384277,0.12304 -1.189453,0 -1.743164,-0.42041 -0.553711,-0.43066 -0.687012,-1.09716 -0.133301,-0.66651 -0.133301,-1.81495 v -6.17285 h -1.343261 v -1.51758 h 1.343261 v -2.70703 h 1.927735 v 2.70703 h 1.763672 v 1.51758 h -1.763672 v 6.27539 q 0,1.11768 0.276855,1.4253 0.28711,0.29736 0.779297,0.29736 0.502442,0 0.963867,-0.082 z"
         id="path391"
         inkscape:connector-curvature="0" />
    </g>
    <line
       y1="196"
       style="opacity:1;fill:none;stroke:#000000;stroke-width:2;stroke-linecap:butt;stroke-linejoin:miter;stroke-miterlimit:9"
       id="474"
       x2="163"
       y2="196"
       x1="69" />
    <circle
       id="475"
       cy="356"
       cx="36"
       style="opacity:1;fill:none;stroke:#000000;stroke-width:6;stroke-linecap:butt;stroke-linejoin:miter;stroke-miterlimit:9"
       r="30" />
    <circle
       id="476"
       cy="356"
       cx="36"
       style="opacity:1;fill:#ee82ee;stroke:none"
       r="30" />
    <g
       aria-label="S"
       style="font-size:21px;font-family:'Microsoft Sans Serif';text-anchor:middle;opacity:1;fill:#000000;stroke:none"
       id="477">
      <path
         d="m 36.338379,363.72969 q -3.178711,0 -4.757813,-1.4253 -1.568847,-1.42529 -1.650879,-3.66064 h 1.917481 q 0.153809,1.68164 1.394531,2.4917 1.250977,0.7998 3.014649,0.7998 1.671386,0 2.686523,-0.68701 1.025391,-0.68701 1.025391,-1.86621 0,-1.24072 -1.056153,-1.80469 -1.056152,-0.56396 -3.640136,-1.10742 -2.573731,-0.55371 -3.701661,-1.52783 -1.117675,-0.97412 -1.117675,-2.59424 0,-1.82519 1.456054,-2.99414 1.466309,-1.16895 3.886231,-1.16895 2.542969,0 4.101562,1.1792 1.558594,1.1792 1.650879,3.33252 h -1.937988 q -0.297363,-2.72754 -3.732422,-2.72754 -1.661133,0 -2.57373,0.62549 -0.912598,0.62549 -0.912598,1.66114 0,0.94335 0.728027,1.41503 0.738282,0.47168 2.737793,0.9126 2.009766,0.44092 3.188965,0.87158 1.179199,0.43067 2.02002,1.34327 0.84082,0.90234 0.84082,2.43017 0,1.93799 -1.54834,3.21973 -1.538086,1.28174 -4.019531,1.28174 z"
         id="path450"
         inkscape:connector-curvature="0" />
    </g>
    <g
       aria-label="Subscribe"
       clip-path="url(#483_text_clipper)"
       style="font-size:21px;font-family:'Microsoft Sans Serif';opacity:1;fill:#000000;stroke:none"
       id="481">
      <path
         d="m 13.352051,417.25635 q -3.178711,0 -4.7578127,-1.4253 -1.5688477,-1.42529 -1.6508789,-3.66064 h 1.9174804 q 0.1538086,1.68164 1.3945312,2.4917 1.250977,0.7998 3.014649,0.7998 1.671386,0 2.686523,-0.68701 1.025391,-0.68701 1.025391,-1.86621 0,-1.24072 -1.056153,-1.80469 -1.056152,-0.56396 -3.640136,-1.10742 -2.5737309,-0.55371 -3.7016606,-1.52783 -1.1176758,-0.97412 -1.1176758,-2.59424 0,-1.82519 1.4560547,-2.99414 1.4663087,-1.16894 3.8862307,-1.16894 2.542969,0 4.101562,1.17919 1.558594,1.1792 1.650879,3.33252 h -1.937988 q -0.297363,-2.72753 -3.732422,-2.72753 -1.661133,0 -2.57373,0.62548 -0.9125981,0.62549 -0.9125981,1.66114 0,0.94336 0.7280271,1.41504 0.738281,0.47168 2.737793,0.91259 2.009766,0.44092 3.188965,0.87159 1.179199,0.43066 2.02002,1.34326 0.84082,0.90234 0.84082,2.43017 0,1.93799 -1.54834,3.21973 -1.538086,1.28174 -4.019531,1.28174 z"
         id="path409"
         inkscape:connector-curvature="0" />
      <path
         d="m 28.343262,415.61572 q -1.445801,1.64063 -3.250489,1.64063 -3.681152,0 -3.681152,-4.01953 v -7.11621 h 1.937988 v 7.03418 q 0,1.333 0.47168,1.91748 0.47168,0.58447 1.558594,0.58447 1.620117,0 2.963379,-1.74317 v -7.79296 h 1.927734 V 417 h -1.927734 z"
         id="path411"
         inkscape:connector-curvature="0" />
      <path
         d="m 35.080078,407.42285 q 1.291992,-1.54834 3.106934,-1.54834 2.132812,0 3.301758,1.51758 1.168945,1.50732 1.168945,4.08105 0,2.67627 -1.3125,4.23487 -1.302246,1.54834 -3.291504,1.54834 -1.763672,0 -2.973633,-1.09717 V 417 H 33.14209 v -15.03223 h 1.937988 z m 0,6.99317 q 1.240723,1.32275 2.850586,1.32275 1.250977,0 1.989258,-1.06641 0.738281,-1.07666 0.738281,-3.19922 0,-2.00976 -0.697266,-3.04541 -0.697265,-1.04589 -1.948242,-1.04589 -1.609863,0 -2.932617,1.86621 z"
         id="path413"
         inkscape:connector-curvature="0" />
      <path
         d="m 48.717773,417.25635 q -4.460449,0 -4.665527,-3.50684 h 1.937988 q 0.02051,1.98926 2.707032,1.98926 1.199707,0 1.825195,-0.49219 0.635742,-0.50244 0.635742,-1.25097 0,-0.73829 -0.615234,-1.03565 Q 49.927734,412.65234 48,412.17041 q -1.91748,-0.48193 -2.80957,-1.07666 -0.881836,-0.59473 -0.881836,-2.0918 0,-1.35351 1.097168,-2.23535 1.107422,-0.89209 2.953125,-0.89209 4.275879,0 4.368164,3.04541 h -1.927735 q -0.102539,-1.53808 -2.307129,-1.53808 -0.974121,0 -1.620117,0.36914 -0.635742,0.36914 -0.635742,1.07666 0,0.63574 0.492188,0.92285 0.492187,0.27685 2.460937,0.75879 1.979004,0.47168 2.932617,1.10742 0.963867,0.63574 0.963867,2.19434 0,1.48681 -1.189453,2.47119 -1.179199,0.97412 -3.178711,0.97412 z"
         id="path415"
         inkscape:connector-curvature="0" />
      <path
         d="m 59.740723,417.25635 q -2.317383,0 -3.711914,-1.48682 -1.384278,-1.49707 -1.384278,-4.2041 0,-2.71729 1.384278,-4.2041 1.394531,-1.48682 3.711914,-1.48682 1.784179,0 2.973632,0.90235 1.199707,0.90234 1.41504,2.60449 h -1.989258 q -0.04102,-0.97412 -0.738282,-1.48682 -0.687011,-0.51269 -1.661132,-0.51269 -1.384278,0 -2.245606,1.05615 -0.861328,1.0459 -0.861328,3.12744 0,2.07129 0.861328,3.12744 0.861328,1.0459 2.245606,1.0459 0.974121,0 1.661132,-0.5127 0.697266,-0.51269 0.738282,-1.47656 h 1.989258 q -0.215333,1.70215 -1.41504,2.60449 -1.189453,0.90235 -2.973632,0.90235 z"
         id="path417"
         inkscape:connector-curvature="0" />
      <path
         d="m 71.481445,407.88428 q -0.410156,-0.12305 -1.179199,-0.12305 -1.476562,0 -2.532715,1.54834 V 417 h -1.937988 v -10.87939 h 1.937988 v 1.51757 q 1.220215,-1.76367 2.830078,-1.76367 0.410157,0 0.881836,0.082 z"
         id="path419"
         inkscape:connector-curvature="0" />
      <path
         d="m 74.783203,417 h -1.937988 v -10.87939 h 1.937988 z m 0,-12.94043 h -1.937988 v -2.0918 h 1.937988 z"
         id="path421"
         inkscape:connector-curvature="0" />
      <path
         d="m 79.5,407.42285 q 1.291992,-1.54834 3.106934,-1.54834 2.132812,0 3.301757,1.51758 1.168946,1.50732 1.168946,4.08105 0,2.67627 -1.3125,4.23487 -1.302246,1.54834 -3.291504,1.54834 -1.763672,0 -2.973633,-1.09717 V 417 H 77.562012 V 401.96777 H 79.5 Z m 0,6.99317 q 1.240723,1.32275 2.850586,1.32275 1.250976,0 1.989258,-1.06641 0.738281,-1.07666 0.738281,-3.19922 0,-2.00976 -0.697266,-3.04541 -0.697265,-1.04589 -1.948242,-1.04589 -1.609863,0 -2.932617,1.86621 z"
         id="path423"
         inkscape:connector-curvature="0" />
      <path
         d="m 93.875977,417.25635 q -2.399415,0 -3.855469,-1.49707 -1.456055,-1.50733 -1.456055,-4.19385 0,-2.66602 1.404785,-4.17334 1.415039,-1.51758 3.691407,-1.51758 2.327636,0 3.711914,1.48682 1.394531,1.48681 1.394531,4.2041 v 0.46143 h -8.192871 q 0.123047,1.88671 1.035644,2.79931 0.922852,0.9126 2.266114,0.9126 1.015136,0 1.825195,-0.5127 0.820312,-0.52295 0.861328,-1.47656 h 1.999512 q -0.225586,1.68164 -1.527832,2.59424 -1.291993,0.9126 -3.158203,0.9126 z m 2.850585,-6.74707 q -0.235839,-1.56885 -1.056152,-2.34815 -0.820312,-0.77929 -2.009765,-0.77929 -1.158692,0 -1.989258,0.77929 -0.830567,0.76905 -1.056153,2.34815 z"
         id="path425"
         inkscape:connector-curvature="0" />
    </g>
    <g
       aria-label="Subject"
       clip-path="url(#489_text_clipper)"
       style="font-size:21px;font-family:'Microsoft Sans Serif';opacity:1;fill:#000000;stroke:none"
       id="487">
      <path
         d="m 13.352051,441.02634 q -3.178711,0 -4.7578127,-1.4253 -1.5688477,-1.42529 -1.6508789,-3.66064 h 1.9174804 q 0.1538086,1.68164 1.3945312,2.4917 1.250977,0.7998 3.014649,0.7998 1.671386,0 2.686523,-0.68701 1.025391,-0.68701 1.025391,-1.86621 0,-1.24072 -1.056153,-1.80469 -1.056152,-0.56396 -3.640136,-1.10742 -2.5737309,-0.55371 -3.7016606,-1.52783 -1.1176758,-0.97412 -1.1176758,-2.59424 0,-1.82519 1.4560547,-2.99414 1.4663087,-1.16895 3.8862307,-1.16895 2.542969,0 4.101562,1.1792 1.558594,1.1792 1.650879,3.33252 h -1.937988 q -0.297363,-2.72754 -3.732422,-2.72754 -1.661133,0 -2.57373,0.62549 -0.9125981,0.62549 -0.9125981,1.66114 0,0.94335 0.7280271,1.41503 0.738281,0.47168 2.737793,0.9126 2.009766,0.44092 3.188965,0.87158 1.179199,0.43067 2.02002,1.34327 0.84082,0.90234 0.84082,2.43017 0,1.93799 -1.54834,3.21973 -1.538086,1.28174 -4.019531,1.28174 z"
         id="path394"
         inkscape:connector-curvature="0" />
      <path
         d="m 28.343262,439.38571 q -1.445801,1.64063 -3.250489,1.64063 -3.681152,0 -3.681152,-4.01953 v -7.11622 h 1.937988 v 7.03418 q 0,1.33301 0.47168,1.91748 0.47168,0.58448 1.558594,0.58448 1.620117,0 2.963379,-1.74317 v -7.79297 h 1.927734 v 10.8794 h -1.927734 z"
         id="path396"
         inkscape:connector-curvature="0" />
      <path
         d="m 35.080078,431.19284 q 1.291992,-1.54834 3.106934,-1.54834 2.132812,0 3.301758,1.51758 1.168945,1.50732 1.168945,4.08105 0,2.67627 -1.3125,4.23487 -1.302246,1.54834 -3.291504,1.54834 -1.763672,0 -2.973633,-1.09717 v 0.84082 H 33.14209 v -15.03223 h 1.937988 z m 0,6.99316 q 1.240723,1.32276 2.850586,1.32276 1.250977,0 1.989258,-1.06641 0.738281,-1.07666 0.738281,-3.19922 0,-2.00976 -0.697266,-3.04541 -0.697265,-1.0459 -1.948242,-1.0459 -1.609863,0 -2.932617,1.86622 z"
         id="path398"
         inkscape:connector-curvature="0" />
      <path
         d="m 46.769531,441.35446 q 0,2.33789 -0.738281,3.06592 -0.738281,0.73828 -2.061035,0.73828 -0.789551,0 -1.302246,-0.10254 v -1.64062 q 0.553711,0.14355 1.07666,0.14355 0.635742,0 0.861328,-0.45117 0.225586,-0.44092 0.225586,-1.79443 v -11.42286 h 1.937988 z m 0,-13.5249 h -1.937988 v -2.0918 h 1.937988 z"
         id="path400"
         inkscape:connector-curvature="0" />
      <path
         d="m 54.172852,441.02634 q -2.399415,0 -3.855469,-1.49707 -1.456055,-1.50733 -1.456055,-4.19385 0,-2.66602 1.404785,-4.17334 1.415039,-1.51758 3.691407,-1.51758 2.327636,0 3.711914,1.48682 1.394531,1.48681 1.394531,4.2041 v 0.46142 h -8.192871 q 0.123047,1.88672 1.035644,2.79932 0.922852,0.9126 2.266114,0.9126 1.015136,0 1.825195,-0.5127 0.820312,-0.52295 0.861328,-1.47656 h 1.999512 q -0.225586,1.68164 -1.527832,2.59424 -1.291993,0.9126 -3.158203,0.9126 z m 2.850585,-6.74707 q -0.235839,-1.56885 -1.056152,-2.34815 -0.820312,-0.7793 -2.009765,-0.7793 -1.158692,0 -1.989258,0.7793 -0.830567,0.76904 -1.056153,2.34815 z"
         id="path402"
         inkscape:connector-curvature="0" />
      <path
         d="m 65.646973,441.02634 q -2.317383,0 -3.711914,-1.48682 -1.384278,-1.49707 -1.384278,-4.2041 0,-2.71729 1.384278,-4.2041 1.394531,-1.48682 3.711914,-1.48682 1.784179,0 2.973632,0.90234 1.199707,0.90235 1.41504,2.6045 h -1.989258 q -0.04102,-0.97412 -0.738282,-1.48682 -0.687011,-0.5127 -1.661132,-0.5127 -1.384278,0 -2.245606,1.05616 -0.861328,1.0459 -0.861328,3.12744 0,2.07129 0.861328,3.12744 0.861328,1.0459 2.245606,1.0459 0.974121,0 1.661132,-0.5127 0.697266,-0.51269 0.738282,-1.47656 h 1.989258 q -0.215333,1.70215 -1.41504,2.60449 -1.189453,0.90235 -2.973632,0.90235 z"
         id="path404"
         inkscape:connector-curvature="0" />
      <path
         d="m 75.962402,440.7905 q -0.635742,0.12304 -1.384277,0.12304 -1.189453,0 -1.743164,-0.42041 -0.553711,-0.43066 -0.687012,-1.09716 -0.133301,-0.66651 -0.133301,-1.81495 v -6.17285 h -1.343261 v -1.51758 h 1.343261 v -2.70703 h 1.927735 v 2.70703 h 1.763672 v 1.51758 h -1.763672 v 6.27539 q 0,1.11768 0.276855,1.4253 0.28711,0.29736 0.779297,0.29736 0.502442,0 0.963867,-0.082 z"
         id="path406"
         inkscape:connector-curvature="0" />
    </g>
    <line
       y1="356"
       style="opacity:1;fill:none;stroke:#000000;stroke-width:2;stroke-linecap:butt;stroke-linejoin:miter;stroke-miterlimit:9"
       id="493"
       x2="163"
       y2="356"
       x1="69" />
  </g>
  <defs
     id="clips_hatches_and_gradients">
    <clipPath
       id="409_text_clipper">
      <rect
         x="166"
         y="76"
         width="150.46001"
         height="26.389999"
         id="410" />
    </clipPath>
    <clipPath
       id="421_text_clipper">
      <rect
         x="166"
         y="236"
         width="134.53"
         height="26.389999"
         id="422" />
    </clipPath>
    <clipPath
       id="433_text_clipper">
      <rect
         x="166"
         y="396"
         width="103.3"
         height="26.389999"
         id="434" />
    </clipPath>
    <clipPath
       id="445_text_clipper">
      <rect
         x="6"
         y="76"
         width="83.940002"
         height="52.790001"
         id="446" />
    </clipPath>
    <clipPath
       id="451_text_clipper">
      <rect
         x="6"
         y="99.769997"
         width="83.940002"
         height="52.790001"
         id="452" />
    </clipPath>
    <clipPath
       id="464_text_clipper">
      <rect
         x="6"
         y="236"
         width="103.3"
         height="52.790001"
         id="465" />
    </clipPath>
    <clipPath
       id="470_text_clipper">
      <rect
         x="6"
         y="259.76999"
         width="103.3"
         height="52.790001"
         id="471" />
    </clipPath>
    <clipPath
       id="483_text_clipper">
      <rect
         x="6"
         y="396"
         width="103.3"
         height="52.790001"
         id="484" />
    </clipPath>
    <clipPath
       id="489_text_clipper">
      <rect
         x="6"
         y="419.76999"
         width="103.3"
         height="52.790001"
         id="490" />
    </clipPath>
  </defs>
  <text
     xml:space="preserve"
     style="font-style:normal;font-weight:normal;font-size:10px;line-height:1.25;font-family:sans-serif;letter-spacing:0px;word-spacing:0px;fill:#000000;fill-opacity:1;stroke:none;stroke-width:0.5"
     x="23.301769"
     y="19.218113"
     id="text225"><tspan
       sodipodi:role="line"
       id="tspan223"
       x="23.301769"
       y="19.218113"
       style="font-size:10px;stroke-width:0.5">Subjects</tspan><tspan
       sodipodi:role="line"
       x="23.301769"
       y="31.718113"
       style="font-size:10px;stroke-width:0.5"
       id="tspan227">(Publish)</tspan></text>
</svg>
